<?xml version="1.0" standalone="no"?>
<!DOCTYPE svg PUBLIC "-//W3C//DTD SVG 20010904//EN"
 "http://www.w3.org/TR/2001/REC-SVG-20010904/DTD/svg10.dtd">
<svg version="1.0" xmlns="http://www.w3.org/2000/svg"
 width="795.000000pt" height="314.000000pt" viewBox="0 0 795.000000 314.000000"
 preserveAspectRatio="xMidYMid meet">

<g transform="translate(0.000000,314.000000) scale(0.100000,-0.100000)"
fill="#000000" stroke="none">
<path d="M1285 3084 c-51 -26 -144 -126 -175 -188 -34 -68 -38 -115 -12 -139
23 -21 35 -21 72 -2 17 9 30 14 30 12 0 -2 -16 -34 -35 -73 -38 -75 -42 -94
-21 -94 7 0 23 26 35 58 12 33 38 85 57 116 19 31 34 59 34 62 0 13 -27 0 -63
-31 -69 -60 -118 -39 -91 38 30 86 173 246 208 234 28 -9 16 -48 -28 -95 -49
-52 -54 -62 -33 -62 15 0 69 55 86 87 14 28 14 66 -1 81 -16 16 -27 15 -63 -4z"/>
<path d="M109 3044 c-34 -77 -70 -234 -67 -294 5 -86 23 -76 96 48 34 59 90
145 123 191 58 81 71 114 29 76 -25 -22 -122 -165 -181 -265 -29 -49 -45 -68
-47 -57 -5 27 26 161 59 251 32 89 34 96 18 96 -5 0 -19 -21 -30 -46z"/>
<path d="M5514 3056 c-80 -35 -204 -206 -204 -281 0 -57 51 -80 98 -42 24 19
21 1 -14 -67 -36 -73 -42 -96 -21 -96 6 0 22 26 35 58 12 33 38 85 57 117 19
31 35 59 35 61 0 12 -25 0 -66 -31 -48 -37 -75 -43 -92 -22 -33 39 80 220 174
277 68 43 73 -6 8 -79 -47 -52 -53 -72 -15 -52 52 29 97 125 71 156 -15 18
-26 18 -66 1z"/>
<path d="M4347 3033 c-61 -121 -100 -368 -58 -368 8 0 45 52 83 115 38 63 92
145 119 183 27 37 49 73 49 79 0 33 -111 -114 -195 -259 -26 -46 -50 -83 -53
-83 -13 0 14 128 49 234 44 133 42 126 29 126 -5 0 -16 -12 -23 -27z"/>
<path d="M3403 3034 c-67 -33 -177 -174 -193 -247 -8 -38 5 -83 27 -91 9 -4
33 2 55 12 21 11 38 18 38 16 0 -2 -16 -33 -35 -70 -35 -65 -45 -109 -24 -102
6 2 23 33 38 68 15 36 39 84 54 107 43 68 35 79 -26 33 -58 -43 -78 -48 -97
-25 -28 34 36 152 133 243 57 53 83 64 93 37 7 -18 -29 -78 -62 -104 -23 -18
-32 -41 -16 -41 4 0 24 17 45 38 45 46 63 92 47 121 -13 25 -34 26 -77 5z"/>
<path d="M2230 2983 c-27 -72 -55 -181 -65 -250 -6 -50 5 -93 24 -93 5 0 36
46 69 103 33 56 85 138 117 182 62 87 72 105 57 105 -15 0 -105 -125 -180
-248 l-64 -107 6 62 c4 49 52 218 83 291 2 6 -2 12 -10 12 -10 0 -24 -22 -37
-57z"/>
<path d="M1913 2988 c-12 -18 -20 -34 -17 -37 7 -7 54 46 54 60 0 18 -15 8
-37 -23z"/>
<path d="M7614 2992 c-114 -84 -201 -233 -173 -296 17 -36 36 -39 81 -16 22
11 38 17 36 13 -2 -4 -18 -37 -36 -73 -18 -36 -32 -73 -32 -82 0 -30 20 -20
32 15 6 17 31 70 55 116 24 46 42 88 41 92 -2 5 -23 -7 -46 -26 -24 -19 -53
-37 -63 -40 -24 -8 -49 11 -49 35 0 36 62 139 119 197 61 63 95 83 113 65 16
-16 0 -48 -48 -96 -27 -28 -40 -47 -33 -51 16 -11 88 64 99 104 20 71 -28 92
-96 43z"/>
<path d="M574 2973 c-16 -23 -38 -43 -48 -45 -23 -4 -34 -28 -13 -28 11 0 9
-10 -9 -47 -28 -54 -32 -108 -8 -117 18 -7 94 62 94 85 -1 8 -14 -3 -31 -23
-60 -74 -78 -39 -29 59 26 52 35 61 70 72 40 12 49 34 10 24 -22 -6 -26 7 -9
24 6 6 9 17 7 25 -3 8 -16 -3 -34 -29z"/>
<path d="M6461 2958 c-28 -68 -60 -192 -67 -265 -5 -47 -3 -61 10 -72 9 -8 18
-12 21 -10 2 3 36 58 75 123 40 65 94 150 122 188 47 64 58 97 24 68 -20 -16
-144 -199 -187 -275 -29 -52 -34 -57 -37 -36 -7 48 28 179 83 314 5 12 3 17
-8 17 -8 0 -24 -23 -36 -52z"/>
<path d="M330 2985 c-16 -19 -3 -40 16 -24 15 13 19 39 5 39 -5 0 -14 -7 -21
-15z"/>
<path d="M6141 2959 c-13 -17 -20 -34 -16 -37 7 -7 55 46 55 61 0 16 -17 5
-39 -24z"/>
<path d="M4804 2943 c-16 -23 -37 -42 -46 -43 -22 0 -34 -20 -18 -30 9 -5 7
-17 -9 -48 -12 -23 -21 -57 -21 -77 0 -30 3 -35 24 -35 16 0 35 13 55 37 41
50 39 68 -2 20 -60 -70 -75 -40 -28 58 25 53 33 63 69 74 41 14 51 34 12 24
-22 -6 -26 7 -9 24 6 6 9 17 7 25 -3 8 -16 -3 -34 -29z"/>
<path d="M4041 2941 c-12 -16 -21 -32 -21 -37 0 -10 40 27 51 48 16 30 -8 21
-30 -11z"/>
<path d="M4560 2955 c-16 -19 -3 -40 16 -24 15 13 19 39 5 39 -5 0 -14 -7 -21
-15z"/>
<path d="M2696 2920 c-15 -24 -34 -40 -46 -40 -24 0 -36 -18 -16 -26 14 -5 13
-10 -3 -42 -24 -48 -33 -94 -22 -111 14 -22 55 -5 84 36 35 49 25 57 -14 10
-17 -20 -35 -37 -40 -37 -17 0 -9 50 15 98 29 57 40 67 84 77 18 3 30 11 26
16 -3 5 -17 6 -31 3 -26 -7 -26 -7 -10 17 19 26 21 39 8 39 -4 0 -20 -18 -35
-40z"/>
<path d="M2453 2935 c-3 -9 -3 -19 1 -22 7 -7 36 16 36 28 0 15 -30 10 -37 -6z"/>
<path d="M6692 2918 c-14 -14 -16 -38 -3 -38 5 0 14 7 21 15 17 20 0 41 -18
23z"/>
<path d="M6924 2890 c-15 -22 -35 -40 -45 -40 -23 0 -35 -18 -16 -26 13 -5 11
-14 -10 -60 -28 -61 -25 -104 6 -104 22 0 81 57 81 79 0 9 -13 0 -31 -22 -17
-20 -35 -37 -40 -37 -16 0 -10 49 12 93 29 57 46 75 80 82 16 4 29 11 29 16 0
5 -12 6 -27 3 l-27 -7 17 26 c20 30 21 37 7 37 -5 0 -22 -18 -36 -40z"/>
<path d="M653 2878 c-69 -71 -72 -175 -4 -139 28 16 70 90 73 131 4 49 -26 52
-69 8z m40 -35 c-11 -15 -18 -33 -16 -39 2 -5 -8 -21 -22 -34 -22 -20 -25 -21
-31 -6 -14 35 56 140 78 118 7 -7 5 -19 -9 -39z"/>
<path d="M1842 2894 c-49 -34 -82 -147 -46 -161 8 -3 25 4 40 17 l24 23 0 -22
c0 -12 7 -24 15 -28 21 -7 32 4 17 19 -16 16 -15 57 3 88 8 14 14 37 15 53 0
22 -5 27 -23 27 -12 0 -33 -7 -45 -16z m48 -13 c0 -13 -52 -105 -64 -113 -18
-13 -26 -9 -26 13 0 25 16 57 43 87 20 22 47 30 47 13z"/>
<path d="M346 2860 c-56 -62 -63 -122 -14 -128 18 -2 37 7 62 28 20 18 36 37
36 42 0 6 -16 -4 -35 -21 -79 -69 -102 -9 -27 71 14 15 29 25 34 22 5 -3 2
-15 -8 -25 -15 -16 -15 -19 -2 -19 17 0 28 20 28 51 0 32 -35 22 -74 -21z"/>
<path d="M786 2867 c-34 -44 -69 -134 -56 -142 5 -3 17 9 26 27 9 18 28 45 42
60 23 25 26 26 38 10 12 -16 15 -16 48 2 41 22 50 42 11 24 -32 -14 -43 -4
-22 20 10 10 17 22 17 25 0 15 -18 6 -58 -29 -42 -35 -57 -37 -26 -3 9 10 14
23 12 30 -2 7 -16 -3 -32 -24z"/>
<path d="M1470 2883 c0 -7 11 -13 25 -13 24 0 23 -3 -27 -64 -29 -35 -56 -65
-60 -65 -17 -2 -19 45 -3 86 21 53 13 69 -12 23 -34 -62 -59 -95 -68 -92 -16
5 -6 44 21 79 29 38 25 56 -5 29 -24 -22 -51 -77 -51 -105 0 -32 27 -37 56
-11 18 18 24 20 24 8 0 -33 26 -41 78 -24 27 9 57 13 67 10 13 -5 16 -3 13 7
-3 9 -17 13 -37 11 -29 -2 -31 0 -21 17 5 11 33 39 60 63 28 24 50 46 50 50 0
4 -25 6 -55 5 -36 -1 -55 -6 -55 -14z"/>
<path d="M277 2872 c-14 -16 -67 -124 -67 -138 0 -21 24 12 58 79 38 76 41 94
9 59z"/>
<path d="M1622 2878 c-15 -20 -54 -99 -63 -130 -11 -41 7 -35 30 10 10 20 28
46 40 56 l21 19 -15 -37 c-24 -56 -15 -80 12 -35 12 19 32 44 44 55 22 19 22
19 10 -3 -16 -30 -14 -68 4 -83 14 -12 15 -8 9 27 -5 35 -2 44 25 75 50 57 38
79 -17 33 -30 -25 -56 -35 -34 -13 7 7 12 16 12 20 0 15 -27 8 -45 -12 -26
-28 -40 -25 -21 5 17 25 7 36 -12 13z"/>
<path d="M1952 2838 c-56 -99 -50 -137 8 -53 38 56 54 58 33 5 -13 -32 -14
-45 -5 -66 7 -14 17 -22 22 -19 6 4 7 13 1 22 -12 23 3 76 34 117 36 47 26 56
-25 22 -22 -14 -40 -22 -40 -17 0 6 5 13 10 16 13 8 13 25 1 25 -5 0 -23 -24
-39 -52z"/>
<path d="M4893 2862 c-33 -27 -63 -84 -63 -120 0 -66 59 -48 98 31 31 62 33
101 7 104 -11 2 -30 -5 -42 -15z m40 -8 c3 -4 -1 -21 -10 -38 -9 -17 -18 -37
-19 -44 -4 -21 -36 -52 -46 -46 -15 10 0 64 28 101 25 33 35 39 47 27z"/>
<path d="M6068 2861 c-32 -26 -58 -79 -58 -120 0 -42 24 -50 56 -21 l24 23 0
-22 c0 -22 25 -40 38 -26 4 4 1 10 -5 12 -18 6 -16 58 3 94 32 63 -5 102 -58
60z m52 -6 c0 -3 -10 -25 -21 -48 -36 -71 -69 -98 -69 -56 0 25 16 57 43 87
19 20 47 30 47 17z"/>
<path d="M2781 2833 c-49 -49 -72 -116 -48 -140 14 -15 18 -15 40 0 37 24 70
85 71 130 1 54 -16 57 -63 10z m49 -11 c0 -10 -5 -23 -12 -30 -7 -7 -17 -27
-22 -44 -13 -38 -46 -51 -46 -18 0 26 15 57 43 88 25 27 37 28 37 4z"/>
<path d="M3960 2832 c-45 -45 -70 -113 -50 -137 17 -20 25 -19 48 5 19 20 19
20 30 -5 6 -14 18 -25 27 -25 19 0 19 9 -1 32 -16 16 -16 21 2 65 21 55 23 73
10 91 -14 19 -26 15 -66 -26z m60 4 c0 -2 -15 -30 -32 -62 -38 -66 -58 -79
-58 -37 0 37 45 103 70 103 11 0 20 -2 20 -4z"/>
<path d="M4496 2828 c-32 -55 -59 -119 -52 -125 9 -9 24 7 31 34 3 16 20 49
35 75 16 26 25 50 20 53 -5 3 -20 -14 -34 -37z"/>
<path d="M4577 2834 c-56 -57 -64 -134 -13 -134 27 0 96 54 96 75 0 7 -15 -2
-34 -21 -53 -53 -94 -38 -63 23 20 38 67 82 67 62 0 -8 -5 -20 -12 -27 -7 -7
-8 -12 -2 -12 17 0 34 23 34 47 0 35 -31 29 -73 -13z"/>
<path d="M5023 2847 c-36 -39 -82 -147 -63 -147 5 0 17 15 29 33 11 18 31 43
44 55 21 20 25 21 30 8 4 -9 13 -16 21 -16 18 0 76 49 59 50 -6 0 -15 -4 -18
-10 -3 -5 -16 -10 -27 -10 l-21 0 21 23 c46 49 21 50 -36 1 -45 -38 -52 -38
-26 2 22 32 13 40 -13 11z"/>
<path d="M5695 2861 c-10 -9 8 -21 32 -21 25 0 25 -1 -19 -48 -24 -26 -49 -56
-55 -66 -6 -10 -15 -16 -22 -12 -16 10 -14 50 6 91 9 19 13 38 8 42 -4 5 -9 4
-11 -2 -15 -40 -67 -115 -80 -115 -19 0 -11 31 22 79 27 40 24 53 -7 25 -45
-41 -65 -118 -33 -131 8 -3 25 4 40 17 18 18 24 20 24 8 0 -33 27 -42 75 -24
25 10 54 15 66 11 16 -5 20 -3 17 6 -3 8 -18 13 -37 13 -17 -1 -31 2 -31 6 0
4 27 33 61 64 37 35 55 58 47 61 -15 5 -97 2 -103 -4z"/>
<path d="M5841 2832 c-17 -24 -61 -123 -61 -137 0 -3 4 -5 10 -5 5 0 18 17 29
38 10 20 28 46 40 56 l21 19 -21 -47 c-20 -47 -17 -79 5 -42 18 32 79 94 67
69 -16 -31 -13 -68 4 -83 14 -12 15 -8 9 26 -5 34 -1 44 25 78 48 60 40 74
-19 31 -41 -30 -44 -31 -30 -5 8 16 8 20 -3 20 -8 0 -22 -9 -32 -20 -26 -28
-40 -25 -21 5 23 35 2 32 -23 -3z"/>
<path d="M6186 2818 c-37 -65 -50 -97 -42 -106 5 -4 16 4 25 18 9 13 26 36 39
50 l24 25 -7 -25 c-15 -57 -17 -81 -5 -95 17 -20 33 -9 20 14 -12 24 2 74 35
116 14 19 25 36 25 39 0 13 -25 4 -57 -20 -18 -14 -33 -21 -33 -15 0 5 5 13
10 16 13 8 13 25 0 25 -5 0 -20 -19 -34 -42z"/>
<path d="M2391 2805 c-33 -53 -56 -113 -47 -122 8 -8 5 -12 50 80 43 90 42
112 -3 42z"/>
<path d="M2482 2825 c-33 -27 -65 -96 -56 -119 15 -38 74 -24 116 28 31 38 19
39 -22 2 -44 -39 -58 -44 -66 -21 -8 21 13 68 42 96 27 25 44 18 26 -11 -7
-11 -8 -20 -2 -20 12 0 30 33 30 54 0 24 -35 19 -68 -9z"/>
<path d="M2911 2821 c-21 -30 -61 -116 -61 -132 0 -22 20 -6 43 34 36 62 54
75 71 52 12 -16 15 -16 44 -1 17 9 34 20 37 26 8 13 2 13 -30 -2 -35 -16 -43
-3 -15 27 36 38 4 30 -48 -12 -32 -26 -41 -30 -33 -15 6 11 16 24 21 27 6 3
10 10 10 16 0 18 -19 9 -39 -20z"/>
<path d="M3593 2838 c2 -7 16 -13 31 -13 14 1 25 -2 24 -6 -8 -19 -116 -128
-121 -122 -12 11 -7 67 8 93 17 30 18 40 5 40 -5 0 -19 -19 -31 -42 -24 -49
-48 -78 -62 -78 -15 0 2 52 29 87 26 35 29 43 14 43 -5 0 -24 -19 -40 -42 -49
-67 -32 -150 19 -99 25 25 31 26 31 7 0 -29 26 -38 65 -21 21 8 51 15 67 15
19 0 27 4 22 11 -3 6 -19 9 -35 5 -43 -8 -36 9 26 69 30 29 55 55 55 59 0 3
-25 6 -56 6 -40 0 -54 -3 -51 -12z"/>
<path d="M3752 2837 c-16 -18 -72 -140 -72 -154 0 -7 5 -13 10 -13 6 0 10 4
10 8 0 13 60 105 65 100 3 -2 -3 -23 -12 -46 -9 -23 -13 -46 -8 -50 4 -4 10
-2 12 5 7 19 64 95 69 91 2 -2 0 -18 -4 -34 -10 -37 -5 -64 13 -64 10 0 12 9
8 35 -5 30 -1 42 26 75 17 21 31 41 31 44 0 14 -31 4 -59 -20 -17 -14 -31 -21
-31 -15 0 5 5 13 10 16 6 4 8 11 4 16 -3 6 -20 -1 -40 -16 -36 -28 -41 -26
-23 7 13 23 7 34 -9 15z"/>
<path d="M4082 2795 c-35 -54 -48 -92 -37 -103 3 -4 11 1 17 12 17 31 71 84
62 61 -11 -29 -11 -98 1 -102 6 -2 10 16 10 40 0 32 7 53 28 80 45 59 34 74
-23 32 -38 -28 -48 -32 -30 -10 6 8 10 20 8 27 -3 7 -19 -9 -36 -37z"/>
<path d="M7011 2803 c-49 -49 -72 -116 -48 -140 14 -15 18 -15 40 0 37 24 70
85 71 130 1 54 -16 57 -63 10z m49 -6 c0 -7 -7 -22 -15 -33 -8 -10 -15 -26
-15 -35 0 -26 -26 -53 -44 -46 -15 6 -15 10 -1 44 24 58 75 105 75 70z"/>
<path d="M6740 2817 c-30 -16 -77 -75 -85 -108 -7 -28 15 -59 41 -59 16 0 94
68 94 82 0 6 -18 -6 -40 -26 -22 -20 -47 -36 -55 -36 -32 0 -9 75 34 114 24
22 41 15 21 -9 -7 -9 -10 -19 -6 -23 10 -9 36 27 36 49 0 25 -12 30 -40 16z"/>
<path d="M7867 2822 c-32 -2 -47 -7 -44 -15 2 -7 16 -11 31 -10 34 2 33 -2 -7
-40 -18 -18 -45 -48 -59 -67 l-27 -34 -9 24 c-7 18 -5 35 5 60 8 19 17 41 21
49 13 33 -25 1 -42 -35 -20 -43 -44 -74 -58 -74 -17 0 -7 39 22 78 33 45 26
65 -9 28 -31 -33 -52 -96 -40 -118 13 -23 25 -23 46 2 20 23 33 26 33 6 0 -29
26 -38 65 -21 21 8 51 15 67 15 19 0 27 4 22 11 -3 6 -19 9 -35 7 -16 -3 -29
0 -29 6 0 6 26 34 57 63 31 29 53 56 47 61 -5 4 -31 6 -57 4z"/>
<path d="M6637 2803 c-21 -24 -67 -117 -67 -137 0 -9 5 -16 10 -16 6 0 10 6
10 13 0 6 16 43 35 81 37 70 41 90 12 59z"/>
<path d="M7147 2802 c-18 -20 -67 -121 -67 -139 0 -24 15 -13 43 31 39 63 54
73 71 51 12 -16 14 -16 44 -1 38 20 44 41 7 24 -35 -16 -43 -2 -15 27 38 40 1
31 -50 -12 -30 -26 -39 -31 -31 -16 6 12 16 25 21 28 12 8 13 25 2 25 -5 0
-16 -8 -25 -18z"/>
<path d="M7927 2706 c-19 -56 -21 -66 -8 -66 14 0 33 55 29 86 -3 27 -5 25
-21 -20z"/>
<path d="M107 2490 c-23 -36 -45 -102 -68 -200 -22 -101 -24 -163 -5 -179 17
-14 16 -15 91 113 33 55 82 132 111 171 67 94 67 95 52 95 -7 0 -34 -29 -60
-63 -43 -58 -163 -247 -171 -271 -2 -6 -7 -9 -9 -6 -12 11 14 140 48 238 36
106 40 146 11 102z"/>
<path d="M1219 2468 c-98 -80 -174 -217 -153 -276 11 -33 54 -41 89 -18 13 9
27 16 30 16 2 0 -11 -30 -30 -66 -33 -63 -45 -114 -26 -114 5 0 18 26 30 58
12 33 38 85 57 116 53 88 48 95 -27 36 -28 -22 -55 -40 -59 -40 -25 0 -40 15
-40 39 0 92 200 317 234 263 8 -13 -22 -63 -60 -103 -39 -40 -32 -61 9 -29 40
32 69 85 65 122 -3 29 -7 33 -34 36 -25 2 -43 -6 -85 -40z"/>
<path d="M4320 2428 c-31 -73 -70 -232 -70 -288 0 -29 6 -52 14 -59 16 -14 13
-17 81 99 33 56 131 204 174 261 11 16 11 19 -1 19 -22 0 -208 -269 -232 -335
-2 -5 -6 -7 -10 -4 -12 11 15 139 50 241 36 103 39 118 25 118 -5 0 -19 -23
-31 -52z"/>
<path d="M5463 2451 c-81 -58 -173 -197 -173 -259 0 -58 48 -81 98 -46 28 20
28 15 -7 -54 -33 -66 -41 -103 -23 -109 6 -3 12 2 12 10 0 8 25 63 55 122 30
60 53 110 51 113 -3 2 -29 -15 -60 -38 -66 -50 -96 -49 -96 3 0 90 201 312
234 259 8 -13 -22 -63 -60 -103 -22 -22 -32 -39 -25 -43 6 -4 28 11 50 33 40
40 60 94 47 126 -9 24 -60 17 -103 -14z"/>
<path d="M2286 2412 c-21 -41 -64 -190 -76 -267 -10 -63 -2 -115 19 -115 5 0
31 37 57 83 55 95 137 219 171 260 24 30 29 47 14 47 -14 0 -115 -141 -179
-250 -31 -52 -57 -89 -60 -82 -8 24 19 144 53 240 21 57 31 100 26 105 -6 6
-16 -3 -25 -21z"/>
<path d="M3424 2412 c-149 -108 -233 -322 -127 -322 13 0 35 7 48 16 14 9 25
14 25 11 0 -3 -16 -36 -35 -74 -19 -37 -35 -76 -35 -86 0 -36 24 -10 50 54 15
35 41 86 58 114 37 59 32 76 -11 40 -18 -14 -47 -33 -65 -42 -30 -15 -34 -16
-48 -1 -14 14 -14 22 -4 54 19 60 64 126 129 188 61 57 101 72 101 38 0 -22
-54 -101 -75 -109 -16 -6 -21 -33 -6 -33 5 0 27 20 49 44 90 97 48 181 -54
108z"/>
<path d="M1896 2405 c-25 -38 -18 -53 9 -20 14 17 25 33 25 38 0 15 -18 6 -34
-18z"/>
<path d="M316 2401 c-20 -22 -20 -31 -1 -31 17 0 39 36 26 44 -4 3 -16 -3 -25
-13z"/>
<path d="M550 2380 c-17 -22 -40 -40 -51 -40 -10 0 -19 -4 -19 -10 0 -5 7 -10
14 -10 12 0 9 -12 -10 -55 -46 -100 -14 -150 52 -80 18 20 34 42 34 48 -1 7
-13 -3 -29 -20 -35 -42 -66 -45 -56 -5 3 15 19 50 33 77 22 41 33 52 65 59 41
10 52 31 12 24 -29 -6 -30 -5 -9 27 26 40 -2 28 -36 -15z"/>
<path d="M6127 2376 c-17 -22 -23 -36 -15 -36 16 1 51 47 46 62 -2 6 -16 -6
-31 -26z"/>
<path d="M6517 2384 c-48 -95 -98 -325 -78 -363 7 -11 15 -21 20 -21 5 0 30
37 56 83 26 45 81 131 122 191 68 100 85 137 49 106 -20 -16 -144 -199 -187
-275 -31 -54 -34 -57 -37 -33 -4 35 31 182 63 259 15 39 22 66 16 72 -6 6 -15
-2 -24 -19z"/>
<path d="M7665 2391 c-83 -51 -184 -195 -187 -266 -2 -61 44 -84 97 -49 14 9
25 14 25 12 0 -3 -16 -35 -35 -72 -34 -66 -45 -111 -25 -104 6 2 25 37 43 78
18 41 45 94 60 117 34 53 19 65 -30 23 -50 -44 -79 -56 -98 -40 -22 18 -19 39
15 107 49 97 179 217 207 190 12 -13 -9 -57 -47 -96 -53 -54 -47 -76 8 -27 93
84 66 189 -33 127z"/>
<path d="M4546 2374 c-20 -19 -20 -34 -1 -34 18 0 39 36 26 44 -5 4 -17 -1
-25 -10z"/>
<path d="M4778 2350 c-17 -24 -36 -40 -48 -40 -11 0 -20 -4 -20 -10 0 -5 7
-10 15 -10 12 0 10 -10 -10 -51 -30 -58 -31 -112 -2 -117 18 -4 87 59 87 79 0
18 -15 9 -35 -21 -11 -16 -28 -30 -39 -30 -15 0 -17 5 -11 28 3 15 19 50 33
77 22 41 33 52 65 59 41 11 52 31 11 23 -19 -3 -24 -1 -20 9 3 8 9 21 12 29
12 29 -11 14 -38 -25z"/>
<path d="M4081 2331 c-12 -16 -21 -32 -21 -37 0 -10 40 27 51 48 16 30 -8 21
-30 -11z"/>
<path d="M2502 2338 c-14 -14 -16 -38 -4 -38 12 0 32 23 32 37 0 16 -12 17
-28 1z"/>
<path d="M2736 2310 c-15 -24 -34 -40 -46 -40 -10 0 -22 -4 -25 -10 -3 -5 1
-10 9 -10 20 0 20 -4 -1 -43 -56 -110 -7 -175 60 -80 33 46 25 59 -9 15 -49
-62 -70 -33 -33 48 27 60 45 78 85 86 19 3 34 11 34 16 0 6 -12 8 -26 5 -19
-3 -24 -1 -20 9 3 8 9 21 12 29 12 30 -14 14 -40 -25z"/>
<path d="M641 2301 c-53 -49 -76 -126 -46 -151 33 -28 130 116 112 164 -9 24
-31 19 -66 -13z m49 -13 c0 -7 -7 -22 -15 -32 -8 -11 -15 -27 -15 -36 0 -26
-38 -56 -52 -42 -13 13 3 58 34 97 21 26 48 33 48 13z"/>
<path d="M1827 2309 c-54 -42 -84 -133 -52 -159 11 -9 19 -7 40 14 21 21 25
22 25 8 0 -19 18 -42 32 -42 4 0 8 7 8 15 0 8 -4 15 -10 15 -15 0 -12 47 6 81
18 36 15 83 -7 87 -8 1 -28 -7 -42 -19z m43 -14 c0 -17 -53 -107 -66 -112 -36
-14 -29 38 12 86 22 27 54 42 54 26z"/>
<path d="M358 2304 c-31 -16 -78 -90 -78 -122 0 -33 34 -46 69 -28 32 17 75
66 66 75 -3 3 -16 -7 -28 -21 -32 -38 -62 -51 -77 -33 -21 26 55 134 78 110 3
-2 -1 -11 -8 -20 -7 -9 -10 -18 -7 -21 9 -10 40 45 33 61 -7 18 -13 18 -48 -1z"/>
<path d="M822 2285 c-49 -43 -60 -45 -31 -4 20 29 20 31 3 27 -21 -4 -84 -118
-84 -151 1 -22 1 -22 18 1 50 68 75 93 85 83 17 -17 43 -13 68 10 23 20 18 21
-26 3 -22 -9 -18 12 6 35 12 11 16 21 10 25 -6 4 -28 -9 -49 -29z"/>
<path d="M1493 2313 c-49 -5 -59 -23 -12 -23 l31 0 -57 -62 c-32 -35 -61 -64
-66 -66 -17 -7 -19 38 -3 77 9 23 13 45 9 49 -4 4 -9 3 -11 -3 -15 -39 -67
-116 -77 -112 -17 6 -10 33 20 79 31 47 24 61 -11 23 -37 -40 -54 -101 -34
-121 13 -13 17 -13 39 5 l24 20 21 -26 c20 -25 21 -25 52 -9 17 9 45 16 62 16
16 0 30 5 30 10 0 6 -17 10 -37 10 l-37 0 62 63 c34 35 59 66 56 70 -4 4 -10
6 -13 5 -3 -1 -25 -3 -48 -5z"/>
<path d="M6732 2308 c-14 -14 -16 -38 -4 -38 12 0 32 23 32 37 0 16 -12 17
-28 1z"/>
<path d="M6968 2285 c-13 -19 -36 -40 -53 -46 -23 -9 -26 -13 -12 -16 21 -6
21 -5 -3 -53 -27 -53 -30 -99 -7 -114 15 -9 24 -4 58 32 23 24 38 46 34 50 -3
3 -17 -8 -31 -26 -50 -63 -72 -27 -33 51 29 57 46 75 80 82 42 9 51 30 9 22
l-32 -7 16 25 c19 28 20 35 6 35 -5 0 -20 -16 -32 -35z"/>
<path d="M258 2288 c-34 -51 -59 -111 -56 -131 2 -16 14 0 43 58 21 44 41 83
43 88 9 18 -17 5 -30 -15z"/>
<path d="M1575 2238 c-35 -72 -49 -134 -22 -96 7 10 23 36 37 58 30 49 44 52
24 5 -7 -19 -14 -42 -14 -52 1 -16 2 -16 15 2 8 11 24 35 37 52 27 38 42 43
27 9 -13 -27 -5 -76 12 -76 6 0 7 13 4 33 -6 28 -1 41 29 80 19 25 32 49 27
51 -5 3 -27 -8 -50 -25 -36 -26 -41 -27 -31 -9 18 34 5 35 -37 4 l-38 -29 18
27 c20 32 21 38 7 38 -6 0 -26 -32 -45 -72z"/>
<path d="M1936 2258 c-32 -55 -48 -99 -40 -107 3 -3 14 5 23 19 24 36 63 81
67 78 2 -2 -3 -23 -12 -46 -10 -31 -11 -48 -4 -62 18 -33 28 -23 23 23 -4 35
0 49 26 84 17 24 31 45 31 48 0 12 -29 4 -53 -15 -27 -22 -48 -27 -29 -8 14
14 16 28 2 28 -5 0 -20 -19 -34 -42z"/>
<path d="M4877 2279 c-53 -41 -88 -149 -53 -162 23 -9 64 30 92 85 41 80 19
123 -39 77z m43 -15 c0 -3 -6 -18 -13 -32 -8 -15 -20 -40 -28 -57 -19 -39 -45
-40 -42 -2 2 33 47 97 69 97 7 0 14 -3 14 -6z"/>
<path d="M6052 2275 c-36 -30 -62 -82 -62 -123 0 -41 25 -48 56 -15 21 23 24
24 24 6 0 -19 17 -43 32 -43 4 0 8 7 8 15 0 8 -4 15 -10 15 -15 0 -12 39 6 91
28 77 2 102 -54 54z m48 -12 c0 -5 -13 -30 -28 -58 -27 -50 -62 -72 -62 -39 0
31 49 104 70 104 11 0 20 -3 20 -7z"/>
<path d="M4559 2250 c-45 -47 -62 -106 -35 -126 24 -17 53 -7 93 33 47 48 33
54 -18 8 -36 -33 -43 -35 -56 -22 -13 13 -13 19 2 48 23 44 45 69 62 69 11 0
11 -4 3 -21 -17 -31 -4 -35 15 -5 19 29 14 56 -11 56 -10 0 -34 -18 -55 -40z"/>
<path d="M5063 2267 c-15 -12 -37 -29 -48 -37 -19 -15 -19 -15 -2 13 22 33 13
52 -10 22 -15 -19 -73 -139 -73 -150 0 -18 22 2 55 50 38 55 49 63 60 45 10
-16 41 -11 66 11 23 20 18 21 -26 3 -24 -10 -18 22 7 38 14 9 18 17 11 21 -6
4 -24 -3 -40 -16z"/>
<path d="M5723 2283 c-50 -5 -58 -23 -11 -23 l31 0 -59 -62 c-32 -35 -63 -63
-69 -63 -17 0 -17 42 -1 74 9 16 16 35 16 41 0 24 -20 3 -47 -50 -16 -30 -36
-55 -44 -55 -20 0 -13 32 17 78 31 47 22 64 -12 22 -36 -45 -51 -102 -32 -121
13 -13 17 -13 38 4 23 19 24 19 44 -5 20 -23 22 -24 51 -9 17 9 45 16 63 16
44 0 41 18 -4 22 l-36 3 60 59 c34 33 59 63 56 68 -3 4 -8 7 -12 6 -4 -1 -26
-3 -49 -5z"/>
<path d="M4477 2243 c-36 -58 -58 -121 -46 -129 6 -3 13 5 16 17 4 13 21 52
40 87 36 67 28 86 -10 25z"/>
<path d="M5810 2228 c-29 -51 -48 -114 -37 -124 2 -3 19 20 36 51 32 56 64 79
36 25 -17 -33 -20 -60 -5 -60 6 0 10 4 10 8 0 12 62 94 67 89 2 -3 -1 -16 -8
-30 -12 -28 -5 -77 12 -77 6 0 7 13 4 33 -6 28 -1 41 28 79 20 26 33 49 30 52
-7 7 -42 -11 -70 -37 -23 -21 -33 -11 -11 11 25 25 -3 23 -37 -2 -39 -30 -43
-28 -19 9 10 15 12 25 5 25 -6 0 -24 -24 -41 -52z"/>
<path d="M6235 2255 c-34 -27 -54 -33 -35 -10 16 19 6 32 -13 17 -20 -17 -72
-131 -63 -139 5 -5 16 3 25 17 9 14 28 38 43 55 l27 30 -15 -45 c-11 -33 -13
-50 -5 -67 15 -33 32 -29 25 7 -9 40 1 73 32 110 35 40 19 58 -21 25z"/>
<path d="M2830 2234 c-52 -44 -79 -117 -56 -149 13 -18 15 -18 39 -2 44 29 94
128 80 163 -8 21 -28 17 -63 -12z m40 -23 c0 -10 -7 -24 -15 -31 -8 -7 -14
-18 -13 -24 4 -18 -22 -56 -37 -56 -30 0 -14 62 28 108 25 27 37 28 37 3z"/>
<path d="M4018 2245 c-15 -9 -38 -39 -54 -70 -22 -47 -25 -60 -16 -80 14 -30
23 -31 47 -5 23 25 35 25 35 1 0 -10 7 -22 16 -25 25 -10 29 2 9 24 -18 20
-18 22 2 69 35 84 20 118 -39 86z m40 -22 c-44 -99 -88 -143 -88 -90 0 33 47
97 71 97 11 0 19 -3 17 -7z"/>
<path d="M2530 2224 c-53 -45 -80 -113 -54 -138 21 -21 49 -13 92 27 46 45 40
56 -8 13 -44 -39 -58 -44 -66 -21 -8 21 13 68 42 96 27 25 44 18 26 -11 -8
-13 -8 -20 -2 -20 15 0 34 46 27 64 -9 22 -21 20 -57 -10z"/>
<path d="M3006 2215 c-46 -35 -60 -37 -29 -3 9 10 13 21 9 26 -12 11 -54 -47
-76 -106 -23 -60 -23 -62 -11 -62 5 0 21 19 34 43 31 53 58 78 64 60 7 -19 48
-15 74 7 26 21 19 26 -12 10 -32 -17 -43 -1 -18 26 36 38 16 38 -35 -1z"/>
<path d="M3678 2243 c-53 -4 -66 -23 -17 -23 17 0 29 -4 27 -9 -8 -23 -109
-122 -118 -116 -14 9 -12 56 5 85 17 30 18 40 5 40 -5 0 -21 -22 -34 -48 -25
-49 -52 -79 -62 -69 -9 8 4 41 32 82 33 49 20 60 -17 15 -29 -35 -46 -88 -35
-115 7 -20 22 -19 46 5 24 24 30 25 30 6 0 -29 26 -38 65 -21 21 8 50 15 66
15 16 0 29 5 29 11 0 7 -14 10 -35 7 -19 -2 -35 0 -35 5 0 5 25 33 55 62 49
46 69 78 48 73 -5 -1 -29 -3 -55 -5z"/>
<path d="M2431 2195 c-33 -53 -56 -113 -47 -122 8 -8 5 -12 50 80 43 90 42
112 -3 42z"/>
<path d="M3786 2218 c-36 -56 -68 -140 -57 -151 7 -7 11 -7 11 -1 0 14 60 107
66 102 2 -3 -2 -24 -10 -46 -18 -50 -6 -55 23 -9 11 18 30 42 42 53 l22 19
-12 -23 c-15 -28 -11 -84 6 -89 8 -3 10 6 6 32 -5 30 -1 42 26 75 17 21 31 41
31 44 0 14 -31 4 -59 -20 -29 -24 -44 -21 -19 4 25 25 -3 23 -37 -2 -37 -29
-42 -27 -24 6 15 29 3 34 -15 6z"/>
<path d="M4112 2168 c-18 -35 -32 -69 -32 -75 0 -22 15 -14 32 15 9 15 27 36
39 47 22 20 22 20 15 0 -16 -40 -18 -55 -12 -80 10 -39 23 -29 22 18 0 30 7
54 28 85 40 58 27 68 -33 25 -24 -17 -24 -17 -12 5 9 18 9 22 -2 22 -7 0 -27
-28 -45 -62z"/>
<path d="M7050 2192 c-21 -21 -43 -56 -51 -80 -11 -38 -10 -45 4 -59 16 -16
19 -16 44 3 36 27 73 99 73 141 0 45 -22 43 -70 -5z m50 -5 c0 -7 -7 -22 -15
-33 -8 -10 -15 -27 -15 -36 0 -9 -7 -24 -16 -32 -52 -53 -44 33 9 92 23 25 37
28 37 9z"/>
<path d="M6757 2190 c-32 -28 -67 -84 -67 -108 0 -6 7 -18 16 -27 21 -20 50
-12 92 28 46 45 40 56 -8 13 -44 -39 -58 -44 -66 -21 -8 21 13 68 42 96 26 24
45 20 24 -6 -7 -9 -10 -19 -6 -23 11 -10 37 30 34 52 -5 31 -23 29 -61 -4z"/>
<path d="M7236 2185 c-46 -35 -60 -37 -29 -3 19 21 10 36 -11 18 -18 -14 -76
-127 -76 -147 0 -24 15 -14 42 30 15 24 37 52 48 62 18 16 20 16 20 2 0 -23
39 -21 70 3 27 21 12 28 -20 8 -29 -19 -36 -1 -10 27 37 39 17 39 -34 0z"/>
<path d="M6677 2193 c-18 -21 -67 -122 -67 -140 0 -27 19 -11 31 25 6 20 23
56 37 80 26 46 26 64 -1 35z"/>
<path d="M7860 2200 c0 -5 14 -10 30 -10 17 0 30 -2 30 -4 0 -2 -15 -19 -33
-37 -18 -19 -42 -47 -54 -62 -12 -16 -27 -26 -33 -22 -14 9 -12 56 5 85 17 30
18 40 5 40 -5 0 -19 -19 -31 -42 -24 -49 -48 -78 -62 -78 -15 0 2 52 30 88 29
38 24 55 -8 26 -29 -27 -49 -68 -49 -103 0 -40 16 -48 44 -22 26 24 36 26 36
7 0 -28 25 -37 63 -21 20 8 50 15 67 15 43 0 37 18 -7 22 l-38 3 48 49 c60 62
61 76 2 76 -25 0 -45 -4 -45 -10z"/>
<path d="M1259 1870 c-48 -25 -141 -127 -169 -184 -33 -70 -37 -117 -10 -141
22 -20 23 -19 92 10 12 5 8 -10 -17 -57 -32 -59 -45 -108 -27 -108 5 0 67 120
120 233 8 17 -18 5 -61 -29 -135 -105 -121 56 18 197 65 66 100 88 117 71 14
-14 -32 -95 -67 -118 -27 -18 -33 -34 -12 -34 15 0 69 55 86 87 14 28 14 66
-1 81 -16 16 -26 15 -69 -8z"/>
<path d="M94 1843 c-37 -88 -66 -211 -67 -283 -3 -108 14 -104 88 22 33 56 88
141 123 190 34 48 62 89 62 93 0 37 -108 -102 -190 -245 -29 -49 -56 -90 -60
-90 -14 0 12 134 45 230 19 55 35 104 35 110 0 23 -21 7 -36 -27z"/>
<path d="M3419 1840 c-47 -25 -134 -120 -164 -179 -36 -71 -40 -112 -17 -141
21 -26 20 -26 94 5 13 5 9 -9 -17 -60 -35 -67 -44 -105 -24 -105 5 0 15 15 21
33 6 17 31 70 55 116 24 46 41 86 38 89 -2 3 -26 -12 -52 -32 -55 -43 -96 -46
-101 -8 -11 78 190 314 231 273 15 -15 -16 -73 -60 -111 -36 -32 -40 -40 -19
-40 7 0 32 20 55 45 43 47 55 97 29 123 -16 16 -26 15 -69 -8z"/>
<path d="M5492 1844 c-46 -23 -144 -132 -175 -195 -32 -62 -34 -109 -9 -132
23 -21 35 -21 72 -2 17 9 30 13 30 11 0 -3 -13 -31 -29 -63 -34 -67 -41 -94
-25 -100 6 -2 19 18 29 43 10 26 35 78 56 115 22 38 39 71 39 74 0 14 -26 2
-63 -30 -78 -67 -123 -26 -76 67 46 92 155 208 196 208 35 0 -5 -91 -56 -127
-24 -16 -28 -33 -8 -33 15 0 69 55 86 87 14 28 14 66 -1 81 -16 16 -26 15 -66
-4z"/>
<path d="M2247 1788 c-43 -110 -75 -266 -63 -313 11 -43 32 -28 81 58 26 45
81 131 122 191 68 100 85 137 49 107 -20 -17 -129 -177 -183 -269 l-45 -77 6
68 c4 57 45 195 81 280 5 12 3 17 -8 17 -9 0 -25 -25 -40 -62z"/>
<path d="M4319 1803 c-34 -79 -62 -204 -63 -278 -1 -103 16 -97 92 33 34 59
90 145 123 191 58 82 70 113 28 75 -25 -23 -143 -198 -184 -272 -15 -29 -32
-52 -37 -52 -18 0 19 168 58 264 26 65 30 86 14 86 -6 0 -20 -21 -31 -47z"/>
<path d="M7652 1814 c-44 -22 -144 -131 -171 -187 -33 -68 -37 -108 -13 -137
21 -26 20 -26 94 5 12 5 8 -10 -17 -57 -35 -63 -44 -108 -24 -108 6 0 13 10
17 23 3 12 27 65 54 117 26 52 48 96 48 97 0 12 -29 -3 -63 -32 -51 -44 -90
-45 -95 -3 -5 41 52 139 120 207 61 62 93 80 110 63 14 -14 -34 -96 -67 -118
-27 -18 -33 -34 -12 -34 15 0 69 55 86 87 14 28 14 66 -1 81 -16 16 -26 15
-66 -4z"/>
<path d="M6489 1793 c-70 -177 -99 -363 -59 -371 10 -1 36 34 75 100 33 56 88
141 123 190 34 48 62 89 62 93 0 37 -108 -102 -190 -245 -29 -49 -56 -90 -60
-90 -14 0 11 125 45 227 19 58 35 109 35 114 0 20 -21 7 -31 -18z"/>
<path d="M1896 1778 c-14 -18 -23 -35 -20 -38 7 -6 54 47 54 61 0 15 -7 10
-34 -23z"/>
<path d="M556 1763 c-15 -23 -37 -43 -49 -45 -24 -4 -36 -28 -13 -28 14 0 12
-8 -9 -50 -27 -54 -32 -92 -12 -108 17 -14 53 6 78 44 30 46 22 51 -15 8 -44
-50 -64 -39 -41 25 22 62 51 98 90 111 37 12 40 32 4 23 -19 -5 -20 -4 -9 16
22 42 3 45 -24 4z"/>
<path d="M311 1771 c-6 -10 -7 -21 -4 -25 7 -7 43 23 43 36 0 16 -29 8 -39
-11z"/>
<path d="M4062 1755 c-31 -39 -28 -55 4 -23 15 14 24 32 22 39 -3 8 -12 2 -26
-16z"/>
<path d="M6123 1748 c-12 -18 -20 -34 -17 -37 7 -7 54 46 54 60 0 18 -15 8
-37 -23z"/>
<path d="M2717 1731 c-15 -22 -36 -41 -48 -43 -26 -3 -39 -28 -15 -28 12 0 10
-10 -10 -55 -30 -65 -29 -99 3 -103 25 -4 83 51 83 78 0 8 -13 -1 -31 -23 -17
-20 -35 -37 -40 -37 -17 0 -9 51 17 101 20 40 34 54 65 67 44 17 53 36 12 26
l-27 -7 17 26 c9 14 13 28 8 31 -5 3 -20 -12 -34 -33z"/>
<path d="M4786 1733 c-15 -23 -37 -43 -49 -45 -23 -3 -36 -28 -14 -28 11 0 9
-10 -10 -47 -48 -95 -8 -150 56 -78 17 20 31 41 31 48 0 7 -15 -6 -33 -27 -20
-24 -38 -36 -45 -32 -18 11 -15 27 18 93 26 52 35 61 70 72 40 12 49 34 10 24
-22 -6 -26 7 -9 24 6 6 9 17 7 24 -3 8 -16 -3 -32 -28z"/>
<path d="M2471 1741 c-6 -10 -7 -21 -4 -25 7 -7 43 23 43 36 0 16 -29 8 -39
-11z"/>
<path d="M4540 1745 c-13 -15 -5 -39 11 -30 5 4 14 15 19 26 8 15 7 19 -3 19
-8 0 -20 -7 -27 -15z"/>
<path d="M6944 1701 c-14 -22 -35 -41 -47 -43 -24 -4 -36 -28 -13 -28 14 0 12
-8 -9 -50 -26 -52 -32 -94 -14 -105 19 -13 54 4 77 38 33 49 27 56 -11 12 -21
-24 -38 -36 -46 -31 -14 9 -8 33 26 102 21 43 31 53 64 63 44 13 55 35 12 25
l-27 -7 17 26 c10 15 13 28 7 32 -5 3 -21 -12 -36 -34z"/>
<path d="M6701 1711 c-6 -10 -7 -21 -4 -25 7 -7 43 23 43 36 0 16 -29 8 -39
-11z"/>
<path d="M638 1673 c-75 -81 -77 -187 -2 -138 28 18 74 106 74 143 0 32 -40
29 -72 -5z m52 -6 c0 -7 -7 -22 -15 -33 -8 -10 -15 -26 -15 -35 0 -24 -40 -63
-52 -51 -15 15 6 70 39 104 29 31 43 35 43 15z"/>
<path d="M1816 1675 c-49 -45 -74 -139 -40 -152 8 -3 25 4 38 16 l24 22 6 -25
c3 -14 13 -26 21 -26 18 0 19 5 3 30 -10 16 -10 29 5 69 9 27 17 58 17 70 0
30 -40 28 -74 -4z m54 -7 c0 -7 -14 -37 -30 -65 -44 -77 -83 -68 -44 10 9 18
23 40 32 50 18 20 42 23 42 5z"/>
<path d="M329 1650 c-59 -62 -64 -120 -11 -128 21 -3 102 61 102 81 0 6 -17
-6 -38 -26 -59 -57 -97 -47 -66 18 16 34 62 80 71 71 3 -2 0 -14 -7 -25 -7
-13 -7 -21 -1 -21 15 0 33 39 27 56 -9 25 -38 15 -77 -26z"/>
<path d="M778 1673 c-32 -37 -81 -150 -68 -158 5 -3 16 7 24 23 8 16 27 44 42
61 24 29 27 30 39 14 12 -17 15 -17 49 0 20 9 36 21 36 27 0 6 -9 5 -25 -2
-35 -16 -43 -2 -15 27 36 39 4 30 -49 -12 -43 -35 -45 -36 -28 -10 22 34 18
56 -5 30z"/>
<path d="M1450 1673 c0 -8 13 -13 31 -13 l30 0 -33 -32 c-19 -18 -45 -48 -59
-66 -23 -30 -27 -32 -39 -17 -11 14 -12 22 -1 48 7 18 16 43 19 57 5 22 3 24
-11 11 -10 -7 -17 -19 -17 -26 0 -19 -60 -96 -70 -90 -11 7 3 47 31 87 25 34
18 49 -11 23 -24 -22 -54 -99 -47 -120 9 -21 33 -19 55 5 19 20 19 20 30 -5
14 -29 16 -30 72 -10 24 8 51 13 61 10 22 -7 34 11 13 19 -9 3 -27 3 -42 -1
l-26 -6 22 31 c12 17 40 45 62 62 22 17 40 36 40 40 0 5 -25 8 -55 7 -36 -1
-55 -6 -55 -14z"/>
<path d="M1601 1661 c-45 -63 -75 -151 -51 -151 6 0 10 6 10 13 0 17 60 101
66 94 3 -3 -2 -19 -10 -36 -17 -32 -21 -61 -8 -61 4 0 16 16 26 35 10 19 28
42 39 52 20 17 20 17 12 -2 -15 -40 -17 -65 -5 -80 7 -8 16 -12 22 -9 5 3 4
11 -3 20 -16 19 -4 58 31 98 17 18 30 36 30 40 0 16 -33 3 -65 -25 -19 -17
-35 -26 -35 -21 0 6 5 14 10 17 13 8 13 25 1 25 -5 0 -23 -12 -40 -26 -35 -29
-39 -25 -15 12 24 36 10 41 -15 5z"/>
<path d="M250 1651 c-40 -57 -63 -131 -40 -131 6 0 10 6 10 14 0 8 15 44 34
80 36 68 33 89 -4 37z"/>
<path d="M1925 1609 c-25 -48 -34 -74 -27 -81 7 -7 15 -1 25 18 8 16 26 40 40
52 l25 24 -14 -41 c-10 -29 -11 -48 -4 -67 14 -35 25 -23 22 24 -2 28 5 49 29
85 17 26 29 51 25 54 -3 3 -24 -6 -46 -21 -36 -23 -40 -24 -31 -7 13 24 14 31
2 31 -5 0 -25 -32 -46 -71z"/>
<path d="M2795 1637 c-35 -35 -62 -104 -52 -131 23 -58 127 56 127 139 0 36
-34 33 -75 -8z m55 2 c0 -6 -6 -23 -14 -37 -8 -15 -19 -39 -25 -54 -7 -18 -18
-28 -31 -28 -24 0 -24 1 -5 48 24 55 75 104 75 71z"/>
<path d="M3977 1645 c-34 -35 -59 -90 -55 -123 4 -34 31 -40 54 -13 18 20 18
20 29 -2 6 -12 19 -24 30 -26 20 -3 20 -3 0 18 -19 22 -19 24 -2 70 25 71 23
101 -7 101 -13 0 -35 -11 -49 -25z m55 0 c7 -7 -49 -112 -64 -121 -21 -13 -29
13 -15 49 22 52 62 89 79 72z"/>
<path d="M4860 1634 c-69 -80 -67 -177 4 -131 27 18 76 110 76 144 0 37 -42
30 -80 -13z m60 3 c0 -7 -7 -22 -15 -33 -8 -10 -15 -26 -15 -35 0 -24 -40 -63
-52 -51 -15 15 6 70 39 104 29 31 43 35 43 15z"/>
<path d="M6058 1659 c-10 -5 -29 -29 -43 -53 -45 -77 -24 -147 29 -97 l24 22
6 -25 c3 -14 13 -26 21 -26 18 0 19 5 3 30 -10 16 -10 29 5 69 24 68 22 91 -5
91 -13 0 -31 -5 -40 -11z m42 -21 c0 -25 -61 -118 -76 -118 -23 0 -11 54 22
97 25 33 54 44 54 21z"/>
<path d="M2427 1643 c-21 -24 -67 -117 -67 -137 0 -9 5 -16 10 -16 6 0 10 6
10 13 0 6 16 43 35 81 37 70 41 90 12 59z"/>
<path d="M2489 1621 c-91 -96 -33 -183 60 -90 17 17 31 36 31 42 0 6 -17 -6
-38 -26 -44 -43 -72 -48 -72 -14 0 29 33 83 59 97 24 12 26 8 11 -21 -7 -12
-7 -19 -1 -19 15 0 33 39 27 56 -9 25 -38 15 -77 -25z"/>
<path d="M2920 1614 c-32 -50 -54 -108 -48 -125 2 -6 21 16 43 47 41 59 65 78
65 50 0 -20 13 -20 50 -1 37 19 41 39 5 23 -35 -16 -43 -2 -15 27 34 37 9 30
-45 -11 -44 -33 -50 -31 -18 8 10 11 11 18 4 23 -6 3 -24 -15 -41 -41z"/>
<path d="M3613 1645 c2 -5 15 -12 29 -15 26 -5 25 -6 -33 -67 -54 -58 -59 -61
-69 -43 -8 16 -6 30 9 65 11 25 16 47 11 50 -10 6 -25 -13 -34 -42 -8 -27 -44
-73 -57 -73 -18 0 -8 38 21 78 21 29 26 42 16 42 -30 0 -81 -97 -71 -131 8
-25 30 -24 55 1 l20 20 10 -25 c11 -29 14 -30 71 -10 24 9 52 14 61 11 10 -2
20 -1 23 4 8 12 -24 21 -52 14 l-26 -7 23 31 c13 17 40 45 62 62 21 17 38 35
38 40 0 5 -25 8 -55 7 -31 -1 -54 -6 -52 -12z"/>
<path d="M3755 1620 c-35 -55 -61 -127 -51 -137 5 -4 11 -3 13 3 8 23 64 106
68 102 3 -2 -3 -23 -12 -46 -9 -23 -13 -46 -8 -50 4 -4 10 -2 12 5 7 21 64 95
69 90 3 -2 -1 -16 -7 -31 -9 -20 -9 -32 -1 -52 7 -14 17 -22 22 -19 7 4 7 12
0 25 -15 28 -13 34 25 84 19 26 35 48 35 51 0 15 -34 1 -65 -26 -36 -32 -48
-30 -18 3 27 30 -9 23 -48 -9 l-32 -27 17 33 c26 49 11 49 -19 1z"/>
<path d="M4485 1626 c-30 -39 -70 -136 -56 -136 9 0 93 161 87 168 -2 2 -16
-12 -31 -32z"/>
<path d="M4563 1628 c-69 -74 -72 -138 -7 -138 16 0 94 68 94 82 0 6 -18 -6
-40 -26 -60 -54 -93 -46 -67 16 16 37 63 85 74 75 4 -4 1 -13 -5 -19 -14 -14
-16 -28 -4 -28 12 0 33 50 27 61 -12 18 -42 8 -72 -23z"/>
<path d="M4998 1629 c-33 -43 -71 -136 -58 -144 5 -3 16 7 24 23 8 16 27 44
42 61 24 29 27 30 39 14 12 -17 15 -17 49 0 20 9 36 21 36 27 0 6 -9 5 -25 -2
-35 -16 -43 -2 -15 27 37 39 1 31 -48 -11 -42 -35 -57 -37 -26 -3 9 10 14 23
12 30 -3 8 -15 -2 -30 -22z"/>
<path d="M5680 1643 c0 -8 13 -13 31 -13 l31 0 -29 -24 c-16 -14 -42 -43 -58
-66 -26 -37 -30 -39 -44 -25 -13 13 -14 20 -2 48 36 90 19 101 -25 16 -23 -46
-47 -69 -60 -56 -7 6 22 65 44 90 19 21 8 35 -13 17 -22 -18 -55 -84 -55 -110
0 -31 28 -36 56 -10 13 13 24 19 24 14 0 -6 6 -18 13 -28 13 -18 16 -18 66 -1
28 9 59 14 67 11 10 -4 14 -1 11 6 -2 8 -17 12 -36 10 -29 -2 -31 0 -21 17 5
11 33 39 60 63 28 24 50 46 50 50 0 4 -25 6 -55 5 -36 -1 -55 -6 -55 -14z"/>
<path d="M5837 1643 c-21 -24 -67 -123 -67 -145 0 -10 5 -18 10 -18 6 0 10 6
10 13 0 17 60 101 66 94 3 -3 -2 -19 -11 -37 -25 -48 -15 -73 12 -29 12 19 31
43 41 53 19 16 19 16 9 -24 -10 -34 -9 -43 7 -58 17 -16 18 -16 11 15 -7 33
11 79 39 102 17 15 22 41 7 41 -5 0 -23 -11 -39 -25 -30 -25 -56 -35 -34 -13
7 7 12 16 12 20 0 15 -27 8 -45 -12 -26 -29 -40 -25 -20 6 20 31 15 42 -8 17z"/>
<path d="M4086 1579 c-35 -69 -39 -119 -7 -68 27 40 74 87 65 64 -4 -11 -9
-39 -12 -62 -3 -32 0 -43 10 -43 10 0 13 11 10 38 -3 29 4 48 29 85 35 54 32
70 -9 41 -15 -11 -34 -24 -42 -29 -12 -6 -13 -5 -2 6 14 15 16 39 3 39 -5 0
-26 -32 -45 -71z"/>
<path d="M6155 1580 c-38 -76 -40 -80 -25 -80 5 0 23 20 40 45 38 56 54 58 33
5 -13 -33 -14 -45 -4 -66 15 -34 26 -23 23 24 -2 27 5 50 28 86 17 26 29 51
26 54 -3 3 -24 -7 -46 -22 -36 -23 -40 -24 -31 -7 14 24 14 31 1 31 -5 0 -26
-31 -45 -70z"/>
<path d="M7028 1613 c-75 -80 -77 -188 -3 -139 29 19 75 105 75 141 0 35 -38
34 -72 -2z m52 -4 c0 -6 -6 -23 -14 -37 -8 -15 -19 -39 -25 -54 -10 -27 -51
-41 -51 -19 0 22 23 68 48 94 27 28 42 34 42 16z"/>
<path d="M6646 1598 c-43 -58 -70 -138 -46 -138 6 0 10 6 10 14 0 8 16 45 35
82 39 75 40 92 1 42z"/>
<path d="M6719 1591 c-58 -61 -62 -131 -8 -131 20 0 99 66 99 82 0 6 -18 -6
-40 -26 -61 -55 -95 -45 -65 18 18 37 62 83 71 74 3 -4 1 -16 -6 -27 -7 -13
-7 -21 -1 -21 15 0 33 39 27 56 -9 25 -38 15 -77 -25z"/>
<path d="M7168 1613 c-25 -28 -70 -130 -66 -151 3 -13 8 -10 21 14 21 41 66
94 78 94 6 0 7 -5 4 -10 -11 -18 23 -22 54 -5 37 19 42 40 6 23 -35 -16 -43
-2 -15 27 38 40 1 31 -51 -12 -40 -35 -42 -36 -26 -10 22 34 18 56 -5 30z"/>
<path d="M7843 1615 c2 -5 16 -11 30 -13 l27 -3 -33 -32 c-18 -18 -45 -48 -59
-66 l-27 -35 -11 26 c-10 21 -8 32 9 65 11 22 17 43 14 47 -8 8 -33 -13 -33
-28 0 -16 -49 -86 -60 -86 -18 0 -10 35 16 73 14 21 23 41 20 44 -10 11 -39
-22 -58 -65 -31 -69 -3 -108 42 -60 11 12 20 17 20 12 0 -6 6 -18 13 -28 13
-18 16 -18 66 -1 28 9 58 14 66 11 8 -3 17 -1 20 3 8 13 -23 22 -53 14 l-26
-6 22 31 c12 17 40 45 62 62 22 17 40 36 40 41 0 5 -25 8 -55 6 -31 -1 -54 -6
-52 -12z"/>
<path d="M7936 1492 c-4 -18 -5 -36 -2 -39 11 -12 17 5 14 39 l-3 33 -9 -33z"/>
<path d="M1239 1311 c-139 -90 -236 -299 -150 -326 11 -3 34 1 50 9 17 9 32
16 35 16 4 0 -10 -31 -29 -69 -19 -37 -35 -76 -35 -85 0 -35 24 -8 54 60 17
38 41 87 54 107 37 63 27 72 -29 27 -93 -73 -132 -44 -81 63 48 104 176 227
205 198 14 -14 -3 -49 -49 -101 -40 -44 -40 -63 0 -37 52 35 88 123 61 151
-23 22 -34 20 -86 -13z"/>
<path d="M72 1248 c-36 -100 -67 -257 -58 -292 3 -14 13 -26 20 -26 8 0 46 53
84 118 39 64 93 148 121 187 28 38 51 73 51 77 0 37 -82 -67 -185 -237 l-67
-110 6 64 c5 51 46 194 81 284 5 12 2 17 -8 17 -10 0 -25 -29 -45 -82z"/>
<path d="M3392 1293 c-43 -21 -137 -123 -166 -181 -31 -63 -38 -96 -27 -125
13 -33 43 -42 80 -23 17 9 32 16 34 16 2 0 -11 -30 -30 -66 -33 -67 -42 -104
-22 -104 5 0 15 15 21 33 6 17 31 69 55 115 23 46 43 88 43 93 0 5 -24 -9 -54
-31 -150 -113 -134 43 20 198 71 72 99 86 110 57 8 -19 -37 -89 -71 -111 -27
-18 -33 -34 -11 -34 21 0 96 87 97 112 4 68 -18 82 -79 51z"/>
<path d="M5480 1290 c-72 -38 -173 -168 -190 -247 -16 -70 22 -108 79 -79 17
9 32 16 35 16 2 0 -11 -30 -30 -66 -34 -65 -44 -109 -23 -102 6 2 23 33 38 68
15 36 39 84 54 107 44 69 35 81 -24 34 -142 -113 -140 31 1 183 68 72 105 95
122 78 15 -15 0 -49 -48 -102 -46 -51 -36 -66 12 -19 56 54 75 106 48 133 -20
20 -31 20 -74 -4z"/>
<path d="M2221 1248 c-42 -101 -78 -277 -67 -323 11 -43 32 -28 81 58 26 45
81 131 122 191 68 100 85 137 49 107 -20 -17 -129 -177 -183 -269 l-45 -77 6
68 c4 57 45 195 81 280 5 12 3 17 -8 17 -8 0 -24 -23 -36 -52z"/>
<path d="M4306 1235 c-33 -82 -71 -273 -62 -309 3 -14 13 -26 20 -26 8 0 41
46 74 103 33 56 85 138 117 182 62 87 72 105 57 105 -15 0 -106 -126 -179
-247 -62 -104 -63 -105 -63 -67 0 46 40 198 69 267 25 58 25 57 7 57 -8 0 -25
-29 -40 -65z"/>
<path d="M7625 1264 c-41 -21 -120 -100 -154 -154 -77 -121 -58 -214 35 -175
20 8 38 15 39 15 2 0 -12 -28 -31 -62 -34 -63 -43 -108 -23 -108 6 0 13 10 17
23 3 12 28 66 55 120 27 54 48 100 45 103 -3 2 -27 -14 -54 -36 -59 -49 -97
-52 -102 -8 -5 41 53 141 119 208 59 60 94 79 111 62 14 -14 -32 -93 -67 -116
-27 -18 -33 -36 -12 -36 15 0 69 55 86 87 14 28 14 66 -1 81 -16 16 -27 15
-63 -4z"/>
<path d="M6455 1234 c-64 -154 -95 -364 -52 -364 6 0 39 46 72 102 33 56 88
142 123 190 34 49 62 91 62 94 0 36 -110 -106 -192 -248 -53 -92 -53 -93 -56
-56 -4 42 17 128 58 240 22 60 25 78 14 78 -7 0 -20 -16 -29 -36z"/>
<path d="M1890 1229 c-24 -33 -19 -54 5 -23 27 33 36 54 26 54 -5 0 -19 -14
-31 -31z"/>
<path d="M546 1210 c-15 -24 -34 -40 -46 -40 -26 0 -34 -17 -13 -28 13 -8 15
-13 5 -24 -19 -24 -43 -100 -36 -120 10 -33 51 -22 84 24 17 22 28 44 25 46
-3 3 -12 -4 -20 -16 -23 -31 -45 -52 -57 -52 -17 0 -2 67 27 115 20 34 35 47
65 56 43 13 45 33 3 23 -26 -7 -26 -7 -10 17 19 26 21 39 8 39 -4 0 -20 -18
-35 -40z"/>
<path d="M305 1219 c-4 -11 -5 -23 -2 -25 6 -6 37 25 37 37 0 18 -29 9 -35
-12z"/>
<path d="M4032 1205 c-31 -39 -28 -55 4 -23 15 14 24 32 22 39 -3 8 -12 2 -26
-16z"/>
<path d="M6121 1201 c-12 -16 -21 -32 -21 -37 0 -10 40 27 51 48 16 30 -8 21
-30 -11z"/>
<path d="M2686 1180 c-15 -24 -34 -40 -46 -40 -24 0 -36 -18 -17 -26 13 -5 11
-14 -10 -60 -29 -64 -28 -98 4 -102 25 -4 83 51 83 78 0 8 -13 -1 -31 -23 -17
-20 -35 -37 -40 -37 -17 0 -9 51 17 101 20 40 34 54 65 67 44 17 53 36 12 26
l-27 -7 17 26 c19 30 21 37 8 37 -4 0 -20 -18 -35 -40z"/>
<path d="M4776 1180 c-15 -24 -34 -40 -46 -40 -24 0 -36 -18 -17 -26 13 -5 11
-14 -10 -60 -29 -63 -25 -104 8 -104 24 0 79 54 79 78 0 11 -11 3 -31 -21 -17
-20 -35 -37 -40 -37 -18 0 -8 56 19 105 22 40 35 53 70 65 44 17 48 34 4 23
-25 -6 -25 -6 -9 18 19 26 21 39 8 39 -4 0 -20 -18 -35 -40z"/>
<path d="M2447 1203 c-4 -3 -7 -15 -7 -26 0 -19 1 -20 20 -2 11 10 20 22 20
27 0 10 -24 11 -33 1z"/>
<path d="M4534 1195 c-11 -27 1 -39 19 -21 9 10 17 22 17 27 0 15 -30 10 -36
-6z"/>
<path d="M6914 1150 c-15 -22 -35 -40 -45 -40 -24 0 -34 -19 -15 -26 13 -5 12
-13 -10 -56 -47 -94 -9 -145 55 -73 17 20 31 41 31 47 0 6 -15 -6 -33 -27 -21
-24 -38 -36 -46 -31 -14 9 -8 33 27 104 21 44 32 54 64 64 43 13 53 32 11 22
l-27 -7 17 26 c20 30 21 37 7 37 -5 0 -22 -18 -36 -40z"/>
<path d="M6670 1160 c-8 -15 -8 -20 3 -20 14 0 37 19 37 32 0 16 -30 7 -40
-12z"/>
<path d="M637 1130 c-57 -45 -85 -160 -39 -160 38 0 102 94 102 150 0 36 -24
40 -63 10z m43 -14 c0 -8 -8 -29 -17 -48 -9 -18 -19 -40 -23 -48 -4 -8 -15
-16 -24 -18 -32 -7 -16 58 27 106 23 25 37 28 37 8z"/>
<path d="M1802 1116 c-40 -46 -60 -109 -42 -131 16 -20 26 -19 49 4 18 18 19
18 30 -5 10 -23 41 -34 41 -14 0 6 -4 10 -9 10 -20 0 -22 41 -4 82 26 61 24
82 -8 86 -19 2 -34 -6 -57 -32z m62 5 c7 -10 -55 -113 -71 -119 -19 -6 -16 49
3 78 29 43 57 60 68 41z"/>
<path d="M241 1095 c-33 -53 -56 -113 -47 -122 8 -8 5 -12 50 80 43 90 42 112
-3 42z"/>
<path d="M332 1115 c-39 -33 -66 -99 -52 -125 6 -11 18 -20 26 -20 24 0 71 28
88 52 28 40 17 43 -22 5 -43 -42 -72 -48 -72 -16 0 28 36 86 61 99 22 12 27
-8 7 -28 -7 -7 -8 -12 -2 -12 17 0 34 23 34 47 0 31 -30 30 -68 -2z"/>
<path d="M766 1115 c-26 -28 -69 -130 -63 -148 2 -6 20 15 41 46 45 68 54 74
69 52 15 -19 53 -9 77 21 14 16 13 17 -5 10 -51 -21 -58 -20 -46 3 7 11 16 21
21 21 6 0 10 5 10 10 0 18 -16 11 -66 -27 l-48 -37 23 32 c29 42 20 53 -13 17z"/>
<path d="M1445 1131 c-10 -9 8 -21 32 -21 25 0 24 -2 -24 -53 -27 -29 -52 -59
-54 -66 -8 -23 -29 -2 -29 27 1 15 7 38 15 52 17 29 19 50 6 50 -6 0 -24 -27
-42 -60 -17 -33 -38 -60 -45 -60 -22 0 -17 22 16 73 21 33 25 47 15 47 -40 0
-86 -133 -51 -146 11 -4 26 2 42 16 18 18 24 20 24 8 0 -33 26 -41 73 -23 24
9 51 15 60 13 9 -2 15 2 14 7 -1 6 -14 9 -29 9 -16 -1 -28 2 -28 6 0 5 25 33
55 62 30 29 55 56 55 60 0 8 -98 7 -105 -1z"/>
<path d="M1582 1090 c-37 -65 -57 -119 -47 -128 4 -4 10 -2 12 4 2 6 18 33 35
60 32 51 51 47 24 -5 -36 -68 -12 -68 32 0 36 55 46 59 33 13 -9 -31 -1 -67
14 -62 5 2 8 18 6 36 -2 24 6 42 28 71 17 21 31 42 31 45 0 15 -29 3 -65 -26
-39 -33 -40 -33 -22 -5 21 33 7 35 -34 6 -28 -20 -40 -14 -18 8 6 6 9 17 7 25
-3 7 -19 -11 -36 -42z"/>
<path d="M1948 1110 c-32 -50 -62 -120 -54 -127 5 -5 13 1 20 11 20 34 69 83
60 61 -11 -29 -11 -98 1 -102 6 -2 10 16 10 40 0 32 7 53 28 80 44 58 32 77
-21 32 -33 -27 -51 -33 -32 -10 6 8 10 20 8 27 -3 8 -10 3 -20 -12z"/>
<path d="M2804 1120 c-65 -25 -126 -180 -71 -180 40 0 107 95 107 153 0 31 -8
37 -36 27z m16 -33 c0 -7 -7 -22 -15 -33 -8 -10 -15 -26 -15 -35 0 -26 -26
-53 -44 -46 -15 6 -15 10 -1 44 24 58 75 105 75 70z"/>
<path d="M3970 1114 c-48 -30 -87 -106 -76 -150 8 -29 30 -31 53 -4 16 19 17
19 28 -3 6 -12 19 -24 30 -26 20 -3 20 -3 1 18 -19 21 -19 23 -2 74 18 54 19
98 1 103 -5 2 -21 -4 -35 -12z m32 -19 c7 -7 -49 -112 -64 -121 -22 -14 -29
14 -13 52 24 59 57 88 77 69z"/>
<path d="M4895 1120 c-29 -11 -62 -50 -80 -94 -18 -42 -13 -86 9 -86 39 0 106
96 106 153 0 31 -8 37 -35 27z m15 -39 c0 -10 -7 -24 -15 -31 -8 -7 -15 -20
-15 -29 0 -28 -25 -55 -44 -48 -15 6 -15 10 -1 44 16 39 52 83 67 83 4 0 8 -8
8 -19z"/>
<path d="M6048 1101 c-43 -37 -73 -101 -64 -135 8 -31 28 -33 54 -6 l19 21 6
-20 c6 -24 39 -40 45 -23 2 7 9 12 16 12 6 0 19 12 28 28 9 15 27 36 39 47 22
20 22 20 14 0 -12 -28 -12 -97 0 -102 6 -2 10 16 10 40 0 32 7 53 28 80 45 59
34 74 -23 32 -36 -26 -52 -33 -32 -13 7 7 12 19 12 28 -1 23 -39 -26 -67 -87
-14 -29 -29 -53 -34 -53 -19 0 -21 32 -5 75 19 48 18 96 -1 102 -6 2 -27 -9
-45 -26z m44 -6 c7 -7 -49 -112 -64 -121 -16 -10 -27 17 -17 44 22 57 62 95
81 77z"/>
<path d="M2397 1093 c-21 -24 -67 -117 -67 -137 0 -9 5 -16 10 -16 6 0 10 6
10 13 0 6 16 43 35 81 37 70 41 90 12 59z"/>
<path d="M2459 1071 c-58 -61 -62 -131 -8 -131 20 0 99 66 99 82 0 6 -18 -6
-40 -26 -22 -20 -47 -36 -55 -36 -32 0 -9 75 34 114 25 23 37 16 21 -13 -7
-13 -7 -21 -1 -21 12 0 31 33 31 54 0 29 -42 17 -81 -23z"/>
<path d="M2890 1063 c-32 -50 -54 -107 -48 -125 2 -6 19 12 37 40 44 69 58 80
75 57 12 -16 14 -16 44 -1 38 20 44 41 7 24 -35 -16 -43 -2 -15 27 36 38 4 30
-48 -12 -32 -26 -41 -30 -33 -15 6 11 16 24 21 27 13 8 13 25 0 25 -6 0 -24
-21 -40 -47z"/>
<path d="M3583 1096 c2 -6 15 -13 29 -16 26 -5 25 -6 -33 -67 -54 -58 -59 -61
-69 -43 -8 16 -6 31 10 67 11 25 18 48 16 51 -9 9 -27 -10 -42 -46 -16 -39
-42 -72 -56 -72 -17 0 -7 39 22 78 22 31 26 42 15 42 -17 0 -61 -63 -70 -101
-8 -34 15 -55 44 -39 12 6 21 15 21 20 0 6 5 10 10 10 6 0 10 -6 10 -14 0 -29
25 -37 71 -21 24 9 50 14 60 13 9 -2 15 2 15 7 -1 6 -13 9 -28 9 -16 -1 -28 2
-28 8 0 5 25 34 55 63 30 29 55 55 55 58 0 4 -25 6 -55 5 -35 -1 -54 -6 -52
-12z"/>
<path d="M3726 1073 c-23 -35 -56 -114 -56 -134 0 -22 19 -5 35 31 20 43 65
93 51 55 -24 -60 -28 -77 -21 -83 4 -4 10 -2 12 5 7 21 64 95 69 90 3 -2 -1
-16 -7 -31 -9 -20 -9 -32 -1 -52 7 -14 17 -22 22 -19 7 4 7 13 0 26 -12 22 8
75 41 105 43 39 7 48 -39 9 -35 -29 -53 -33 -29 -7 27 30 7 34 -29 7 -41 -32
-49 -32 -28 0 9 14 14 28 11 31 -3 3 -17 -11 -31 -33z"/>
<path d="M4471 1065 c-33 -53 -56 -113 -47 -122 8 -8 5 -12 50 80 43 90 42
112 -3 42z"/>
<path d="M4566 1089 c-27 -22 -66 -87 -66 -112 0 -23 28 -40 54 -33 27 7 86
61 86 79 0 6 -17 -6 -38 -26 -21 -20 -46 -37 -55 -37 -33 0 -13 74 32 114 25
23 40 13 23 -14 -7 -11 -8 -20 -2 -20 12 0 30 33 30 54 0 22 -33 20 -64 -5z"/>
<path d="M4991 1081 c-25 -34 -60 -110 -61 -128 0 -25 19 -12 43 30 36 62 54
75 71 52 12 -16 14 -16 44 -1 38 20 44 41 7 24 -35 -16 -43 -2 -15 27 36 38 4
30 -48 -12 -32 -26 -41 -30 -33 -15 6 11 16 24 21 27 6 3 10 10 10 16 0 18
-19 9 -39 -20z"/>
<path d="M5673 1096 c2 -6 16 -12 30 -14 27 -3 27 -4 -30 -67 -32 -35 -61 -61
-65 -58 -13 7 -8 66 7 93 17 30 18 40 5 40 -5 0 -19 -19 -31 -42 -24 -49 -48
-78 -62 -78 -15 0 2 52 29 88 19 24 21 32 10 32 -18 0 -54 -49 -66 -89 -12
-41 8 -68 38 -52 12 6 22 16 22 21 0 6 5 10 10 10 6 0 10 -6 10 -14 0 -29 25
-37 71 -21 24 9 50 14 60 13 9 -2 15 2 15 7 -1 6 -13 9 -28 9 -16 -1 -28 2
-28 8 0 5 25 33 55 62 30 29 55 55 55 59 0 3 -25 6 -55 5 -35 -1 -54 -6 -52
-12z"/>
<path d="M5832 1097 c-16 -18 -72 -140 -72 -154 0 -7 5 -13 10 -13 6 0 10 4
10 8 0 13 60 105 65 100 3 -2 -3 -23 -12 -46 -9 -23 -13 -46 -8 -50 4 -4 10
-2 12 5 7 20 64 95 69 91 2 -3 -1 -19 -7 -36 -11 -33 3 -78 22 -67 5 4 5 14
-1 26 -12 22 8 75 41 105 49 44 4 46 -48 2 -35 -31 -37 -31 -21 -7 24 37 11
43 -29 13 -35 -27 -40 -25 -22 8 13 23 7 34 -9 15z"/>
<path d="M4055 1028 c-25 -51 -32 -74 -23 -77 6 -2 14 2 16 9 3 7 20 29 39 49
23 23 32 29 27 16 -12 -31 -10 -98 3 -102 8 -3 10 8 6 34 -4 31 1 47 27 86 36
54 33 70 -8 41 -50 -37 -55 -39 -43 -16 13 25 14 32 2 32 -5 0 -26 -33 -46
-72z"/>
<path d="M7011 1074 c-82 -69 -97 -203 -16 -150 51 33 94 161 59 173 -6 2 -26
-8 -43 -23z m39 -15 c0 -6 -6 -23 -14 -37 -7 -15 -19 -39 -26 -54 -12 -26 -50
-40 -50 -19 0 22 23 68 48 94 27 28 42 34 42 16z"/>
<path d="M6616 1048 c-43 -58 -70 -138 -46 -138 6 0 10 6 10 14 0 8 16 45 35
82 39 75 40 92 1 42z"/>
<path d="M6686 1039 c-55 -65 -58 -129 -5 -129 20 0 99 66 99 82 0 6 -18 -6
-40 -26 -42 -38 -64 -45 -73 -23 -7 18 19 70 49 98 26 24 45 20 24 -6 -7 -9
-10 -19 -6 -23 10 -9 36 27 36 50 0 34 -45 21 -84 -23z"/>
<path d="M7137 1062 c-18 -20 -67 -121 -67 -139 0 -23 15 -13 34 21 10 19 29
45 42 57 23 22 25 22 37 5 13 -17 15 -17 45 -2 38 20 44 41 7 24 -35 -16 -43
-2 -15 27 38 40 1 31 -50 -12 l-44 -38 23 38 c23 38 16 50 -12 19z"/>
<path d="M7813 1068 c2 -7 16 -13 30 -13 15 1 27 -1 27 -3 0 -2 -15 -18 -33
-35 -18 -18 -45 -48 -59 -66 l-27 -35 -11 26 c-10 21 -8 32 9 65 11 22 17 43
14 47 -8 8 -33 -13 -33 -28 0 -16 -49 -86 -60 -86 -18 0 -10 35 15 72 31 46
33 68 4 42 -30 -26 -62 -100 -54 -124 8 -26 23 -25 52 2 l24 22 5 -21 c8 -30
29 -35 71 -18 19 8 49 15 65 15 19 0 27 4 22 11 -4 7 -21 9 -41 6 l-34 -6 22
30 c11 16 38 44 60 61 21 17 39 35 39 40 0 4 -25 8 -56 8 -40 0 -54 -3 -51
-12z"/>
<path d="M7923 983 c-23 -53 -29 -83 -15 -83 14 1 43 79 40 107 -3 26 -5 24
-25 -24z"/>
<path d="M1251 759 c-69 -27 -201 -210 -201 -277 0 -58 48 -81 98 -46 27 19
28 5 2 -38 -21 -35 -26 -58 -11 -58 11 0 104 170 97 177 -2 3 -28 -14 -57 -37
-64 -51 -93 -51 -97 0 -2 26 7 52 35 99 42 71 144 171 174 171 34 0 23 -44
-27 -99 -47 -52 -53 -72 -15 -52 30 16 70 73 77 109 11 53 -19 73 -75 51z"/>
<path d="M79 714 c-56 -125 -88 -349 -50 -349 7 0 43 50 80 110 57 94 112 177
170 256 11 16 11 19 -1 19 -18 0 -120 -141 -186 -256 -26 -46 -51 -84 -55 -84
-16 0 5 105 44 224 44 134 42 126 28 126 -5 0 -19 -21 -30 -46z"/>
<path d="M2257 720 c-23 -36 -45 -102 -68 -200 -22 -101 -24 -163 -5 -179 17
-14 17 -14 99 124 36 61 88 141 116 179 53 73 59 97 15 55 -28 -26 -132 -180
-180 -266 -30 -56 -48 -68 -40 -30 3 12 7 42 11 67 3 25 22 91 41 148 36 106
40 146 11 102z"/>
<path d="M3388 711 c-78 -49 -178 -195 -178 -259 0 -57 50 -82 96 -47 35 26
36 16 5 -39 -35 -61 -36 -66 -17 -66 8 0 26 24 40 53 13 28 35 69 47 89 13 21
20 40 17 44 -4 3 -30 -13 -59 -36 -61 -48 -92 -50 -97 -7 -10 86 197 326 232
269 8 -13 -22 -63 -60 -103 -39 -40 -32 -61 9 -29 67 53 90 152 37 158 -15 2
-44 -10 -72 -27z"/>
<path d="M5453 711 c-118 -85 -209 -261 -161 -309 17 -17 59 -15 86 4 25 17
27 10 7 -26 -18 -31 -18 -40 -2 -40 12 0 91 139 83 147 -2 3 -29 -14 -59 -36
-58 -44 -81 -50 -95 -24 -22 38 31 138 118 226 41 40 76 67 89 67 39 0 23 -50
-37 -112 -40 -42 -38 -59 3 -32 30 20 75 92 75 120 0 50 -49 57 -107 15z"/>
<path d="M4302 673 c-35 -90 -62 -210 -62 -275 0 -50 2 -58 19 -58 13 0 30 20
54 64 40 72 129 210 177 274 23 30 27 42 17 42 -18 0 -93 -100 -171 -230 -65
-107 -76 -122 -76 -97 0 40 34 177 61 247 33 85 34 90 16 90 -7 0 -22 -26 -35
-57z"/>
<path d="M6487 690 c-34 -52 -87 -242 -87 -312 0 -35 2 -38 28 -38 22 0 32 9
55 49 25 45 140 220 183 279 14 18 14 22 2 22 -18 0 -106 -121 -179 -245 -63
-108 -58 -100 -64 -93 -11 11 18 143 52 242 35 101 39 140 10 96z"/>
<path d="M7599 667 c-98 -79 -174 -216 -153 -275 11 -33 54 -41 90 -17 18 12
24 12 24 2 0 -7 -5 -18 -12 -25 -9 -9 -8 -12 4 -12 17 0 85 106 75 116 -3 3
-29 -13 -58 -36 -64 -51 -93 -51 -97 0 -7 88 197 318 232 262 8 -13 -22 -63
-60 -103 -22 -22 -32 -39 -25 -43 17 -11 89 69 97 108 9 50 0 66 -35 66 -21 0
-47 -14 -82 -43z"/>
<path d="M1881 659 c-13 -17 -20 -33 -16 -37 6 -6 54 46 55 61 0 16 -18 5 -39
-24z"/>
<path d="M305 660 c-20 -22 -15 -36 10 -27 8 4 15 16 15 27 0 25 -2 25 -25 0z"/>
<path d="M538 640 c-18 -25 -36 -40 -49 -40 -12 0 -19 -5 -16 -12 2 -7 10 -12
16 -10 6 1 0 -21 -14 -49 -30 -58 -31 -112 -2 -117 18 -4 87 59 87 79 0 18
-17 9 -30 -17 -8 -14 -22 -30 -32 -35 -33 -18 -32 19 3 89 30 59 38 68 72 76
20 5 37 14 37 19 0 5 -11 6 -25 3 -24 -6 -35 7 -15 19 12 7 14 35 3 35 -5 -1
-20 -19 -35 -40z"/>
<path d="M4046 635 c-25 -38 -18 -53 9 -20 14 17 25 33 25 38 0 15 -18 6 -34
-18z"/>
<path d="M6111 631 c-30 -42 -26 -49 9 -16 30 29 38 45 21 45 -5 0 -19 -13
-30 -29z"/>
<path d="M2466 631 c-20 -22 -20 -31 -1 -31 17 0 39 36 26 44 -4 3 -16 -3 -25
-13z"/>
<path d="M2700 610 c-18 -23 -40 -40 -52 -40 -11 0 -18 -5 -15 -12 2 -7 9 -12
15 -11 6 2 -1 -22 -14 -52 -46 -100 -14 -150 52 -80 18 20 34 42 34 48 -1 7
-13 -3 -29 -20 -35 -42 -66 -45 -56 -5 3 15 19 50 33 77 22 41 33 52 65 59 20
5 37 14 37 19 0 5 -11 6 -25 3 -29 -7 -30 -4 -9 29 26 40 -2 28 -36 -15z"/>
<path d="M4536 635 c-20 -20 -21 -35 -2 -35 14 0 32 37 23 46 -2 3 -12 -2 -21
-11z"/>
<path d="M4766 610 c-16 -24 -34 -40 -46 -40 -11 0 -20 -4 -20 -10 0 -5 7 -10
15 -10 12 0 10 -10 -10 -50 -42 -84 -27 -144 28 -107 22 14 64 77 52 77 -3 0
-18 -13 -32 -30 -26 -31 -53 -40 -53 -16 0 20 29 87 52 118 11 17 32 30 53 34
19 3 35 11 35 16 0 6 -12 8 -26 5 -19 -3 -24 -1 -20 9 3 8 9 21 12 29 12 30
-14 14 -40 -25z"/>
<path d="M6696 604 c-20 -19 -20 -34 -1 -34 18 0 39 36 26 44 -5 4 -17 -1 -25
-10z"/>
<path d="M6928 580 c-17 -24 -36 -40 -48 -40 -11 0 -20 -4 -20 -10 0 -5 7 -10
14 -10 12 0 9 -12 -10 -55 -46 -100 -14 -150 52 -80 33 35 42 55 26 55 -4 0
-16 -13 -25 -30 -11 -18 -26 -30 -39 -30 -17 0 -19 4 -13 28 3 15 19 50 33 77
22 41 33 52 65 59 41 10 52 31 12 24 -25 -5 -34 5 -15 17 12 7 14 35 3 35 -5
-1 -20 -19 -35 -40z"/>
<path d="M636 569 c-54 -42 -86 -154 -48 -167 20 -6 77 59 97 110 28 74 5 100
-49 57z m44 -15 c0 -3 -6 -18 -13 -32 -8 -15 -20 -40 -28 -57 -8 -16 -23 -31
-33 -33 -16 -4 -18 0 -12 29 7 39 51 99 72 99 7 0 14 -3 14 -6z"/>
<path d="M1813 566 c-17 -14 -38 -41 -47 -60 -33 -70 -10 -130 34 -86 24 24
30 25 30 6 0 -17 28 -41 37 -32 4 3 1 12 -5 18 -17 17 -15 54 4 93 19 40 15
79 -7 83 -9 2 -30 -8 -46 -22z m47 -11 c0 -14 -50 -103 -64 -114 -13 -11 -17
-11 -22 3 -12 32 39 116 71 116 8 0 15 -2 15 -5z"/>
<path d="M343 561 c-59 -36 -92 -123 -58 -151 20 -17 67 3 101 43 37 43 20 46
-23 4 -38 -39 -60 -46 -69 -23 -10 27 49 116 77 116 7 0 5 -10 -5 -25 -17 -25
-7 -36 11 -12 35 45 14 76 -34 48z"/>
<path d="M823 557 c-15 -12 -37 -29 -48 -37 -19 -15 -19 -15 -2 13 21 33 13
52 -10 22 -18 -25 -58 -103 -67 -132 -12 -39 8 -26 49 32 38 53 55 66 55 45 0
-18 47 -11 71 11 23 20 18 21 -26 3 -24 -10 -18 22 7 38 14 9 18 17 11 21 -6
4 -24 -3 -40 -16z"/>
<path d="M1482 573 c-28 -3 -42 -8 -39 -16 2 -7 17 -11 32 -9 27 3 26 0 -30
-60 -32 -35 -63 -63 -69 -63 -18 0 -18 41 -2 74 9 16 16 35 16 41 0 24 -20 3
-47 -50 -30 -57 -72 -85 -58 -38 4 12 18 39 31 59 28 41 30 51 9 43 -9 -4 -27
-25 -40 -49 -43 -73 -25 -126 29 -84 24 19 25 19 31 0 8 -27 32 -33 65 -16 16
8 43 15 60 15 16 0 30 5 30 11 0 7 -14 10 -35 7 -19 -2 -35 -1 -35 2 0 3 27
32 60 65 32 32 57 62 54 67 -3 4 -8 7 -12 6 -4 -1 -26 -3 -50 -5z"/>
<path d="M238 533 c-28 -43 -61 -123 -54 -130 9 -10 25 8 31 36 3 16 19 50 36
75 31 51 33 56 20 56 -4 0 -19 -17 -33 -37z"/>
<path d="M1576 527 c-33 -56 -57 -125 -46 -132 4 -3 22 20 39 50 32 57 64 79
36 24 -9 -17 -15 -40 -13 -51 2 -17 9 -11 36 31 32 49 65 73 42 31 -14 -26 -9
-72 7 -77 8 -3 10 6 7 29 -5 26 1 42 25 75 17 24 31 45 31 48 0 12 -26 3 -58
-21 -32 -25 -33 -25 -22 -4 18 33 4 36 -35 6 -39 -30 -43 -28 -19 9 9 15 12
25 6 25 -6 0 -22 -19 -36 -43z"/>
<path d="M1942 548 c-15 -19 -62 -116 -62 -128 0 -21 17 -8 49 36 18 25 34 44
36 42 3 -2 0 -21 -6 -41 -11 -41 -4 -77 14 -77 8 0 11 13 9 39 -4 40 14 87 42
110 9 8 16 17 16 22 0 17 -29 9 -59 -17 -17 -14 -31 -21 -31 -15 0 5 5 13 10
16 12 8 13 25 1 25 -5 0 -13 -6 -19 -12z"/>
<path d="M2791 531 c-34 -32 -61 -87 -61 -125 0 -78 109 8 126 100 11 61 -16
71 -65 25z m49 -13 c0 -7 -7 -22 -15 -32 -8 -11 -15 -27 -15 -36 0 -26 -38
-56 -52 -42 -13 13 3 58 34 97 21 26 48 33 48 13z"/>
<path d="M3977 539 c-53 -41 -88 -149 -53 -162 8 -3 26 3 40 14 20 16 26 17
26 6 0 -18 28 -43 37 -33 4 3 1 12 -5 18 -17 17 -15 53 4 89 18 36 15 83 -7
87 -8 1 -28 -7 -42 -19z m43 -18 c0 -5 -12 -30 -26 -56 -25 -44 -48 -64 -61
-52 -9 10 16 69 39 94 21 23 48 31 48 14z"/>
<path d="M4849 520 c-49 -51 -67 -136 -31 -148 20 -6 77 59 97 110 32 85 -3
105 -66 38z m61 4 c0 -3 -6 -18 -13 -32 -8 -15 -20 -40 -28 -57 -18 -37 -49
-46 -49 -15 0 26 15 57 43 88 19 20 47 30 47 16z"/>
<path d="M6037 531 c-41 -37 -60 -77 -55 -122 4 -40 20 -47 47 -20 25 25 31
26 31 7 0 -16 28 -42 36 -33 3 3 0 14 -7 26 -11 16 -11 28 0 63 31 102 11 133
-52 79z m53 -8 c0 -5 -14 -32 -30 -60 -44 -77 -83 -68 -44 10 9 18 21 38 26
45 11 13 48 17 48 5z"/>
<path d="M2508 534 c-31 -16 -78 -90 -78 -122 0 -33 34 -46 69 -28 28 15 75
65 68 73 -2 2 -21 -13 -41 -32 -41 -38 -61 -44 -70 -19 -8 20 37 99 60 108 23
9 30 0 14 -19 -7 -9 -10 -18 -7 -21 9 -10 40 45 33 61 -7 18 -13 18 -48 -1z"/>
<path d="M2972 515 c-49 -43 -60 -44 -32 -5 23 32 13 41 -15 14 -30 -30 -83
-154 -65 -154 4 0 17 15 29 33 28 46 67 81 76 68 10 -17 40 -13 66 9 26 21 19
26 -13 9 -29 -16 -35 -2 -9 25 36 38 8 39 -37 1z"/>
<path d="M3643 543 c-49 -5 -59 -23 -12 -23 l31 0 -57 -62 c-32 -35 -61 -64
-66 -66 -17 -7 -19 38 -3 77 9 23 13 45 9 49 -4 4 -9 3 -11 -3 -15 -39 -67
-116 -77 -112 -17 6 -10 33 20 79 32 47 25 60 -11 21 -37 -39 -54 -99 -34
-119 13 -13 17 -13 38 4 23 19 24 19 45 -6 20 -24 22 -24 53 -8 17 9 45 16 62
16 16 0 30 5 30 10 0 6 -17 10 -37 10 l-38 0 62 61 c35 34 60 65 57 70 -3 5
-8 8 -12 7 -4 -1 -26 -3 -49 -5z"/>
<path d="M4567 530 c-57 -45 -84 -123 -53 -150 20 -16 79 12 107 51 28 39 15
36 -33 -7 -42 -37 -61 -40 -66 -8 -4 25 53 104 74 104 15 0 15 -2 0 -25 -17
-27 -7 -35 14 -11 13 17 10 58 -6 63 -6 2 -22 -6 -37 -17z"/>
<path d="M5034 513 c-47 -36 -48 -36 -31 -9 20 30 16 46 -6 28 -14 -12 -60
-101 -71 -139 -12 -39 9 -25 43 27 35 54 53 70 59 52 6 -19 48 -14 73 9 23 20
18 21 -26 3 -20 -8 -19 15 2 38 30 34 7 29 -43 -9z"/>
<path d="M5713 543 c-50 -5 -58 -23 -11 -23 l31 0 -59 -62 c-32 -35 -63 -63
-69 -63 -17 0 -17 42 -1 74 19 35 20 51 5 51 -5 0 -17 -17 -25 -37 -16 -39
-51 -83 -66 -83 -16 0 -8 27 23 74 16 27 28 51 25 54 -9 9 -37 -20 -57 -59
-36 -72 -16 -118 35 -78 24 19 25 19 31 0 8 -27 32 -33 65 -16 16 8 43 15 60
15 43 0 37 18 -7 22 l-38 3 63 61 c34 33 59 63 56 67 -4 4 -10 6 -13 5 -3 -1
-25 -3 -48 -5z"/>
<path d="M2408 518 c-34 -51 -59 -111 -56 -131 2 -16 14 0 43 58 21 44 41 83
43 88 9 18 -17 5 -30 -15z"/>
<path d="M3726 470 c-21 -39 -36 -80 -34 -93 3 -19 6 -17 25 18 11 22 30 49
42 59 l21 19 -15 -36 c-8 -20 -15 -44 -15 -54 1 -16 2 -16 15 2 8 11 24 35 37
52 27 38 42 43 27 9 -13 -27 -5 -76 12 -76 6 0 7 13 4 33 -5 27 0 40 29 79 20
26 32 49 28 52 -5 3 -28 -9 -52 -26 -38 -28 -41 -29 -31 -9 19 35 6 36 -36 5
l-38 -29 18 27 c19 31 21 38 8 38 -5 0 -25 -32 -45 -70z"/>
<path d="M4466 503 c-29 -44 -59 -124 -50 -132 4 -3 8 -1 11 5 2 5 21 45 42
87 41 81 39 103 -3 40z"/>
<path d="M5806 497 c-34 -58 -57 -125 -45 -132 5 -4 14 6 19 21 6 15 20 40 31
55 23 33 46 40 29 10 -41 -78 -27 -103 18 -31 17 28 36 50 42 50 8 0 7 -6 0
-20 -14 -26 -9 -72 7 -77 8 -3 10 6 7 29 -5 26 1 42 25 75 17 24 31 45 31 48
0 13 -32 2 -59 -21 -29 -24 -44 -21 -19 4 25 25 -3 23 -37 -2 -39 -30 -43 -28
-19 9 9 15 12 25 6 25 -6 0 -22 -19 -36 -43z"/>
<path d="M4086 488 c-60 -103 -59 -149 2 -63 38 54 57 59 36 8 -12 -27 -13
-42 -5 -60 17 -37 29 -27 24 20 -4 35 0 49 26 84 17 24 31 45 31 48 0 13 -32
2 -59 -21 -17 -14 -31 -21 -31 -15 0 5 5 13 10 16 13 8 13 25 0 25 -5 0 -20
-19 -34 -42z"/>
<path d="M6166 508 c-30 -48 -59 -118 -52 -125 5 -5 13 0 20 11 18 30 58 77
62 73 2 -2 -1 -18 -7 -36 -13 -37 -5 -81 16 -81 12 0 12 5 4 24 -9 19 -7 32
10 67 11 24 28 54 37 67 14 19 14 22 2 22 -9 0 -27 -9 -41 -20 -14 -11 -28
-20 -31 -20 -4 0 -2 9 4 20 15 28 -6 26 -24 -2z"/>
<path d="M7032 515 c-55 -39 -93 -155 -56 -169 23 -9 86 59 103 111 22 66 1
91 -47 58z m38 -21 c0 -3 -6 -18 -13 -32 -8 -15 -20 -40 -28 -57 -8 -16 -23
-31 -33 -33 -16 -4 -18 0 -12 29 7 39 51 99 72 99 7 0 14 -3 14 -6z"/>
<path d="M6735 501 c-37 -22 -63 -60 -72 -103 -13 -65 59 -69 112 -6 14 17 23
33 20 37 -4 3 -14 -3 -24 -15 -49 -60 -106 -64 -81 -5 14 35 54 81 70 81 8 0
7 -6 0 -21 -17 -30 -5 -35 14 -6 15 22 13 57 -3 57 -3 0 -20 -8 -36 -19z"/>
<path d="M7213 497 c-15 -12 -37 -29 -48 -37 -19 -15 -19 -15 -2 12 19 31 21
38 7 38 -5 0 -20 -19 -34 -43 -30 -51 -58 -127 -47 -127 4 0 25 25 46 55 38
55 49 63 60 45 10 -16 41 -11 66 11 23 20 18 21 -26 3 -24 -10 -18 22 7 38 14
9 18 17 11 21 -6 4 -24 -3 -40 -16z"/>
<path d="M7873 513 c-49 -5 -59 -23 -12 -23 l31 0 -58 -62 c-32 -35 -62 -63
-68 -63 -18 0 -18 41 -2 74 9 16 16 35 16 41 0 24 -20 3 -47 -50 -16 -30 -36
-55 -44 -55 -20 0 -13 33 18 78 32 45 24 60 -11 22 -37 -40 -54 -101 -35 -121
14 -13 18 -12 40 5 25 19 25 19 38 -1 10 -16 19 -19 44 -13 18 3 49 9 70 12
48 7 48 23 0 23 l-37 0 62 63 c34 35 59 66 56 70 -4 4 -10 6 -13 5 -3 -1 -25
-3 -48 -5z"/>
<path d="M6626 468 c-39 -66 -57 -116 -46 -123 9 -5 30 33 30 54 0 4 14 28 30
54 33 52 35 57 20 57 -5 0 -20 -19 -34 -42z"/>
<path d="M7930 390 c-13 -41 -7 -67 10 -40 9 14 14 80 7 80 -2 0 -10 -18 -17
-40z"/>
<path d="M5439 282 c-100 -64 -227 -282 -164 -282 9 0 15 9 15 23 0 82 172
284 225 263 21 -8 6 -42 -43 -97 -45 -51 -50 -70 -13 -49 32 17 81 89 81 120
0 56 -35 63 -101 22z"/>
<path d="M1212 283 c-43 -21 -137 -123 -166 -181 -32 -65 -40 -102 -22 -102 8
0 17 13 21 30 10 45 76 139 138 198 57 53 83 64 93 37 7 -18 -40 -91 -74 -113
-17 -11 -20 -18 -12 -26 15 -15 100 74 101 106 4 68 -17 82 -79 51z"/>
<path d="M4289 254 c-17 -38 -69 -222 -69 -246 0 -5 6 -8 14 -8 8 0 16 16 20
42 4 24 22 89 41 145 39 113 39 113 24 113 -5 0 -19 -21 -30 -46z"/>
<path d="M35 223 c-18 -44 -29 -93 -31 -138 l-4 -70 19 70 c10 39 31 99 45
134 30 76 30 71 12 71 -8 0 -26 -30 -41 -67z"/>
<path d="M4445 248 c-37 -43 -138 -199 -150 -231 -11 -27 13 -20 31 11 21 33
143 217 163 243 27 37 -8 18 -44 -23z"/>
<path d="M202 243 c-41 -52 -152 -223 -152 -234 0 -27 26 4 106 123 100 149
99 148 86 148 -6 0 -24 -17 -40 -37z"/>
<path d="M2196 258 c-26 -42 -84 -243 -73 -255 9 -9 27 7 27 25 0 21 31 120
58 189 22 54 14 81 -12 41z"/>
<path d="M3328 250 c-69 -46 -147 -148 -168 -219 -15 -55 13 -36 48 32 59 115
173 220 203 190 15 -15 -3 -48 -53 -99 -47 -49 -35 -68 15 -24 40 35 60 76 55
116 -4 42 -41 43 -100 4z"/>
<path d="M2337 218 c-35 -44 -74 -100 -121 -176 -18 -29 -22 -42 -13 -42 8 0
40 39 72 88 32 48 71 103 86 123 16 20 29 40 29 43 0 17 -22 1 -53 -36z"/>
<path d="M6427 233 c-36 -71 -77 -233 -60 -233 8 0 69 166 91 248 7 23 -18 12
-31 -15z"/>
<path d="M7575 241 c-32 -19 -111 -101 -138 -141 -9 -14 -23 -42 -32 -63 -26
-62 5 -45 45 25 58 101 170 201 197 175 12 -13 -9 -57 -47 -96 -44 -45 -47
-51 -26 -51 21 0 83 74 91 109 13 58 -31 79 -90 42z"/>
<path d="M6578 209 c-61 -75 -140 -203 -128 -207 6 -2 12 -2 14 -1 1 2 37 55
80 117 78 116 99 171 34 91z"/>
<path d="M6096 205 c-25 -38 -18 -53 9 -20 14 17 25 33 25 38 0 15 -18 6 -34
-18z"/>
<path d="M1851 194 c-12 -15 -21 -31 -21 -37 0 -13 38 21 51 45 15 28 -7 22
-30 -8z"/>
<path d="M4516 201 c-20 -22 -20 -31 -1 -31 17 0 39 36 26 44 -4 3 -16 -3 -25
-13z"/>
<path d="M4751 181 c-19 -23 -41 -41 -53 -41 -11 0 -18 -5 -15 -12 2 -7 10
-12 16 -10 15 3 14 -1 -8 -40 -25 -43 -35 -78 -23 -78 6 0 24 29 40 64 27 58
35 66 71 77 44 13 58 35 16 25 -26 -7 -32 3 -14 21 6 6 9 17 7 24 -2 7 -18 -6
-37 -30z"/>
<path d="M505 170 c-15 -24 -33 -40 -45 -40 -24 0 -36 -18 -16 -26 13 -5 13
-11 -4 -45 -21 -41 -25 -59 -12 -59 5 0 19 22 32 50 28 60 44 76 88 85 18 4
30 11 26 16 -3 5 -17 6 -32 2 l-26 -6 17 26 c20 30 21 37 7 37 -5 0 -21 -18
-35 -40z"/>
<path d="M263 185 c-3 -9 -3 -19 1 -22 7 -7 36 16 36 28 0 15 -30 10 -37 -6z"/>
<path d="M3988 175 c-27 -37 -21 -54 7 -20 14 17 25 33 25 38 0 14 -15 6 -32
-18z"/>
<path d="M2406 171 c-20 -22 -20 -31 -1 -31 17 0 39 36 26 44 -4 3 -16 -3 -25
-13z"/>
<path d="M2651 163 c-36 -49 -41 -53 -62 -53 -12 0 -19 -5 -16 -12 2 -7 10
-12 16 -10 15 3 14 -3 -9 -40 -22 -37 -25 -48 -11 -48 6 0 22 23 37 50 22 40
35 52 66 62 42 12 54 34 13 24 -29 -7 -30 -4 -9 29 22 34 0 32 -25 -2z"/>
<path d="M6642 158 c-14 -14 -16 -38 -4 -38 12 0 32 23 32 37 0 16 -12 17 -28
1z"/>
<path d="M6878 135 c-13 -20 -33 -38 -45 -41 -25 -7 -30 -20 -12 -26 8 -3 6
-14 -5 -36 -12 -24 -13 -32 -4 -32 7 0 22 17 33 37 19 35 39 50 90 69 18 7 17
8 -7 12 -28 3 -36 16 -18 27 13 8 13 25 0 25 -5 0 -20 -16 -32 -35z"/>
<path d="M4854 111 c-30 -18 -79 -99 -68 -110 6 -7 20 11 46 58 17 32 43 49
55 37 4 -4 -1 -20 -10 -35 -19 -32 -22 -61 -8 -61 13 0 44 84 39 106 -5 25
-19 27 -54 5z"/>
<path d="M6027 109 c-31 -23 -72 -97 -61 -107 4 -4 9 -2 11 5 8 23 48 76 65
87 28 17 31 1 9 -43 -25 -47 -25 -51 -8 -51 18 0 50 71 45 101 -4 31 -28 35
-61 8z"/>
<path d="M601 94 c-35 -29 -67 -82 -56 -92 4 -4 12 2 19 12 23 39 65 81 72 73
5 -5 1 -22 -9 -38 -21 -37 -21 -49 -3 -49 17 0 39 60 34 92 -4 31 -21 32 -57
2z"/>
<path d="M1792 107 c-23 -13 -72 -78 -72 -96 0 -22 18 -10 30 18 16 39 45 65
65 58 13 -6 12 -11 -5 -39 -24 -39 -25 -48 -6 -48 29 0 49 108 21 116 -5 2
-20 -2 -33 -9z"/>
<path d="M4555 100 c-38 -24 -84 -100 -61 -100 8 0 17 8 20 18 8 24 64 77 72
69 4 -4 1 -13 -6 -22 -7 -9 -10 -18 -7 -21 3 -3 13 6 23 21 15 22 15 28 3 40
-12 12 -18 11 -44 -5z"/>
<path d="M5022 85 c-46 -40 -60 -45 -38 -13 9 12 16 27 16 32 0 17 -42 -28
-61 -67 -18 -34 -18 -37 -2 -37 9 0 30 12 45 27 15 15 28 21 28 15 0 -20 55
-14 75 8 20 22 14 26 -17 9 -29 -16 -35 -2 -9 25 36 38 8 39 -37 1z"/>
<path d="M5697 112 c-32 -2 -47 -7 -44 -15 2 -7 17 -11 32 -10 28 2 28 2 -15
-42 -25 -26 -38 -45 -30 -45 20 0 124 101 113 109 -4 3 -30 5 -56 3z"/>
<path d="M4458 88 c-35 -54 -49 -88 -35 -88 10 0 34 36 65 103 9 18 -17 5 -30
-15z"/>
<path d="M5787 61 c-15 -27 -27 -51 -27 -55 0 -13 25 -5 48 17 l25 22 -12 -22
c-10 -20 -9 -23 6 -23 9 0 28 10 41 23 l25 22 -12 -23 c-21 -39 4 -23 42 28
43 58 29 68 -30 23 -35 -27 -36 -27 -24 -5 18 34 10 35 -35 5 l-39 -27 18 27
c19 29 21 37 9 37 -5 0 -21 -22 -35 -49z"/>
<path d="M218 83 c-18 -22 -48 -70 -48 -78 0 -18 23 2 46 40 27 47 29 69 2 38z"/>
<path d="M276 58 c-20 -23 -36 -45 -36 -50 0 -16 29 -8 34 10 8 23 54 68 62
60 3 -4 1 -16 -6 -27 -7 -13 -7 -21 -1 -21 6 0 15 9 21 19 34 64 -22 71 -74 9z"/>
<path d="M709 53 c-25 -40 -27 -49 -14 -51 9 -2 28 6 41 19 23 22 25 22 37 5
13 -17 15 -17 45 -2 38 20 44 41 7 24 -35 -16 -43 -2 -15 27 36 38 4 30 -48
-12 -32 -26 -41 -30 -33 -15 6 11 16 24 21 27 13 8 13 25 0 25 -6 0 -24 -21
-41 -47z"/>
<path d="M1403 88 c2 -7 16 -13 30 -13 35 1 34 -5 -4 -38 -18 -15 -29 -30 -26
-33 7 -7 107 75 107 88 0 4 -25 8 -56 8 -40 0 -54 -3 -51 -12z"/>
<path d="M1540 54 c-26 -41 -28 -50 -15 -52 9 -2 26 5 37 15 20 17 21 17 15 1
-4 -13 -1 -18 10 -18 9 0 25 8 36 18 19 16 20 16 14 0 -4 -10 -3 -18 2 -18 8
0 71 75 71 84 0 14 -31 4 -58 -19 -35 -29 -53 -33 -29 -7 27 30 7 34 -30 6
-35 -27 -40 -25 -22 8 23 42 -1 28 -31 -18z"/>
<path d="M2753 87 c-19 -10 -73 -73 -73 -84 0 -2 6 -3 13 -3 6 0 22 16 35 35
12 19 29 35 37 35 19 0 19 -15 -1 -45 -15 -23 -15 -25 0 -25 29 0 48 88 21 96
-5 2 -20 -2 -32 -9z"/>
<path d="M3917 79 c-28 -21 -64 -79 -50 -79 5 0 21 16 36 35 44 56 68 46 42
-17 -10 -25 12 -23 25 2 15 28 9 74 -11 78 -8 1 -28 -7 -42 -19z"/>
<path d="M5534 92 c-18 -13 -54 -65 -54 -78 0 -25 15 -15 44 31 27 44 31 61
10 47z"/>
<path d="M6135 57 c-14 -24 -25 -47 -25 -50 0 -14 28 -6 45 13 23 26 39 26 25
0 -20 -37 6 -20 38 25 18 25 32 48 32 50 0 13 -32 2 -59 -21 -17 -14 -31 -21
-31 -15 0 5 5 13 10 16 13 8 13 25 0 25 -5 0 -21 -20 -35 -43z"/>
<path d="M1267 58 c-36 -49 -40 -58 -25 -58 17 1 70 78 58 85 -5 3 -20 -9 -33
-27z"/>
<path d="M1892 51 c-12 -21 -22 -41 -22 -45 0 -13 34 -5 53 11 19 17 20 17 14
1 -11 -32 9 -19 38 22 32 47 27 62 -13 34 -50 -37 -55 -39 -43 -16 26 49 1 43
-27 -7z"/>
<path d="M2450 74 c-30 -19 -64 -63 -56 -72 4 -3 22 10 41 28 34 33 61 36 35
5 -7 -9 -10 -18 -7 -21 9 -10 40 45 33 61 -7 19 -15 19 -46 -1z"/>
<path d="M2912 55 c-48 -42 -61 -45 -33 -8 12 14 19 29 15 32 -6 6 -64 -58
-64 -71 0 -13 45 -9 59 5 11 9 14 9 18 0 7 -20 48 -15 68 7 20 22 14 26 -17 9
-29 -16 -35 -2 -9 25 36 38 8 39 -37 1z"/>
<path d="M3588 82 c-53 -3 -66 -22 -16 -22 l32 0 -29 -30 c-40 -42 -10 -38 39
6 22 19 35 38 30 42 -5 4 -30 6 -56 4z"/>
<path d="M5562 45 c-18 -36 -19 -45 -7 -45 13 0 45 58 45 81 0 22 -18 5 -38
-36z"/>
<path d="M1320 40 c-15 -30 -17 -40 -7 -40 7 0 21 16 30 35 20 41 20 45 7 45
-5 0 -19 -18 -30 -40z"/>
<path d="M2343 47 c-25 -36 -28 -47 -14 -47 8 0 51 64 51 76 0 13 -18 0 -37
-29z"/>
<path d="M3698 63 c-9 -10 -21 -28 -27 -40 -11 -22 -10 -22 59 -21 66 1 73 3
97 32 23 27 24 31 9 34 -10 2 -28 -5 -39 -16 -28 -25 -58 -41 -39 -21 6 7 12
19 12 26 0 15 -9 11 -60 -25 l-25 -17 18 28 c21 33 18 46 -5 20z"/>
<path d="M6962 46 c-20 -19 -34 -38 -29 -42 4 -4 20 5 35 19 35 34 46 34 38 2
-5 -18 -2 -25 8 -25 15 0 27 45 19 67 -8 22 -31 15 -71 -21z"/>
<path d="M3405 38 c-16 -19 -23 -34 -16 -36 13 -4 50 37 51 56 0 18 -6 15 -35
-20z"/>
<path d="M4035 40 c-21 -40 -20 -40 24 -37 29 2 45 10 60 29 37 46 18 53 -36
12 -18 -14 -33 -21 -33 -15 0 5 5 13 10 16 13 8 13 25 0 25 -5 0 -16 -13 -25
-30z"/>
<path d="M6662 35 c-21 -20 -31 -35 -23 -35 8 0 25 10 38 22 25 23 44 18 23
-7 -10 -12 -10 -15 3 -15 16 0 27 20 27 51 0 29 -26 23 -68 -16z"/>
<path d="M7146 36 l-40 -33 32 -1 c18 0 30 3 27 7 -2 5 4 16 15 26 20 18 26
35 13 35 -5 0 -26 -15 -47 -34z"/>
<path d="M7817 63 c-48 -4 -57 -23 -11 -23 28 0 31 -8 7 -26 -13 -10 -14 -13
-4 -14 20 0 82 50 76 61 -4 5 -9 8 -13 7 -4 -1 -28 -3 -55 -5z"/>
<path d="M3462 35 c-15 -33 -15 -35 2 -35 8 0 19 14 25 30 13 39 -10 42 -27 5z"/>
<path d="M5402 30 l-32 -30 26 0 c27 0 53 24 54 48 0 19 -12 14 -48 -18z"/>
<path d="M6588 43 c-25 -30 -30 -43 -16 -43 7 0 21 14 30 30 19 33 10 40 -14
13z"/>
<path d="M7090 30 c-12 -17 -16 -30 -10 -30 12 0 49 39 50 53 0 17 -20 5 -40
-23z"/>
<path d="M7926 38 c-18 -25 -20 -38 -8 -38 10 0 35 50 28 57 -2 2 -11 -6 -20
-19z"/>
<path d="M1165 25 l-30 -24 27 -1 c18 0 29 6 33 21 10 30 3 31 -30 4z"/>
<path d="M7645 30 c-10 -11 -15 -23 -12 -27 8 -7 47 25 47 39 0 14 -16 9 -35
-12z"/>
<path d="M4745 20 c-10 -11 -13 -20 -8 -20 13 0 38 29 31 35 -3 3 -13 -4 -23
-15z"/>
<path d="M7700 20 c-9 -16 -8 -20 5 -20 8 0 15 2 15 4 0 2 3 11 6 20 9 23 -13
20 -26 -4z"/>
<path d="M506 21 c-4 -7 -5 -15 -2 -18 9 -9 19 4 14 18 -4 11 -6 11 -12 0z"/>
<path d="M3310 15 c-10 -13 -9 -15 9 -15 12 0 21 6 21 15 0 8 -4 15 -9 15 -5
0 -14 -7 -21 -15z"/>
<path d="M4597 23 c-10 -9 -9 -23 2 -23 5 0 11 7 15 15 5 15 -5 20 -17 8z"/>
<path d="M355 10 c-3 -5 -1 -10 4 -10 6 0 11 5 11 10 0 6 -2 10 -4 10 -3 0 -8
-4 -11 -10z"/>
<path d="M7190 10 c-12 -8 -11 -10 7 -10 12 0 25 5 28 10 8 13 -15 13 -35 0z"/>
<path d="M7558 3 c7 -3 16 -2 19 1 4 3 -2 6 -13 5 -11 0 -14 -3 -6 -6z"/>
</g>
</svg>
