<?xml version="1.0" standalone="no"?>
<!DOCTYPE svg PUBLIC "-//W3C//DTD SVG 20010904//EN"
 "http://www.w3.org/TR/2001/REC-SVG-20010904/DTD/svg10.dtd">
<svg version="1.0" xmlns="http://www.w3.org/2000/svg"
 width="2450.000000pt" height="532.000000pt" viewBox="0 0 2450.000000 532.000000"
 preserveAspectRatio="xMidYMid meet">

<g transform="translate(0.000000,532.000000) scale(0.100000,-0.100000)"
fill="#000000" stroke="none">
<path d="M16145 5290 c-83 -21 -150 -54 -185 -90 -39 -38 -94 -86 -113 -96
-32 -18 -145 -134 -136 -139 4 -3 -5 -24 -21 -47 -17 -23 -30 -53 -30 -67 0
-31 -42 -107 -57 -104 -6 1 -13 -16 -16 -39 -4 -29 -16 -52 -45 -82 -38 -39
-118 -202 -183 -374 -18 -47 -32 -69 -56 -83 -41 -26 -42 -33 -3 -25 29 5 30
4 30 -28 0 -18 -9 -45 -20 -59 -11 -14 -20 -30 -20 -36 0 -29 -42 -89 -73
-106 -29 -15 -37 -27 -45 -64 l-10 -46 -1 48 c-1 29 -5 46 -11 42 -5 -3 -10
-14 -10 -23 0 -9 -7 -30 -15 -46 -12 -22 -12 -32 -4 -42 8 -10 8 -14 0 -14 -6
0 -11 -9 -11 -20 0 -24 17 -26 41 -4 21 19 42 10 34 -16 -3 -10 0 -30 7 -45
11 -25 10 -29 -10 -43 -12 -8 -22 -23 -22 -33 0 -23 4 -23 33 -4 15 10 35 12
60 8 32 -5 37 -10 43 -39 3 -19 3 -45 0 -58 -5 -21 -13 -25 -64 -31 -95 -10
-144 -24 -222 -63 -58 -28 -84 -49 -113 -87 -73 -98 -138 -241 -210 -470 l-70
-220 -5 -171 c-3 -150 -2 -177 14 -209 15 -33 16 -45 6 -94 -18 -86 -15 -199
7 -272 11 -35 29 -102 40 -149 22 -97 47 -159 95 -239 19 -31 37 -74 41 -96
12 -72 74 -179 157 -272 21 -24 38 -48 38 -55 0 -8 -9 -45 -19 -83 -35 -128
-60 -269 -71 -400 -6 -71 -18 -153 -27 -181 -13 -42 -14 -64 -5 -122 6 -44 7
-84 1 -106 -5 -20 -13 -53 -19 -73 -5 -21 -10 -44 -10 -50 0 -10 270 -13 1315
-13 l1315 0 0 36 c0 19 -11 79 -24 132 -13 53 -29 142 -35 197 -6 55 -16 145
-22 200 -12 103 -19 649 -9 664 3 4 28 11 56 15 70 9 178 47 266 93 105 54
218 168 247 248 36 95 50 162 61 276 12 131 -3 219 -55 324 -25 50 -35 83 -35
117 0 40 -6 53 -40 93 -54 62 -59 75 -63 140 -3 51 -8 61 -38 89 -66 59 -78
80 -93 158 -19 101 -55 189 -130 322 -63 113 -157 226 -209 252 -16 9 -51 22
-77 30 -26 8 -53 21 -60 29 -18 22 -4 45 28 45 18 0 38 10 57 30 32 34 28 50
-7 26 -29 -21 -84 -21 -92 0 -13 35 -5 66 30 104 20 22 43 40 50 40 17 0 18
12 3 27 -6 6 -9 17 -7 24 3 8 16 -3 32 -26 27 -39 28 -39 21 -10 -3 16 -26 53
-51 81 -24 29 -44 61 -44 72 0 23 36 72 53 72 8 0 11 18 9 57 -4 67 -16 88
-25 44 -7 -31 -27 -43 -27 -16 0 8 -5 15 -11 15 -6 0 -9 -6 -6 -14 3 -7 -1
-23 -9 -34 -11 -15 -12 -27 -4 -47 12 -32 4 -51 -15 -35 -31 26 -52 253 -25
270 16 10 -3 72 -35 115 -38 51 -75 133 -75 165 0 17 -5 30 -12 30 -7 0 -21
17 -30 38 -10 20 -22 44 -28 52 -15 23 -33 72 -35 100 -5 50 -38 117 -120 239
-157 236 -151 229 -253 287 -84 49 -98 54 -155 54 -35 1 -73 7 -87 15 -34 19
-130 17 -215 -5z m-11 -281 c-7 -12 -64 -12 -64 0 0 5 8 11 18 13 24 6 53 -3
46 -13z m51 -73 c11 -6 43 -16 70 -21 50 -10 50 -11 46 -45 -3 -19 -4 -46 -4
-60 1 -14 -1 -44 -3 -67 -5 -39 -6 -41 -32 -34 -22 6 -28 14 -30 42 -6 85 0
81 -125 79 -62 -1 -122 2 -134 7 -22 8 -23 9 -5 43 24 49 85 79 149 72 26 -2
57 -9 68 -16z m160 -56 c-3 -5 -10 -10 -16 -10 -5 0 -9 5 -9 10 0 6 7 10 16
10 8 0 12 -4 9 -10z m25 -26 c0 -8 -5 -12 -10 -9 -6 4 -8 11 -5 16 9 14 15 11
15 -7z m-350 -126 c0 -10 3 -9 9 1 6 9 11 10 15 2 4 -6 11 -9 16 -6 4 3 13 -2
20 -10 9 -11 5 -15 -27 -21 -35 -6 -118 -47 -127 -62 -8 -14 -17 -76 -9 -66 8
12 47 34 58 34 4 0 5 -6 2 -14 -6 -15 18 -55 42 -71 9 -5 33 -13 54 -16 31 -4
39 -2 52 18 9 13 20 23 26 23 13 0 72 62 97 101 18 29 19 29 35 11 10 -11 18
-38 19 -65 1 -25 6 -44 9 -41 8 4 39 -34 39 -48 0 -4 -21 -16 -46 -27 -28 -13
-43 -25 -39 -32 4 -6 -3 -4 -16 5 -20 12 -29 13 -49 3 -20 -10 -26 -22 -30
-59 -4 -41 -10 -51 -52 -83 -26 -20 -51 -47 -54 -60 -3 -14 -12 -25 -19 -25
-8 0 -16 -19 -20 -47 -3 -27 -17 -67 -30 -90 -13 -24 -19 -43 -14 -43 6 0 9
-19 7 -42 -2 -30 -8 -43 -18 -43 -10 0 -14 8 -12 21 2 18 -1 21 -24 16 -20 -4
-25 -2 -19 8 6 10 3 12 -13 8 -16 -5 -28 3 -48 29 -25 33 -26 38 -21 134 3 61
0 112 -6 129 -8 21 -8 69 1 175 l11 147 45 41 c39 35 105 74 129 76 4 1 7 -5
7 -11z m40 -58 c-20 -13 -43 -13 -35 0 3 6 16 10 28 10 18 0 19 -2 7 -10z
m-23 -76 c-3 -3 -12 -4 -19 -1 -8 3 -5 6 6 6 11 1 17 -2 13 -5z m543 -175 c19
-7 37 -14 38 -16 2 -1 1 -15 -3 -31 -8 -40 -46 -48 -74 -16 -12 13 -25 24 -30
24 -5 0 -14 14 -20 31 -11 31 -11 31 22 26 17 -2 48 -11 67 -18z m-281 -145
c2 -2 -13 -4 -35 -4 -22 0 -61 -11 -88 -25 -60 -30 -75 -32 -51 -5 32 35 67
47 120 42 28 -3 52 -6 54 -8z m-549 -64 c0 -5 -9 -6 -20 -3 -11 3 -17 9 -15
14 7 10 35 1 35 -11z m509 -39 c10 -6 10 -10 1 -16 -16 -10 -82 4 -75 16 8 11
55 12 74 0z m-523 -30 c-4 -6 -14 -11 -22 -11 -12 0 -13 4 -3 21 7 14 14 18
21 11 6 -6 7 -15 4 -21z m438 -45 c-1 -22 -8 -53 -15 -69 -15 -33 -8 -42 34
-39 18 1 39 -2 47 -7 12 -8 11 -13 -5 -31 -14 -16 -29 -21 -58 -18 -35 2 -41
-1 -53 -27 -9 -20 -13 -23 -11 -10 1 14 -3 19 -15 17 -25 -4 -22 14 5 33 15
12 18 19 10 22 -7 3 -13 12 -13 22 0 11 -16 21 -51 32 -48 14 -50 16 -35 31 9
9 16 22 16 28 0 6 11 21 23 34 19 19 35 24 73 24 l50 0 -2 -42z m-165 -501
c17 -1 29 -13 42 -40 19 -39 14 -54 -17 -55 -7 0 -14 -9 -17 -20 -7 -28 -21
-25 -51 11 -14 17 -29 28 -34 25 -4 -2 -7 12 -6 32 0 20 6 38 12 40 7 2 9 8 6
14 -4 7 2 7 17 2 13 -4 35 -8 48 -9z m246 -65 c3 -5 1 -10 -4 -10 -6 0 -11 5
-11 10 0 6 2 10 4 10 3 0 8 -4 11 -10z m1153 -882 c17 -17 15 -57 -3 -64 -8
-4 -15 -12 -15 -20 0 -17 -37 -37 -56 -30 -21 8 -17 26 5 26 11 0 23 5 26 10
4 6 -5 10 -19 10 -33 0 -34 25 -4 57 24 25 48 29 66 11z m-195 -98 c-3 -11
-14 -25 -24 -31 -16 -8 -19 -6 -19 14 0 28 7 37 31 37 12 0 16 -6 12 -20z
m262 -14 c20 -30 4 -86 -19 -67 -7 6 -21 8 -31 5 -16 -6 -16 -8 -1 -16 9 -5
16 -13 16 -18 0 -14 -40 -32 -57 -26 -14 6 -14 9 0 29 8 13 13 34 10 48 -5 26
27 69 52 69 8 0 22 -11 30 -24z m-275 -50 c0 -16 -18 -31 -27 -22 -8 8 5 36
17 36 5 0 10 -6 10 -14z m104 -22 c-11 -42 -41 -98 -47 -87 -9 15 13 86 31
101 22 17 23 16 16 -14z m106 -125 c0 -5 -7 -9 -15 -9 -8 0 -21 -13 -30 -30
-13 -25 -18 -28 -34 -18 -15 9 -17 17 -8 49 5 21 13 37 17 34 4 -3 14 2 21 11
12 14 15 14 31 -6 10 -12 18 -26 18 -31z m98 -28 c3 -37 1 -43 -10 -33 -9 7
-19 8 -28 2 -21 -13 -27 -12 -34 6 -9 25 25 75 49 72 16 -2 21 -12 23 -47z
m-45 -58 c-7 -2 -19 -2 -25 0 -7 3 -2 5 12 5 14 0 19 -2 13 -5z m-1556 -170
c-2 -10 -8 -27 -13 -38 -7 -18 -6 -18 9 -6 15 12 17 11 17 -8 0 -12 -13 -34
-30 -48 -16 -13 -30 -31 -30 -39 0 -17 -5 -17 -28 -3 -13 8 -32 6 -81 -11 -35
-11 -64 -20 -65 -18 0 2 -7 13 -13 25 -19 33 -16 52 5 46 10 -2 54 5 98 16 81
21 114 44 114 82 0 10 5 19 11 19 6 0 9 -8 6 -17z m3 -197 c0 -3 -4 -8 -10
-11 -5 -3 -10 -1 -10 4 0 6 5 11 10 11 6 0 10 -2 10 -4z m397 -1198 c-3 -8 -6
-5 -6 6 -1 11 2 17 5 13 3 -3 4 -12 1 -19z"/>
<path d="M16216 4568 c-28 -32 -35 -68 -12 -68 8 0 16 10 20 23 3 13 17 29 31
35 30 14 32 28 6 35 -12 3 -28 -6 -45 -25z"/>
<path d="M6345 5250 c-83 -21 -150 -54 -185 -90 -39 -38 -94 -86 -113 -96 -32
-18 -145 -134 -136 -139 4 -3 -5 -24 -21 -47 -17 -23 -30 -53 -30 -67 0 -31
-42 -107 -57 -104 -6 1 -13 -16 -16 -39 -4 -29 -16 -52 -45 -82 -38 -39 -118
-202 -183 -374 -18 -47 -32 -69 -56 -83 -41 -26 -42 -33 -3 -25 29 5 30 4 30
-28 0 -18 -9 -45 -20 -59 -11 -14 -20 -30 -20 -36 0 -29 -42 -89 -73 -106 -29
-15 -37 -27 -45 -64 l-10 -46 -1 48 c-1 29 -5 46 -11 42 -5 -3 -10 -14 -10
-23 0 -9 -7 -30 -15 -46 -12 -22 -12 -32 -4 -42 8 -10 8 -14 0 -14 -6 0 -11
-9 -11 -20 0 -24 17 -26 41 -4 21 19 42 10 34 -16 -3 -10 0 -30 7 -45 11 -25
10 -29 -10 -43 -12 -8 -22 -23 -22 -33 0 -23 4 -23 33 -4 15 10 35 12 60 8 32
-5 37 -10 43 -39 3 -19 3 -45 0 -58 -5 -21 -13 -25 -64 -31 -95 -10 -144 -24
-222 -63 -58 -28 -84 -49 -113 -87 -73 -98 -138 -241 -210 -470 l-70 -220 -5
-171 c-3 -150 -2 -177 14 -209 15 -33 16 -45 6 -94 -18 -86 -15 -199 7 -272
11 -35 29 -102 40 -149 22 -97 47 -159 95 -239 19 -31 37 -74 41 -96 12 -72
74 -179 157 -272 21 -24 38 -48 38 -55 0 -8 -9 -45 -19 -83 -35 -128 -60 -269
-71 -400 -6 -72 -18 -153 -27 -181 -13 -42 -14 -64 -5 -122 6 -44 7 -84 1
-106 -5 -20 -13 -53 -19 -73 -5 -21 -10 -44 -10 -50 0 -10 270 -13 1315 -13
l1315 0 0 36 c0 19 -11 79 -24 132 -13 53 -29 142 -35 197 -6 55 -16 145 -22
200 -12 103 -19 649 -9 664 3 4 28 11 56 15 70 9 178 47 266 93 105 54 218
168 247 248 36 95 50 162 61 276 12 131 -3 219 -55 324 -25 50 -35 83 -35 117
0 40 -6 53 -40 93 -54 62 -59 75 -63 140 -3 51 -8 61 -38 89 -66 59 -78 80
-93 158 -19 101 -55 189 -130 322 -63 113 -157 226 -209 252 -16 9 -51 22 -77
30 -26 8 -53 21 -60 29 -18 22 -4 45 28 45 18 0 38 10 57 30 32 34 28 50 -7
26 -29 -21 -84 -21 -92 0 -13 35 -5 66 30 104 20 22 43 40 50 40 17 0 18 12 3
27 -6 6 -9 17 -7 24 3 8 16 -3 32 -26 27 -39 28 -39 21 -10 -3 16 -26 53 -51
81 -24 29 -44 61 -44 72 0 23 36 72 53 72 8 0 11 18 9 57 -4 67 -16 88 -25 44
-7 -31 -27 -43 -27 -16 0 8 -5 15 -11 15 -6 0 -9 -6 -6 -14 3 -7 -1 -23 -9
-34 -11 -15 -12 -27 -4 -47 12 -32 4 -51 -15 -35 -31 26 -52 253 -25 270 16
10 -3 72 -35 115 -38 51 -75 133 -75 165 0 17 -5 30 -12 30 -7 0 -21 17 -30
38 -10 20 -22 44 -28 52 -15 23 -33 72 -35 100 -5 50 -38 117 -120 239 -157
236 -151 229 -253 287 -84 49 -98 54 -155 54 -35 1 -73 7 -87 15 -34 19 -130
17 -215 -5z m-11 -281 c-7 -12 -64 -12 -64 0 0 5 8 11 18 13 24 6 53 -3 46
-13z m51 -73 c11 -6 43 -16 70 -21 50 -10 50 -11 46 -45 -3 -19 -4 -46 -4 -60
1 -14 -1 -44 -3 -67 -5 -39 -6 -41 -32 -34 -22 6 -28 14 -30 42 -6 85 0 81
-125 79 -62 -1 -122 2 -134 7 -22 8 -23 9 -5 43 24 49 85 79 149 72 26 -2 57
-9 68 -16z m160 -56 c-3 -5 -10 -10 -16 -10 -5 0 -9 5 -9 10 0 6 7 10 16 10 8
0 12 -4 9 -10z m25 -26 c0 -8 -5 -12 -10 -9 -6 4 -8 11 -5 16 9 14 15 11 15
-7z m-350 -126 c0 -10 3 -9 9 1 6 9 11 10 15 2 4 -6 11 -9 16 -6 4 3 13 -2 20
-10 9 -11 5 -15 -27 -21 -35 -6 -118 -47 -127 -62 -8 -14 -17 -76 -9 -66 8 12
47 34 58 34 4 0 5 -6 2 -14 -6 -15 18 -55 42 -71 9 -5 33 -13 54 -16 31 -4 39
-2 52 18 9 13 20 23 26 23 13 0 72 62 97 101 18 29 19 29 35 11 10 -11 18 -38
19 -65 1 -25 6 -44 9 -41 8 4 39 -34 39 -48 0 -4 -21 -16 -46 -27 -28 -13 -43
-25 -39 -32 4 -6 -3 -4 -16 5 -20 12 -29 13 -49 3 -20 -10 -26 -22 -30 -59 -4
-41 -10 -51 -52 -83 -26 -20 -51 -47 -54 -60 -3 -14 -12 -25 -19 -25 -8 0 -16
-19 -20 -47 -3 -27 -17 -67 -30 -90 -13 -24 -19 -43 -14 -43 6 0 9 -19 7 -42
-2 -30 -8 -43 -18 -43 -10 0 -14 8 -12 21 2 18 -1 21 -24 16 -20 -4 -25 -2
-19 8 6 10 3 12 -13 8 -16 -5 -28 3 -48 29 -25 33 -26 38 -21 134 3 61 0 112
-6 129 -8 21 -8 69 1 175 l11 147 45 41 c39 35 105 74 129 76 4 1 7 -5 7 -11z
m40 -58 c-20 -13 -43 -13 -35 0 3 6 16 10 28 10 18 0 19 -2 7 -10z m-23 -76
c-3 -3 -12 -4 -19 -1 -8 3 -5 6 6 6 11 1 17 -2 13 -5z m543 -175 c19 -7 37
-14 38 -16 2 -1 1 -15 -3 -31 -8 -40 -46 -48 -74 -16 -12 13 -25 24 -30 24 -5
0 -14 14 -20 31 -11 31 -11 31 22 26 17 -2 48 -11 67 -18z m-281 -145 c2 -2
-13 -4 -35 -4 -22 0 -61 -11 -88 -25 -60 -30 -75 -32 -51 -5 32 35 67 47 120
42 28 -3 52 -6 54 -8z m-549 -64 c0 -5 -9 -6 -20 -3 -11 3 -17 9 -15 14 7 10
35 1 35 -11z m509 -39 c10 -6 10 -10 1 -16 -16 -10 -82 4 -75 16 8 11 55 12
74 0z m-523 -30 c-4 -6 -14 -11 -22 -11 -12 0 -13 4 -3 21 7 14 14 18 21 11 6
-6 7 -15 4 -21z m438 -45 c-1 -22 -8 -53 -15 -69 -15 -33 -8 -42 34 -39 18 1
39 -2 47 -7 12 -8 11 -13 -5 -31 -14 -16 -29 -21 -58 -18 -35 2 -41 -1 -53
-27 -9 -20 -13 -23 -11 -10 1 14 -3 19 -15 17 -25 -4 -22 14 5 33 15 12 18 19
10 22 -7 3 -13 12 -13 22 0 11 -16 21 -51 32 -48 14 -50 16 -35 31 9 9 16 22
16 28 0 6 11 21 23 34 19 19 35 24 73 24 l50 0 -2 -42z m-165 -501 c17 -1 29
-13 42 -40 19 -39 14 -54 -17 -55 -7 0 -14 -9 -17 -20 -7 -28 -21 -25 -51 11
-14 17 -29 28 -34 25 -4 -2 -7 12 -6 32 0 20 6 38 12 40 7 2 9 8 6 14 -4 7 2
7 17 2 13 -4 35 -8 48 -9z m246 -65 c3 -5 1 -10 -4 -10 -6 0 -11 5 -11 10 0 6
2 10 4 10 3 0 8 -4 11 -10z m1153 -882 c17 -17 15 -57 -3 -64 -8 -4 -15 -12
-15 -20 0 -17 -37 -37 -56 -30 -21 8 -17 26 5 26 11 0 23 5 26 10 4 6 -5 10
-19 10 -33 0 -34 25 -4 57 24 25 48 29 66 11z m-195 -98 c-3 -11 -14 -25 -24
-31 -16 -8 -19 -6 -19 14 0 28 7 37 31 37 12 0 16 -6 12 -20z m262 -14 c20
-30 4 -86 -19 -67 -7 6 -21 8 -31 5 -16 -6 -16 -8 -1 -16 9 -5 16 -13 16 -18
0 -14 -40 -32 -57 -26 -14 6 -14 9 0 29 8 13 13 34 10 48 -5 26 27 69 52 69 8
0 22 -11 30 -24z m-275 -50 c0 -16 -18 -31 -27 -22 -8 8 5 36 17 36 5 0 10 -6
10 -14z m104 -22 c-11 -42 -41 -98 -47 -87 -9 15 13 86 31 101 22 17 23 16 16
-14z m106 -125 c0 -5 -7 -9 -15 -9 -8 0 -21 -13 -30 -30 -13 -25 -18 -28 -34
-18 -15 9 -17 17 -8 49 5 21 13 37 17 34 4 -3 14 2 21 11 12 14 15 14 31 -6
10 -12 18 -26 18 -31z m98 -28 c3 -37 1 -43 -10 -33 -9 7 -19 8 -28 2 -21 -13
-27 -12 -34 6 -9 25 25 75 49 72 16 -2 21 -12 23 -47z m-45 -58 c-7 -2 -19 -2
-25 0 -7 3 -2 5 12 5 14 0 19 -2 13 -5z m-1556 -170 c-2 -10 -8 -27 -13 -38
-7 -18 -6 -18 9 -6 15 12 17 11 17 -8 0 -12 -13 -34 -30 -48 -16 -13 -30 -31
-30 -39 0 -17 -5 -17 -28 -3 -13 8 -32 6 -81 -11 -35 -11 -64 -20 -65 -18 0 2
-7 13 -13 25 -19 33 -16 52 5 46 10 -2 54 5 98 16 81 21 114 44 114 82 0 10 5
19 11 19 6 0 9 -8 6 -17z m3 -197 c0 -3 -4 -8 -10 -11 -5 -3 -10 -1 -10 4 0 6
5 11 10 11 6 0 10 -2 10 -4z m397 -1198 c-3 -8 -6 -5 -6 6 -1 11 2 17 5 13 3
-3 4 -12 1 -19z"/>
<path d="M6416 4528 c-28 -32 -35 -68 -12 -68 8 0 16 10 20 23 3 13 17 29 31
35 30 14 32 28 6 35 -12 3 -28 -6 -45 -25z"/>
<path d="M2174 5231 c-23 -11 -77 -52 -119 -93 -199 -188 -289 -415 -192 -483
31 -22 58 -19 120 14 l55 29 -59 -114 c-55 -105 -72 -167 -53 -187 14 -14 41
14 53 53 19 64 73 177 124 262 26 42 47 84 47 92 0 25 -34 19 -61 -10 -38 -40
-139 -104 -165 -104 -14 0 -30 10 -39 24 -14 20 -14 31 -5 67 29 105 114 233
228 341 94 89 162 113 162 58 0 -35 -30 -82 -98 -153 -47 -48 -63 -70 -55 -78
18 -18 49 -1 107 62 58 62 94 145 80 185 -20 56 -60 67 -130 35z"/>
<path d="M201 5203 c-92 -183 -173 -590 -127 -636 38 -37 35 -41 180 204 75
127 200 314 268 402 23 29 15 53 -14 42 -34 -13 -235 -306 -344 -500 -49 -88
-49 -88 -52 -51 -7 77 48 293 120 475 16 41 27 80 24 88 -10 25 -35 13 -55
-24z"/>
<path d="M17531 5193 c-92 -183 -173 -590 -127 -636 38 -37 35 -41 180 204 75
127 200 314 268 402 23 29 15 53 -14 42 -34 -13 -235 -306 -344 -500 -49 -88
-49 -88 -52 -51 -7 77 48 293 120 475 16 41 27 80 24 88 -10 25 -35 13 -55
-24z"/>
<path d="M9714 5191 c-23 -11 -77 -52 -119 -93 -199 -188 -289 -415 -192 -483
31 -22 58 -19 120 14 l55 29 -59 -114 c-55 -105 -72 -167 -53 -187 14 -14 41
14 53 53 19 64 73 177 124 262 26 42 47 84 47 92 0 25 -34 19 -61 -10 -38 -40
-139 -104 -165 -104 -14 0 -30 10 -39 24 -14 20 -14 31 -5 67 29 105 114 233
228 341 94 89 162 113 162 58 0 -35 -30 -82 -98 -153 -47 -48 -63 -70 -55 -78
18 -18 49 -1 107 62 58 62 94 145 80 185 -20 56 -60 67 -130 35z"/>
<path d="M7731 5153 c-92 -183 -173 -590 -127 -636 38 -37 35 -41 180 204 75
127 200 314 268 402 23 29 15 53 -14 42 -34 -13 -235 -306 -344 -500 -49 -88
-49 -88 -52 -51 -7 77 48 293 120 475 16 41 27 80 24 88 -10 25 -35 13 -55
-24z"/>
<path d="M11551 5133 c-92 -183 -173 -590 -127 -636 38 -37 35 -41 180 204 75
127 200 314 268 402 23 29 15 53 -14 42 -34 -13 -235 -306 -344 -500 -49 -88
-49 -88 -52 -51 -7 77 48 293 120 475 16 41 27 80 24 88 -10 25 -35 13 -55
-24z"/>
<path d="M4011 5123 c-92 -183 -173 -590 -127 -636 38 -37 35 -41 180 204 75
127 200 314 268 402 23 29 15 53 -14 42 -34 -13 -235 -306 -344 -500 -49 -88
-49 -88 -52 -51 -7 77 48 293 120 475 16 41 27 80 24 88 -10 25 -35 13 -55
-24z"/>
<path d="M3241 5069 c-42 -53 -51 -79 -28 -79 24 0 104 110 90 124 -12 12 -22
5 -62 -45z"/>
<path d="M968 5035 c-38 -56 -48 -65 -83 -73 -30 -6 -40 -12 -40 -27 0 -14 7
-20 23 -19 12 0 21 -2 19 -5 -95 -173 -107 -281 -32 -281 46 0 154 122 140
158 -6 15 -9 14 -23 -8 -10 -14 -32 -42 -51 -62 -88 -99 -90 10 -3 160 38 66
34 63 160 98 31 9 3 29 -37 27 -22 -1 -41 1 -41 4 0 3 9 18 21 34 20 29 20 59
-1 59 -5 0 -29 -29 -52 -65z"/>
<path d="M13369 5034 c-176 -185 -246 -386 -156 -449 31 -22 58 -19 120 14
l55 29 -59 -114 c-39 -75 -59 -125 -59 -148 0 -68 38 -50 64 30 9 28 37 91 61
140 35 69 45 100 45 137 l0 49 -37 -30 c-97 -76 -142 -89 -168 -48 -14 20 -14
31 -5 67 24 88 95 204 177 290 27 29 34 43 31 69 l-3 32 -66 -68z"/>
<path d="M561 5064 c-25 -32 -27 -52 -4 -61 20 -8 66 41 61 66 -5 26 -34 24
-57 -5z"/>
<path d="M10781 5029 c-42 -53 -51 -79 -28 -79 24 0 104 110 90 124 -12 12
-22 5 -62 -45z"/>
<path d="M17891 5054 c-25 -32 -27 -52 -4 -61 20 -8 66 41 61 66 -5 26 -34 24
-57 -5z"/>
<path d="M8508 4995 c-38 -56 -48 -65 -83 -73 -30 -6 -40 -12 -40 -27 0 -14 7
-20 23 -19 12 0 21 -2 19 -5 -95 -173 -107 -281 -32 -281 46 0 154 122 140
158 -6 15 -9 14 -23 -8 -10 -14 -32 -42 -51 -62 -88 -99 -90 10 -3 160 38 66
34 63 160 98 31 9 3 29 -37 27 -22 -1 -41 1 -41 4 0 3 9 18 21 34 20 29 20 59
-1 59 -5 0 -29 -29 -52 -65z"/>
<path d="M8091 5014 c-25 -32 -27 -52 -4 -61 20 -8 66 41 61 66 -5 26 -34 24
-57 -5z"/>
<path d="M12318 4965 c-38 -56 -48 -65 -83 -73 -30 -6 -40 -12 -40 -27 0 -14
7 -20 23 -19 12 0 21 -2 19 -5 -95 -173 -107 -281 -32 -281 46 0 154 122 140
158 -6 15 -9 14 -23 -8 -10 -14 -32 -42 -51 -62 -88 -99 -90 10 -3 160 38 66
34 63 160 98 31 9 3 29 -37 27 -22 -1 -41 1 -41 4 0 3 9 18 21 34 20 29 20 59
-1 59 -5 0 -29 -29 -52 -65z"/>
<path d="M11911 4994 c-25 -32 -27 -52 -4 -61 20 -8 66 41 61 66 -5 26 -34 24
-57 -5z"/>
<path d="M4371 4984 c-25 -32 -27 -52 -4 -61 20 -8 66 41 61 66 -5 26 -34 24
-57 -5z"/>
<path d="M4760 4931 c-20 -33 -32 -42 -65 -49 -30 -6 -40 -12 -40 -27 0 -14 7
-20 23 -19 12 0 21 -2 19 -5 -96 -176 -107 -281 -29 -281 47 0 153 132 127
159 -4 3 -11 -3 -17 -13 -6 -10 -26 -36 -45 -57 -90 -99 -93 7 -5 158 27 46
45 66 71 77 28 12 31 15 14 15 -18 1 -22 8 -25 41 l-3 41 -25 -40z"/>
<path d="M1138 4915 c-68 -46 -128 -156 -128 -234 0 -106 108 -65 178 67 79
147 52 236 -50 167z m52 -49 c0 -13 -10 -36 -21 -51 -12 -14 -23 -41 -25 -58
-5 -40 -55 -93 -79 -83 -32 12 0 103 61 175 40 46 64 53 64 17z"/>
<path d="M3140 4922 c-45 -24 -114 -125 -130 -190 -9 -41 -9 -56 2 -79 20 -42
52 -42 94 2 28 30 34 33 34 17 0 -25 37 -72 56 -72 26 0 29 31 4 50 -20 15
-22 23 -16 59 3 23 16 62 27 86 26 56 32 111 12 130 -19 20 -41 19 -83 -3z
m54 -41 c7 -11 -79 -172 -101 -188 -70 -53 -49 74 27 160 30 35 62 47 74 28z"/>
<path d="M624 4892 c-46 -34 -99 -108 -116 -163 -34 -114 64 -145 164 -51 55
51 72 77 62 93 -4 7 -24 -9 -50 -39 -93 -106 -173 -87 -114 28 24 47 85 110
106 110 13 0 11 -7 -7 -40 -29 -52 -16 -64 22 -22 24 27 29 41 27 70 -3 31 -7
37 -28 40 -16 2 -41 -8 -66 -26z"/>
<path d="M1454 4894 c-21 -14 -59 -45 -83 -67 -44 -43 -43 -30 3 32 28 38 22
60 -12 42 -37 -20 -142 -223 -142 -276 0 -32 34 -10 64 42 36 60 103 143 116
143 5 0 7 -6 4 -13 -8 -23 23 -40 58 -33 38 7 98 51 98 72 0 18 -3 18 -42 -6
-34 -21 -68 -26 -68 -11 0 5 16 25 36 44 20 19 33 40 30 46 -10 16 -19 14 -62
-15z"/>
<path d="M2552 4913 c-69 -4 -73 -5 -70 -26 3 -19 9 -22 53 -22 l51 0 -68 -67
c-37 -37 -81 -87 -96 -112 -28 -43 -30 -45 -46 -28 -23 27 -20 75 10 133 14
28 24 58 22 67 -7 37 -35 14 -73 -60 -43 -83 -80 -131 -96 -126 -6 2 -10 7
-10 11 1 4 1 16 1 26 0 11 22 52 49 93 31 45 46 77 40 82 -24 25 -121 -99
-135 -172 -17 -89 34 -118 97 -56 34 33 39 35 39 17 0 -24 36 -73 54 -73 7 0
32 10 57 22 26 13 67 23 99 25 30 1 58 2 63 3 4 0 7 6 7 14 0 21 -35 29 -87
21 l-45 -7 27 37 c16 20 62 67 103 104 54 49 73 73 69 85 -4 9 -14 15 -24 14
-10 -1 -51 -4 -91 -5z"/>
<path d="M451 4847 c-69 -107 -111 -235 -76 -231 11 1 17 12 69 127 20 43 45
91 56 107 11 15 20 35 20 44 0 34 -29 14 -69 -47z"/>
<path d="M2753 4888 c-49 -54 -132 -241 -120 -273 11 -28 26 -16 56 48 16 34
46 78 66 97 l36 35 -26 -57 c-51 -111 -31 -155 28 -61 19 32 52 74 73 93 32
31 35 32 19 8 -28 -45 -36 -97 -20 -135 15 -35 41 -44 52 -17 3 8 1 20 -6 27
-30 30 -5 101 60 176 41 46 45 56 29 66 -17 11 -49 -5 -106 -52 -33 -26 -51
-36 -45 -24 6 11 16 23 21 26 15 10 12 45 -5 45 -8 0 -40 -21 -72 -47 l-57
-46 27 46 c39 66 33 92 -10 45z"/>
<path d="M17954 4882 c-46 -34 -99 -108 -116 -163 -34 -114 64 -145 164 -51
55 51 72 77 62 93 -4 7 -24 -9 -50 -39 -93 -106 -173 -87 -114 28 24 47 85
110 106 110 13 0 11 -7 -7 -40 -29 -52 -16 -64 22 -22 24 27 29 41 27 70 -3
31 -7 37 -28 40 -16 2 -41 -8 -66 -26z"/>
<path d="M3340 4873 c-29 -38 -110 -201 -110 -224 0 -37 35 -20 67 34 17 28
48 68 68 87 l37 35 -23 -45 c-41 -82 -25 -196 26 -177 12 5 14 11 5 26 -26 50
-2 139 59 215 31 38 41 76 20 76 -17 0 -51 -20 -99 -59 l-45 -36 23 37 c35 56
12 81 -28 31z"/>
<path d="M8678 4875 c-68 -46 -128 -156 -128 -234 0 -106 108 -65 178 67 79
147 52 236 -50 167z m52 -49 c0 -13 -10 -36 -21 -51 -12 -14 -23 -41 -25 -58
-5 -40 -55 -93 -79 -83 -32 12 0 103 61 175 40 46 64 53 64 17z"/>
<path d="M10680 4882 c-45 -24 -114 -125 -130 -190 -9 -41 -9 -56 2 -79 20
-42 52 -42 94 2 28 30 34 33 34 17 0 -25 37 -72 56 -72 26 0 29 31 4 50 -20
15 -22 23 -16 59 3 23 16 62 27 86 26 56 32 111 12 130 -19 20 -41 19 -83 -3z
m54 -41 c7 -11 -79 -172 -101 -188 -70 -53 -49 74 27 160 30 35 62 47 74 28z"/>
<path d="M17781 4837 c-69 -107 -111 -235 -76 -231 11 1 17 12 69 127 20 43
45 91 56 107 11 15 20 35 20 44 0 34 -29 14 -69 -47z"/>
<path d="M8994 4854 c-21 -14 -59 -45 -83 -67 -44 -43 -43 -30 3 32 28 38 22
60 -12 42 -37 -20 -142 -223 -142 -276 0 -32 34 -10 64 42 36 60 103 143 116
143 5 0 7 -6 4 -13 -8 -23 23 -40 58 -33 38 7 98 51 98 72 0 18 -3 18 -42 -6
-34 -21 -68 -26 -68 -11 0 5 16 25 36 44 20 19 33 40 30 46 -10 16 -19 14 -62
-15z"/>
<path d="M10092 4873 c-69 -4 -73 -5 -70 -26 3 -19 9 -22 53 -22 l51 0 -68
-67 c-37 -37 -81 -87 -96 -112 -28 -43 -30 -45 -46 -28 -23 27 -20 75 10 133
14 28 24 58 22 67 -7 37 -35 14 -73 -60 -43 -83 -80 -131 -96 -126 -6 2 -10 7
-10 11 1 4 1 16 1 26 0 11 22 52 49 93 31 45 46 77 40 82 -24 25 -121 -99
-135 -172 -17 -89 34 -118 97 -56 34 33 39 35 39 17 0 -24 36 -73 54 -73 7 0
32 10 57 22 26 13 67 23 99 25 30 1 58 2 63 3 4 0 7 6 7 14 0 21 -35 29 -87
21 l-45 -7 27 37 c16 20 62 67 103 104 54 49 73 73 69 85 -4 9 -14 15 -24 14
-10 -1 -51 -4 -91 -5z"/>
<path d="M8154 4842 c-46 -34 -99 -108 -116 -163 -34 -114 64 -145 164 -51 55
51 72 77 62 93 -4 7 -24 -9 -50 -39 -93 -106 -173 -87 -114 28 24 47 85 110
106 110 13 0 11 -7 -7 -40 -29 -52 -16 -64 22 -22 24 27 29 41 27 70 -3 31 -7
37 -28 40 -16 2 -41 -8 -66 -26z"/>
<path d="M10293 4848 c-49 -54 -132 -241 -120 -273 11 -28 26 -16 56 48 16 34
46 78 66 97 l36 35 -26 -57 c-51 -111 -31 -155 28 -61 19 32 52 74 73 93 32
31 35 32 19 8 -28 -45 -36 -97 -20 -135 15 -35 41 -44 52 -17 3 8 1 20 -6 27
-30 30 -5 101 60 176 41 46 45 56 29 66 -17 11 -49 -5 -106 -52 -33 -26 -51
-36 -45 -24 6 11 16 23 21 26 15 10 12 45 -5 45 -8 0 -40 -21 -72 -47 l-57
-46 27 46 c39 66 33 92 -10 45z"/>
<path d="M12488 4845 c-68 -46 -128 -156 -128 -234 0 -106 108 -65 178 67 79
147 52 236 -50 167z m52 -49 c0 -13 -10 -36 -21 -51 -12 -14 -23 -41 -25 -58
-5 -40 -55 -93 -79 -83 -32 12 0 103 61 175 40 46 64 53 64 17z"/>
<path d="M4938 4835 c-68 -46 -128 -156 -128 -234 0 -106 108 -65 178 67 79
147 52 236 -50 167z m52 -49 c0 -13 -10 -36 -21 -51 -12 -14 -23 -41 -25 -58
-5 -40 -55 -93 -79 -83 -32 12 0 103 61 175 40 46 64 53 64 17z"/>
<path d="M7981 4797 c-69 -107 -111 -235 -76 -231 11 1 17 12 69 127 20 43 45
91 56 107 11 15 20 35 20 44 0 34 -29 14 -69 -47z"/>
<path d="M10880 4833 c-29 -38 -110 -201 -110 -224 0 -37 35 -20 67 34 17 28
48 68 68 87 l37 35 -23 -45 c-41 -82 -25 -196 26 -177 12 5 14 11 5 26 -26 50
-2 139 59 215 31 38 41 76 20 76 -17 0 -51 -20 -99 -59 l-45 -36 23 37 c35 56
12 81 -28 31z"/>
<path d="M11974 4822 c-46 -34 -99 -108 -116 -163 -34 -114 64 -145 164 -51
55 51 72 77 62 93 -4 7 -24 -9 -50 -39 -93 -106 -173 -87 -114 28 24 47 85
110 106 110 13 0 11 -7 -7 -40 -29 -52 -16 -64 22 -22 24 27 29 41 27 70 -3
31 -7 37 -28 40 -16 2 -41 -8 -66 -26z"/>
<path d="M12804 4824 c-21 -14 -59 -45 -83 -67 -44 -43 -43 -30 3 32 28 38 22
60 -12 42 -37 -20 -142 -223 -142 -276 0 -32 34 -10 64 42 36 60 103 143 116
143 5 0 7 -6 4 -13 -8 -23 23 -40 58 -33 38 7 98 51 98 72 0 18 -3 18 -42 -6
-34 -21 -68 -26 -68 -11 0 5 16 25 36 44 20 19 33 40 30 46 -10 16 -19 14 -62
-15z"/>
<path d="M4434 4812 c-46 -34 -99 -108 -116 -163 -34 -114 64 -145 164 -51 55
51 72 77 62 93 -4 7 -24 -9 -50 -39 -93 -106 -173 -87 -114 28 24 47 85 110
106 110 13 0 11 -7 -7 -40 -29 -52 -16 -64 22 -22 24 27 29 41 27 70 -3 31 -7
37 -28 40 -16 2 -41 -8 -66 -26z"/>
<path d="M5254 4814 c-21 -14 -59 -45 -83 -67 -44 -43 -43 -30 3 32 28 38 22
60 -12 42 -37 -20 -142 -223 -142 -276 0 -32 34 -10 64 42 36 60 103 143 116
143 5 0 7 -6 4 -13 -8 -23 23 -40 58 -33 38 7 98 51 98 72 0 18 -3 18 -42 -6
-34 -21 -68 -26 -68 -11 0 5 16 25 36 44 20 19 33 40 30 46 -10 16 -19 14 -62
-15z"/>
<path d="M11801 4777 c-69 -107 -111 -235 -76 -231 11 1 17 12 69 127 20 43
45 91 56 107 11 15 20 35 20 44 0 34 -29 14 -69 -47z"/>
<path d="M4261 4767 c-69 -107 -111 -235 -76 -231 11 1 17 12 69 127 20 43 45
91 56 107 11 15 20 35 20 44 0 34 -29 14 -69 -47z"/>
<path d="M2144 4241 c-23 -11 -77 -52 -119 -93 -199 -188 -289 -415 -192 -483
31 -22 58 -19 120 14 l55 29 -59 -114 c-55 -105 -72 -167 -53 -187 14 -14 41
14 53 53 19 64 73 177 124 262 26 42 47 84 47 92 0 25 -34 19 -61 -10 -38 -40
-139 -104 -165 -104 -14 0 -30 10 -39 24 -14 20 -14 31 -5 67 29 105 114 233
228 341 94 89 162 113 162 58 0 -35 -30 -82 -98 -153 -47 -48 -63 -70 -55 -78
18 -18 49 -1 107 62 58 62 94 145 80 185 -20 56 -60 67 -130 35z"/>
<path d="M17671 4223 c-92 -183 -173 -590 -127 -636 38 -37 35 -41 180 204 75
127 200 314 268 402 23 29 15 53 -14 42 -34 -13 -235 -306 -344 -500 -49 -88
-49 -88 -52 -51 -7 77 48 293 120 475 16 41 27 80 24 88 -10 25 -35 13 -55
-24z"/>
<path d="M171 4213 c-92 -183 -173 -590 -127 -636 38 -37 35 -41 180 204 75
127 200 314 268 402 23 29 15 53 -14 42 -34 -13 -235 -306 -344 -500 -49 -88
-49 -88 -52 -51 -7 77 48 293 120 475 16 41 27 80 24 88 -10 25 -35 13 -55
-24z"/>
<path d="M9854 4221 c-23 -11 -77 -52 -119 -93 -199 -188 -289 -415 -192 -483
31 -22 58 -19 120 14 l55 29 -59 -114 c-66 -128 -72 -154 -34 -154 15 0 28 7
32 18 23 67 80 186 122 257 28 46 51 91 51 100 0 24 -34 18 -61 -11 -38 -40
-139 -104 -165 -104 -14 0 -30 10 -39 24 -14 20 -14 31 -5 67 29 105 114 233
228 341 94 89 162 113 162 58 0 -35 -30 -82 -98 -153 -47 -48 -63 -70 -55 -78
18 -18 49 -1 107 62 58 62 94 145 80 185 -20 56 -60 67 -130 35z"/>
<path d="M7871 4183 c-92 -183 -173 -590 -127 -636 38 -37 35 -41 180 204 75
127 200 314 268 402 23 29 15 53 -14 42 -34 -13 -235 -306 -344 -500 -49 -88
-49 -88 -52 -51 -7 77 48 293 120 475 16 41 27 80 24 88 -10 25 -35 13 -55
-24z"/>
<path d="M11541 4173 c-92 -183 -173 -590 -127 -636 38 -37 35 -41 180 204 75
127 200 314 268 402 23 29 15 53 -14 42 -34 -13 -235 -306 -344 -500 -49 -88
-49 -88 -52 -51 -7 77 48 293 120 475 16 41 27 80 24 88 -10 25 -35 13 -55
-24z"/>
<path d="M3891 4163 c-92 -183 -173 -590 -127 -636 38 -37 35 -41 180 204 75
127 200 314 268 402 23 29 15 53 -14 42 -34 -13 -235 -306 -344 -500 -49 -88
-49 -88 -52 -51 -7 77 48 293 120 475 16 41 27 80 24 88 -10 25 -35 13 -55
-24z"/>
<path d="M17196 4178 c15 -28 48 -58 63 -58 10 0 3 12 -19 35 -33 34 -58 47
-44 23z"/>
<path d="M7396 4138 c15 -28 48 -58 63 -58 10 0 3 12 -19 35 -33 34 -58 47
-44 23z"/>
<path d="M13364 4078 c-181 -188 -252 -389 -161 -453 31 -22 58 -19 120 14
l55 29 -59 -114 c-32 -62 -59 -120 -59 -129 0 -10 10 -15 28 -15 25 0 31 6 40
38 6 21 34 82 62 137 38 74 50 109 50 142 l0 44 -42 -34 c-99 -80 -146 -94
-173 -53 -14 20 -14 31 -5 67 25 90 95 205 182 295 32 34 39 47 36 74 l-3 32
-71 -74z"/>
<path d="M15239 4123 c-13 -16 -12 -17 4 -4 16 13 21 21 13 21 -2 0 -10 -8
-17 -17z"/>
<path d="M3211 4079 c-42 -53 -51 -79 -28 -79 24 0 104 110 90 124 -12 12 -22
5 -62 -45z"/>
<path d="M938 4045 c-38 -56 -48 -65 -83 -73 -30 -6 -40 -12 -40 -27 0 -14 7
-20 23 -19 12 0 21 -2 19 -5 -95 -173 -107 -281 -32 -281 46 0 154 122 140
158 -6 15 -9 14 -23 -8 -10 -14 -32 -42 -51 -62 -88 -99 -90 10 -3 160 38 66
34 63 160 98 31 9 3 29 -37 27 -22 -1 -41 1 -41 4 0 3 9 18 21 34 20 29 20 59
-1 59 -5 0 -29 -29 -52 -65z"/>
<path d="M10921 4059 c-42 -53 -51 -79 -28 -79 24 0 104 110 90 124 -12 12
-22 5 -62 -45z"/>
<path d="M18031 4084 c-25 -32 -27 -52 -4 -61 20 -8 66 41 61 66 -5 26 -34 24
-57 -5z"/>
<path d="M531 4074 c-25 -32 -27 -52 -4 -61 20 -8 66 41 61 66 -5 26 -34 24
-57 -5z"/>
<path d="M5439 4083 c-13 -16 -12 -17 4 -4 9 7 17 15 17 17 0 8 -8 3 -21 -13z"/>
<path d="M8648 4025 c-38 -56 -48 -65 -83 -73 -30 -6 -40 -12 -40 -27 0 -14 7
-20 23 -19 12 0 21 -2 19 -5 -95 -173 -107 -281 -32 -281 46 0 154 122 140
158 -6 15 -9 14 -23 -8 -10 -14 -32 -42 -51 -62 -88 -99 -90 10 -3 160 38 66
34 63 160 98 31 9 3 29 -37 27 -22 -1 -41 1 -41 4 0 3 9 18 21 34 20 29 20 59
-1 59 -5 0 -29 -29 -52 -65z"/>
<path d="M8231 4044 c-25 -32 -27 -52 -4 -61 20 -8 66 41 61 66 -5 26 -34 24
-57 -5z"/>
<path d="M12308 4005 c-38 -56 -48 -65 -83 -73 -30 -6 -40 -12 -40 -27 0 -14
7 -20 23 -19 12 0 21 -2 19 -5 -95 -173 -107 -281 -32 -281 46 0 154 122 140
158 -6 15 -9 14 -23 -8 -10 -14 -32 -42 -51 -62 -88 -99 -90 10 -3 160 38 66
34 63 160 98 31 9 3 29 -37 27 -22 -1 -41 1 -41 4 0 3 9 18 21 34 20 29 20 59
-1 59 -5 0 -29 -29 -52 -65z"/>
<path d="M4658 3995 c-38 -56 -48 -65 -83 -73 -30 -6 -40 -12 -40 -27 0 -14 7
-20 23 -19 12 0 21 -2 19 -5 -95 -173 -107 -281 -32 -281 46 0 154 122 140
158 -6 15 -9 14 -23 -8 -10 -14 -32 -42 -51 -62 -88 -99 -90 10 -3 160 38 66
34 63 160 98 31 9 3 29 -37 27 -22 -1 -41 1 -41 4 0 3 9 18 21 34 20 29 20 59
-1 59 -5 0 -29 -29 -52 -65z"/>
<path d="M11901 4034 c-25 -32 -27 -52 -4 -61 20 -8 66 41 61 66 -5 26 -34 24
-57 -5z"/>
<path d="M4251 4024 c-25 -32 -27 -52 -4 -61 20 -8 66 41 61 66 -5 26 -34 24
-57 -5z"/>
<path d="M15240 4010 c0 -6 -9 -20 -20 -32 -11 -12 -20 -27 -20 -32 0 -6 14 3
30 21 30 32 38 53 20 53 -5 0 -10 -5 -10 -10z"/>
<path d="M5440 3970 c0 -6 -9 -20 -20 -32 -11 -12 -20 -27 -20 -32 0 -6 14 3
30 21 30 32 38 53 20 53 -5 0 -10 -5 -10 -10z"/>
<path d="M1108 3925 c-68 -46 -128 -156 -128 -234 0 -106 108 -65 178 67 79
147 52 236 -50 167z m52 -49 c0 -13 -10 -36 -21 -51 -12 -14 -23 -41 -25 -58
-5 -40 -55 -93 -79 -83 -32 12 0 103 61 175 40 46 64 53 64 17z"/>
<path d="M3110 3932 c-45 -24 -114 -125 -130 -190 -9 -41 -9 -56 2 -79 20 -42
52 -42 94 2 28 30 34 33 34 17 0 -25 37 -72 56 -72 26 0 29 31 4 50 -20 15
-22 23 -16 59 3 23 16 62 27 86 26 56 32 111 12 130 -19 20 -41 19 -83 -3z
m54 -41 c7 -11 -79 -172 -101 -188 -70 -53 -49 74 27 160 30 35 62 47 74 28z"/>
<path d="M594 3902 c-46 -34 -99 -108 -116 -163 -34 -114 64 -145 164 -51 55
51 72 77 62 93 -4 7 -24 -9 -50 -39 -93 -106 -173 -87 -114 28 24 47 85 110
106 110 13 0 11 -7 -7 -40 -29 -52 -16 -64 22 -22 24 27 29 41 27 70 -3 31 -7
37 -28 40 -16 2 -41 -8 -66 -26z"/>
<path d="M1424 3904 c-21 -14 -59 -45 -83 -67 -44 -43 -43 -30 3 32 28 38 22
60 -12 42 -37 -20 -142 -223 -142 -276 0 -32 34 -10 64 42 36 60 103 143 116
143 5 0 7 -6 4 -13 -8 -23 23 -40 58 -33 38 7 98 51 98 72 0 18 -3 18 -42 -6
-34 -21 -68 -26 -68 -11 0 5 16 25 36 44 20 19 33 40 30 46 -10 16 -19 14 -62
-15z"/>
<path d="M2522 3923 c-69 -4 -73 -5 -70 -26 3 -19 9 -22 53 -22 l51 0 -68 -67
c-37 -37 -81 -87 -96 -112 -28 -43 -30 -45 -46 -28 -23 27 -20 75 10 133 14
28 24 58 22 67 -7 37 -35 14 -73 -60 -43 -83 -80 -131 -96 -126 -6 2 -10 7
-10 11 1 4 1 16 1 26 0 11 22 52 49 93 31 45 46 77 40 82 -24 25 -121 -99
-135 -172 -17 -89 34 -118 97 -56 34 33 39 35 39 17 0 -24 36 -73 54 -73 7 0
32 10 57 22 26 13 67 23 99 25 30 1 58 2 63 3 4 0 7 6 7 14 0 21 -35 29 -87
21 l-45 -7 27 37 c16 20 62 67 103 104 54 49 73 73 69 85 -4 9 -14 15 -24 14
-10 -1 -51 -4 -91 -5z"/>
<path d="M8818 3905 c-68 -46 -128 -156 -128 -234 0 -106 108 -65 178 67 79
147 52 236 -50 167z m52 -49 c0 -13 -10 -36 -21 -51 -12 -14 -23 -41 -25 -58
-5 -40 -55 -93 -79 -83 -32 12 0 103 61 175 40 46 64 53 64 17z"/>
<path d="M10820 3912 c-45 -24 -114 -125 -130 -190 -9 -41 -9 -56 2 -79 20
-42 52 -42 94 2 28 30 34 33 34 17 0 -25 37 -72 56 -72 26 0 29 31 4 50 -20
15 -22 23 -16 59 3 23 16 62 27 86 26 56 32 111 12 130 -19 20 -41 19 -83 -3z
m54 -41 c7 -11 -79 -172 -101 -188 -70 -53 -49 74 27 160 30 35 62 47 74 28z"/>
<path d="M17921 3867 c-69 -107 -111 -235 -76 -231 11 1 17 12 69 127 20 43
45 91 56 107 11 15 20 35 20 44 0 34 -29 14 -69 -47z"/>
<path d="M421 3857 c-69 -107 -111 -235 -76 -231 11 1 17 12 69 127 20 43 45
91 56 107 11 15 20 35 20 44 0 34 -29 14 -69 -47z"/>
<path d="M2723 3898 c-49 -54 -132 -241 -120 -273 11 -28 26 -16 56 48 16 34
46 78 66 97 l36 35 -26 -57 c-51 -111 -31 -155 28 -61 19 32 52 74 73 93 32
31 35 32 19 8 -28 -45 -36 -97 -20 -135 15 -35 41 -44 52 -17 3 8 1 20 -6 27
-30 30 -5 101 60 176 41 46 45 56 29 66 -17 11 -49 -5 -106 -52 -33 -26 -51
-36 -45 -24 6 11 16 23 21 26 15 10 12 45 -5 45 -8 0 -40 -21 -72 -47 l-57
-46 27 46 c39 66 33 92 -10 45z"/>
<path d="M3310 3883 c-29 -38 -110 -201 -110 -224 0 -37 35 -20 67 34 17 28
48 68 68 87 l37 35 -23 -45 c-41 -82 -25 -196 26 -177 12 5 14 11 5 26 -26 50
-2 139 59 215 31 38 41 76 20 76 -17 0 -51 -20 -99 -59 l-45 -36 23 37 c35 56
12 81 -28 31z"/>
<path d="M8328 3899 c-10 -5 -18 -21 -18 -34 0 -25 14 -33 25 -15 3 6 13 10
21 10 12 0 11 -8 -7 -40 -29 -52 -16 -64 22 -22 24 27 29 41 27 70 -3 31 -7
37 -28 39 -14 2 -33 -2 -42 -8z"/>
<path d="M9134 3884 c-21 -14 -59 -45 -83 -67 -44 -43 -43 -30 3 32 28 38 22
60 -12 42 -37 -20 -142 -223 -142 -276 0 -32 34 -10 64 42 36 60 103 143 116
143 5 0 7 -6 4 -13 -8 -23 23 -40 58 -33 38 7 98 51 98 72 0 18 -3 18 -42 -6
-34 -21 -68 -26 -68 -11 0 5 16 25 36 44 20 19 33 40 30 46 -10 16 -19 14 -62
-15z"/>
<path d="M10232 3903 c-69 -4 -73 -5 -70 -26 3 -19 9 -22 53 -22 l51 0 -68
-67 c-37 -37 -81 -87 -96 -112 -28 -43 -30 -45 -46 -28 -23 27 -20 75 10 133
14 28 24 58 22 67 -7 37 -35 14 -73 -60 -43 -83 -80 -131 -96 -126 -6 2 -10 7
-10 11 1 4 1 16 1 26 0 11 22 52 49 93 31 45 46 77 40 82 -24 25 -121 -99
-135 -172 -17 -89 34 -118 97 -56 34 33 39 35 39 17 0 -24 36 -73 54 -73 7 0
32 10 57 22 26 13 67 23 99 25 30 1 58 2 63 3 4 0 7 6 7 14 0 21 -35 29 -87
21 l-45 -7 27 37 c16 20 62 67 103 104 54 49 73 73 69 85 -4 9 -14 15 -24 14
-10 -1 -51 -4 -91 -5z"/>
<path d="M12478 3885 c-68 -46 -128 -156 -128 -234 0 -106 108 -65 178 67 79
147 52 236 -50 167z m52 -49 c0 -13 -10 -36 -21 -51 -12 -14 -23 -41 -25 -58
-5 -40 -55 -93 -79 -83 -32 12 0 103 61 175 40 46 64 53 64 17z"/>
<path d="M18048 3869 c-73 -88 -96 -171 -58 -209 30 -30 100 -23 100 10 0 14
-7 18 -32 16 -53 -2 -52 45 2 126 21 31 30 57 28 75 l-3 28 -37 -46z"/>
<path d="M10433 3878 c-49 -54 -132 -241 -120 -273 11 -28 26 -16 56 48 16 34
46 78 66 97 l36 35 -26 -57 c-51 -111 -31 -155 28 -61 19 32 52 74 73 93 32
31 35 32 19 8 -28 -45 -36 -97 -20 -135 15 -35 41 -44 52 -17 3 8 1 20 -6 27
-30 30 -5 101 60 176 41 46 45 56 29 66 -17 11 -49 -5 -106 -52 -33 -26 -51
-36 -45 -24 6 11 16 23 21 26 15 10 12 45 -5 45 -8 0 -40 -21 -72 -47 l-57
-46 27 46 c39 66 33 92 -10 45z"/>
<path d="M4830 3874 c-33 -21 -96 -111 -115 -165 -18 -50 -19 -111 -3 -127 36
-36 101 12 157 118 73 136 51 230 -39 174z m40 -58 c0 -13 -10 -36 -21 -51
-12 -14 -23 -40 -25 -57 -9 -72 -81 -119 -78 -51 4 85 124 239 124 159z"/>
<path d="M8121 3827 c-69 -107 -111 -235 -76 -231 11 1 17 12 69 127 20 43 45
91 56 107 11 15 20 35 20 44 0 34 -29 14 -69 -47z"/>
<path d="M11020 3863 c-29 -38 -110 -201 -110 -224 0 -37 35 -20 67 34 17 28
48 68 68 87 l37 35 -23 -45 c-41 -82 -25 -196 26 -177 12 5 14 11 5 26 -26 50
-2 139 59 215 31 38 41 76 20 76 -17 0 -51 -20 -99 -59 l-45 -36 23 37 c35 56
12 81 -28 31z"/>
<path d="M11964 3862 c-46 -34 -99 -108 -116 -163 -34 -114 64 -145 164 -51
55 51 72 77 62 93 -4 7 -24 -9 -50 -39 -93 -106 -173 -87 -114 28 24 47 85
110 106 110 13 0 11 -7 -7 -40 -29 -52 -16 -64 22 -22 24 27 29 41 27 70 -3
31 -7 37 -28 40 -16 2 -41 -8 -66 -26z"/>
<path d="M12794 3864 c-21 -14 -59 -45 -83 -67 -44 -43 -43 -30 3 32 28 38 22
60 -12 42 -37 -20 -142 -223 -142 -276 0 -32 34 -10 64 42 36 60 103 143 116
143 5 0 7 -6 4 -13 -8 -23 23 -40 58 -33 38 7 98 51 98 72 0 18 -3 18 -42 -6
-34 -21 -68 -26 -68 -11 0 5 16 25 36 44 20 19 33 40 30 46 -10 16 -19 14 -62
-15z"/>
<path d="M4314 3852 c-46 -34 -99 -108 -116 -163 -34 -114 64 -145 164 -51 55
51 72 77 62 93 -4 7 -24 -9 -50 -39 -93 -106 -173 -87 -114 28 24 47 85 110
106 110 13 0 11 -7 -7 -40 -29 -52 -16 -64 22 -22 24 27 29 41 27 70 -3 31 -7
37 -28 40 -16 2 -41 -8 -66 -26z"/>
<path d="M11791 3817 c-69 -107 -111 -235 -76 -231 11 1 17 12 69 127 20 43
45 91 56 107 11 15 20 35 20 44 0 34 -29 14 -69 -47z"/>
<path d="M4141 3807 c-69 -107 -111 -235 -76 -231 11 1 17 12 69 127 20 43 45
91 56 107 11 15 20 35 20 44 0 34 -29 14 -69 -47z"/>
<path d="M5124 3844 c-21 -14 -59 -45 -83 -67 -44 -43 -43 -30 3 32 28 38 22
60 -12 42 -34 -18 -147 -269 -129 -287 14 -14 37 8 72 73 37 67 81 123 97 123
4 0 5 -6 2 -13 -3 -8 2 -20 10 -27 23 -18 79 -5 110 27 26 26 34 53 16 53 -5
0 -10 -4 -10 -8 0 -10 -45 -32 -65 -32 -24 0 -18 15 21 53 20 19 33 40 30 46
-10 16 -19 14 -62 -15z"/>
<path d="M8248 3829 c-73 -88 -96 -171 -58 -209 30 -30 100 -23 100 10 0 14
-7 18 -32 16 -53 -2 -52 45 2 126 21 31 30 57 28 75 l-3 28 -37 -46z"/>
<path d="M8357 3715 c-63 -72 -64 -106 -1 -45 52 52 69 79 57 91 -4 4 -29 -16
-56 -46z"/>
<path d="M10324 3331 c-23 -11 -77 -52 -119 -93 -199 -188 -289 -415 -192
-483 31 -22 58 -19 120 14 l55 29 -59 -114 c-55 -105 -72 -167 -53 -187 14
-14 41 14 53 53 19 64 73 177 124 262 26 42 47 84 47 92 0 25 -34 19 -61 -10
-38 -40 -139 -104 -165 -104 -14 0 -30 10 -39 24 -14 20 -14 31 -5 67 29 105
114 233 228 341 94 89 162 113 162 58 0 -35 -30 -82 -98 -153 -47 -48 -63 -70
-55 -78 18 -18 49 -1 107 62 58 62 94 145 80 185 -20 56 -60 67 -130 35z"/>
<path d="M8339 3275 c-25 -56 -29 -76 -28 -147 0 -71 2 -79 11 -53 6 17 28 78
50 137 22 59 37 112 33 118 -15 25 -38 6 -66 -55z"/>
<path d="M11941 3293 c-92 -183 -173 -590 -127 -636 38 -37 35 -41 180 204 75
127 200 314 268 402 23 29 15 53 -14 42 -34 -13 -235 -306 -344 -500 -49 -88
-49 -88 -52 -51 -7 77 48 293 120 475 16 41 27 80 24 88 -10 25 -35 13 -55
-24z"/>
<path d="M8630 3288 c-46 -49 -169 -228 -249 -360 -61 -101 -71 -123 -71 -164
l0 -48 93 156 c91 150 192 302 256 382 17 22 30 44 28 50 -7 22 -28 16 -57
-16z"/>
<path d="M11391 3169 c-42 -53 -51 -79 -28 -79 24 0 104 110 90 124 -12 12
-22 5 -62 -45z"/>
<path d="M2144 3181 c-23 -11 -77 -52 -119 -93 -199 -188 -289 -415 -192 -483
31 -22 58 -19 120 14 l55 29 -59 -114 c-55 -105 -72 -167 -53 -187 14 -14 41
14 53 53 19 64 73 177 124 262 26 42 47 84 47 92 0 25 -34 19 -61 -10 -38 -40
-139 -104 -165 -104 -14 0 -30 10 -39 24 -14 20 -14 31 -5 67 29 105 114 233
228 341 94 89 162 113 162 58 0 -35 -30 -82 -98 -153 -47 -48 -63 -70 -55 -78
18 -18 49 -1 107 62 58 62 94 145 80 185 -20 56 -60 67 -130 35z"/>
<path d="M9118 3135 c-38 -56 -48 -65 -83 -73 -30 -6 -40 -12 -40 -27 0 -14 7
-20 23 -19 12 0 21 -2 19 -5 -95 -173 -107 -281 -32 -281 46 0 154 122 140
158 -6 15 -9 14 -23 -8 -10 -14 -32 -42 -51 -62 -88 -99 -90 10 -3 160 38 66
34 63 160 98 31 9 3 29 -37 27 -22 -1 -41 1 -41 4 0 3 9 18 21 34 20 29 20 59
-1 59 -5 0 -29 -29 -52 -65z"/>
<path d="M171 3153 c-92 -183 -173 -590 -127 -636 38 -37 35 -41 180 204 75
127 200 314 268 402 23 29 15 53 -14 42 -34 -13 -235 -306 -344 -500 -49 -88
-49 -88 -52 -51 -7 77 48 293 120 475 16 41 27 80 24 88 -10 25 -35 13 -55
-24z"/>
<path d="M8711 3164 c-25 -32 -27 -52 -4 -61 20 -8 66 41 61 66 -5 26 -34 24
-57 -5z"/>
<path d="M12708 3125 c-38 -56 -48 -65 -83 -73 -30 -6 -40 -12 -40 -27 0 -14
7 -20 23 -19 12 0 21 -2 19 -5 -95 -173 -107 -281 -32 -281 46 0 154 122 140
158 -6 15 -9 14 -23 -8 -10 -14 -32 -42 -51 -62 -88 -99 -90 10 -3 160 38 66
34 63 160 98 31 9 3 29 -37 27 -22 -1 -41 1 -41 4 0 3 9 18 21 34 20 29 20 59
-1 59 -5 0 -29 -29 -52 -65z"/>
<path d="M18061 3110 c-75 -270 -81 -430 -16 -430 24 0 45 43 45 90 l0 45 -20
-30 -20 -30 0 43 c0 24 9 89 20 144 13 63 20 128 18 177 l-3 76 -24 -85z"/>
<path d="M12301 3154 c-25 -32 -27 -52 -4 -61 20 -8 66 41 61 66 -5 26 -34 24
-57 -5z"/>
<path d="M8261 3070 c-75 -270 -81 -430 -16 -430 24 0 45 43 45 90 l0 45 -20
-30 -20 -30 0 43 c0 24 9 89 20 144 13 63 20 128 18 177 l-3 76 -24 -85z"/>
<path d="M3871 3103 c-92 -183 -173 -590 -127 -636 38 -37 35 -41 180 204 75
127 200 314 268 402 23 29 15 53 -14 42 -34 -13 -235 -306 -344 -500 -49 -88
-49 -88 -52 -51 -7 77 48 293 120 475 16 41 27 80 24 88 -10 25 -35 13 -55
-24z"/>
<path d="M3211 3019 c-42 -53 -51 -79 -28 -79 24 0 104 110 90 124 -12 12 -22
5 -62 -45z"/>
<path d="M938 2985 c-38 -56 -48 -65 -83 -73 -30 -6 -40 -12 -40 -27 0 -14 7
-20 23 -19 12 0 21 -2 19 -5 -95 -173 -107 -281 -32 -281 46 0 154 122 140
158 -6 15 -9 14 -23 -8 -10 -14 -32 -42 -51 -62 -88 -99 -90 10 -3 160 38 66
34 63 160 98 31 9 3 29 -37 27 -22 -1 -41 1 -41 4 0 3 9 18 21 34 20 29 20 59
-1 59 -5 0 -29 -29 -52 -65z"/>
<path d="M531 3014 c-25 -32 -27 -52 -4 -61 20 -8 66 41 61 66 -5 26 -34 24
-57 -5z"/>
<path d="M9288 3015 c-68 -46 -128 -156 -128 -234 0 -106 108 -65 178 67 79
147 52 236 -50 167z m52 -49 c0 -13 -10 -36 -21 -51 -12 -14 -23 -41 -25 -58
-5 -40 -55 -93 -79 -83 -32 12 0 103 61 175 40 46 64 53 64 17z"/>
<path d="M11290 3022 c-45 -24 -114 -125 -130 -190 -9 -41 -9 -56 2 -79 20
-42 52 -42 94 2 28 30 34 33 34 17 0 -25 37 -72 56 -72 26 0 29 31 4 50 -20
15 -22 23 -16 59 3 23 16 62 27 86 26 56 32 111 12 130 -19 20 -41 19 -83 -3z
m54 -41 c7 -11 -79 -172 -101 -188 -70 -53 -49 74 27 160 30 35 62 47 74 28z"/>
<path d="M12878 3005 c-68 -46 -128 -156 -128 -234 0 -106 108 -65 178 67 79
147 52 236 -50 167z m52 -49 c0 -13 -10 -36 -21 -51 -12 -14 -23 -41 -25 -58
-5 -40 -55 -93 -79 -83 -32 12 0 103 61 175 40 46 64 53 64 17z"/>
<path d="M8774 2992 c-46 -34 -99 -108 -116 -163 -34 -114 64 -145 164 -51 55
51 72 77 62 93 -4 7 -24 -9 -50 -39 -93 -106 -173 -87 -114 28 24 47 85 110
106 110 13 0 11 -7 -7 -40 -29 -52 -16 -64 22 -22 24 27 29 41 27 70 -3 31 -7
37 -28 40 -16 2 -41 -8 -66 -26z"/>
<path d="M9604 2994 c-21 -14 -59 -45 -83 -67 -44 -43 -43 -30 3 32 28 38 22
60 -12 42 -37 -20 -142 -223 -142 -276 0 -32 34 -10 64 42 36 60 103 143 116
143 5 0 7 -6 4 -13 -8 -23 23 -40 58 -33 38 7 98 51 98 72 0 18 -3 18 -42 -6
-34 -21 -68 -26 -68 -11 0 5 16 25 36 44 20 19 33 40 30 46 -10 16 -19 14 -62
-15z"/>
<path d="M10702 3013 c-69 -4 -73 -5 -70 -26 3 -19 9 -22 53 -22 l51 0 -68
-67 c-37 -37 -81 -87 -96 -112 -28 -43 -30 -45 -46 -28 -23 27 -20 75 10 133
14 28 24 58 22 67 -7 37 -35 14 -73 -60 -43 -83 -80 -131 -96 -126 -6 2 -10 7
-10 11 1 4 1 16 1 26 0 11 22 52 49 93 31 45 46 77 40 82 -24 25 -121 -99
-135 -172 -17 -89 34 -118 97 -56 34 33 39 35 39 17 0 -24 36 -73 54 -73 7 0
32 10 57 22 26 13 67 23 99 25 30 1 58 2 63 3 4 0 7 6 7 14 0 21 -35 29 -87
21 l-45 -7 27 37 c16 20 62 67 103 104 54 49 73 73 69 85 -4 9 -14 15 -24 14
-10 -1 -51 -4 -91 -5z"/>
<path d="M8601 2947 c-69 -107 -111 -235 -76 -231 11 1 17 12 69 127 20 43 45
91 56 107 11 15 20 35 20 44 0 34 -29 14 -69 -47z"/>
<path d="M10903 2988 c-49 -54 -132 -241 -120 -273 11 -28 26 -16 56 48 16 34
46 78 66 97 l36 35 -26 -57 c-51 -111 -31 -155 28 -61 19 32 52 74 73 93 32
31 35 32 19 8 -28 -45 -36 -97 -20 -135 15 -35 41 -44 52 -17 3 8 1 20 -6 27
-30 30 -5 101 60 176 41 46 45 56 29 66 -17 11 -49 -5 -106 -52 -33 -26 -51
-36 -45 -24 6 11 16 23 21 26 15 10 12 45 -5 45 -8 0 -40 -21 -72 -47 l-57
-46 27 46 c39 66 33 92 -10 45z"/>
<path d="M12364 2982 c-46 -34 -99 -108 -116 -163 -34 -114 64 -145 164 -51
55 51 72 77 62 93 -4 7 -24 -9 -50 -39 -93 -106 -173 -87 -114 28 24 47 85
110 106 110 13 0 11 -7 -7 -40 -29 -52 -16 -64 22 -22 24 27 29 41 27 70 -3
31 -7 37 -28 40 -16 2 -41 -8 -66 -26z"/>
<path d="M13194 2984 c-21 -14 -59 -45 -83 -67 -44 -43 -43 -30 3 32 28 38 22
60 -12 42 -37 -20 -142 -223 -142 -276 0 -32 34 -10 64 42 36 60 103 143 116
143 5 0 7 -6 4 -13 -8 -23 23 -40 58 -33 38 7 98 51 98 72 0 18 -3 18 -42 -6
-34 -21 -68 -26 -68 -11 0 5 16 25 36 44 20 19 33 40 30 46 -10 16 -19 14 -62
-15z"/>
<path d="M4638 2935 c-38 -56 -48 -65 -83 -73 -30 -6 -40 -12 -40 -27 0 -14 7
-20 23 -19 12 0 21 -2 19 -5 -95 -173 -107 -281 -32 -281 46 0 154 122 140
158 -6 15 -9 14 -23 -8 -10 -14 -32 -42 -51 -62 -88 -99 -90 10 -3 160 38 66
34 63 160 98 31 9 3 29 -37 27 -22 -1 -41 1 -41 4 0 3 9 18 21 34 20 29 20 59
-1 59 -5 0 -29 -29 -52 -65z"/>
<path d="M11490 2973 c-29 -38 -110 -201 -110 -224 0 -37 35 -20 67 34 17 28
48 68 68 87 l37 35 -23 -45 c-41 -82 -25 -196 26 -177 12 5 14 11 5 26 -26 50
-2 139 59 215 31 38 41 76 20 76 -17 0 -51 -20 -99 -59 l-45 -36 23 37 c35 56
12 81 -28 31z"/>
<path d="M12191 2937 c-69 -107 -111 -235 -76 -231 11 1 17 12 69 127 20 43
45 91 56 107 11 15 20 35 20 44 0 34 -29 14 -69 -47z"/>
<path d="M4231 2964 c-25 -32 -27 -52 -4 -61 20 -8 66 41 61 66 -5 26 -34 24
-57 -5z"/>
<path d="M1108 2865 c-68 -46 -128 -156 -128 -234 0 -106 108 -65 178 67 79
147 52 236 -50 167z m52 -49 c0 -13 -10 -36 -21 -51 -12 -14 -23 -41 -25 -58
-5 -40 -55 -93 -79 -83 -32 12 0 103 61 175 40 46 64 53 64 17z"/>
<path d="M3110 2872 c-45 -24 -114 -125 -130 -190 -9 -41 -9 -56 2 -79 20 -42
52 -42 94 2 28 30 34 33 34 17 0 -25 37 -72 56 -72 26 0 29 31 4 50 -20 15
-22 23 -16 59 3 23 16 62 27 86 26 56 32 111 12 130 -19 20 -41 19 -83 -3z
m54 -41 c7 -11 -79 -172 -101 -188 -70 -53 -49 74 27 160 30 35 62 47 74 28z"/>
<path d="M594 2842 c-46 -34 -99 -108 -116 -163 -34 -114 64 -145 164 -51 55
51 72 77 62 93 -4 7 -24 -9 -50 -39 -93 -106 -173 -87 -114 28 24 47 85 110
106 110 13 0 11 -7 -7 -40 -29 -52 -16 -64 22 -22 24 27 29 41 27 70 -3 31 -7
37 -28 40 -16 2 -41 -8 -66 -26z"/>
<path d="M1424 2844 c-21 -14 -59 -45 -83 -67 -44 -43 -43 -30 3 32 28 38 22
60 -12 42 -37 -20 -142 -223 -142 -276 0 -32 34 -10 64 42 36 60 103 143 116
143 5 0 7 -6 4 -13 -8 -23 23 -40 58 -33 38 7 98 51 98 72 0 18 -3 18 -42 -6
-34 -21 -68 -26 -68 -11 0 5 16 25 36 44 20 19 33 40 30 46 -10 16 -19 14 -62
-15z"/>
<path d="M2522 2863 c-69 -4 -73 -5 -70 -26 3 -19 9 -22 53 -22 l51 0 -68 -67
c-37 -37 -81 -87 -96 -112 -28 -43 -30 -45 -46 -28 -23 27 -20 75 10 133 14
28 24 58 22 67 -7 37 -35 14 -73 -60 -43 -83 -80 -131 -96 -126 -6 2 -10 7
-10 11 1 4 1 16 1 26 0 11 22 52 49 93 31 45 46 77 40 82 -24 25 -121 -99
-135 -172 -17 -89 34 -118 97 -56 34 33 39 35 39 17 0 -24 36 -73 54 -73 7 0
32 10 57 22 26 13 67 23 99 25 30 1 58 2 63 3 4 0 7 6 7 14 0 21 -35 29 -87
21 l-45 -7 27 37 c16 20 62 67 103 104 54 49 73 73 69 85 -4 9 -14 15 -24 14
-10 -1 -51 -4 -91 -5z"/>
<path d="M421 2797 c-69 -107 -111 -235 -76 -231 11 1 17 12 69 127 20 43 45
91 56 107 11 15 20 35 20 44 0 34 -29 14 -69 -47z"/>
<path d="M2723 2838 c-49 -54 -132 -241 -120 -273 11 -28 26 -16 56 48 16 34
46 78 66 97 l36 35 -26 -57 c-51 -111 -31 -155 28 -61 19 32 52 74 73 93 32
31 35 32 19 8 -28 -45 -36 -97 -20 -135 15 -35 41 -44 52 -17 3 8 1 20 -6 27
-30 30 -5 101 60 176 41 46 45 56 29 66 -17 11 -49 -5 -106 -52 -33 -26 -51
-36 -45 -24 6 11 16 23 21 26 15 10 12 45 -5 45 -8 0 -40 -21 -72 -47 l-57
-46 27 46 c39 66 33 92 -10 45z"/>
<path d="M3310 2823 c-29 -38 -110 -201 -110 -224 0 -37 35 -20 67 34 17 28
48 68 68 87 l37 35 -23 -45 c-41 -82 -25 -196 26 -177 12 5 14 11 5 26 -26 50
-2 139 59 215 31 38 41 76 20 76 -17 0 -51 -20 -99 -59 l-45 -36 23 37 c35 56
12 81 -28 31z"/>
<path d="M4294 2792 c-46 -34 -99 -108 -116 -163 -34 -114 64 -145 164 -51 55
51 72 77 62 93 -4 7 -24 -9 -50 -39 -93 -106 -173 -87 -114 28 24 47 85 110
106 110 13 0 11 -7 -7 -40 -29 -52 -16 -64 22 -22 24 27 29 41 27 70 -3 31 -7
37 -28 40 -16 2 -41 -8 -66 -26z"/>
<path d="M4121 2747 c-69 -107 -111 -235 -76 -231 11 1 17 12 69 127 20 43 45
91 56 107 11 15 20 35 20 44 0 34 -29 14 -69 -47z"/>
<path d="M4748 2755 c-59 -80 -87 -192 -56 -223 30 -30 98 1 98 45 0 25 -1 26
-20 8 -21 -19 -50 -14 -50 8 0 24 23 81 47 119 15 22 23 47 21 65 -3 28 -3 28
-40 -22z"/>
<path d="M10444 2341 c-23 -11 -77 -52 -119 -93 -199 -188 -289 -415 -192
-483 31 -22 58 -19 120 14 l55 29 -59 -114 c-55 -105 -72 -167 -53 -187 14
-14 41 14 53 53 19 64 73 177 124 262 26 42 47 84 47 92 0 25 -34 19 -61 -10
-38 -40 -139 -104 -165 -104 -14 0 -30 10 -39 24 -14 20 -14 31 -5 67 29 105
114 233 228 341 94 89 162 113 162 58 0 -35 -30 -82 -98 -153 -47 -48 -63 -70
-55 -78 18 -18 49 -1 107 62 58 62 94 145 80 185 -20 56 -60 67 -130 35z"/>
<path d="M12171 2323 c-92 -183 -173 -590 -127 -636 38 -37 35 -41 180 204 75
127 200 314 268 402 23 29 15 53 -14 42 -34 -13 -235 -306 -344 -500 -49 -88
-49 -88 -52 -51 -7 77 48 293 120 475 16 41 27 80 24 88 -10 25 -35 13 -55
-24z"/>
<path d="M8471 2313 c-92 -183 -173 -590 -127 -636 38 -37 35 -41 180 204 75
127 200 314 268 402 23 29 15 53 -14 42 -34 -13 -235 -306 -344 -500 -49 -88
-49 -88 -52 -51 -7 77 48 293 120 475 16 41 27 80 24 88 -10 25 -35 13 -55
-24z"/>
<path d="M2134 2251 c-23 -11 -77 -52 -119 -93 -199 -188 -289 -415 -192 -483
31 -22 58 -19 120 14 l55 29 -59 -114 c-55 -105 -72 -167 -53 -187 14 -14 41
14 53 53 19 64 73 177 124 262 26 42 47 84 47 92 0 25 -34 19 -61 -10 -38 -40
-139 -104 -165 -104 -14 0 -30 10 -39 24 -14 20 -14 31 -5 67 29 105 114 233
228 341 94 89 162 113 162 58 0 -35 -30 -82 -98 -153 -47 -48 -63 -70 -55 -78
18 -18 49 -1 107 62 58 62 94 145 80 185 -20 56 -60 67 -130 35z"/>
<path d="M161 2223 c-92 -183 -173 -590 -127 -636 38 -37 35 -41 180 204 75
127 200 314 268 402 23 29 15 53 -14 42 -34 -13 -235 -306 -344 -500 -49 -88
-49 -88 -52 -51 -7 77 48 293 120 475 16 41 27 80 24 88 -10 25 -35 13 -55
-24z"/>
<path d="M11511 2179 c-42 -53 -51 -79 -28 -79 24 0 104 110 90 124 -12 12
-22 5 -62 -45z"/>
<path d="M12938 2155 c-38 -56 -48 -65 -83 -73 -30 -6 -40 -12 -40 -27 0 -14
7 -20 23 -19 12 0 21 -2 19 -5 -95 -173 -107 -281 -32 -281 46 0 154 122 140
158 -6 15 -9 14 -23 -8 -10 -14 -32 -42 -51 -62 -88 -99 -90 10 -3 160 38 66
34 63 160 98 31 9 3 29 -37 27 -22 -1 -41 1 -41 4 0 3 9 18 21 34 20 29 20 59
-1 59 -5 0 -29 -29 -52 -65z"/>
<path d="M9238 2145 c-38 -56 -48 -65 -83 -73 -30 -6 -40 -12 -40 -27 0 -14 7
-20 23 -19 12 0 21 -2 19 -5 -95 -173 -107 -281 -32 -281 46 0 154 122 140
158 -6 15 -9 14 -23 -8 -10 -14 -32 -42 -51 -62 -88 -99 -90 10 -3 160 38 66
34 63 160 98 31 9 3 29 -37 27 -22 -1 -41 1 -41 4 0 3 9 18 21 34 20 29 20 59
-1 59 -5 0 -29 -29 -52 -65z"/>
<path d="M12531 2184 c-25 -32 -27 -52 -4 -61 20 -8 66 41 61 66 -5 26 -34 24
-57 -5z"/>
<path d="M3871 2163 c-92 -183 -173 -590 -127 -636 38 -37 35 -41 180 204 75
127 200 314 268 402 23 29 15 53 -14 42 -34 -13 -235 -306 -344 -500 -49 -88
-49 -88 -52 -51 -7 77 48 293 120 475 16 41 27 80 24 88 -10 25 -35 13 -55
-24z"/>
<path d="M8831 2174 c-25 -32 -27 -52 -4 -61 20 -8 66 41 61 66 -5 26 -34 24
-57 -5z"/>
<path d="M3201 2089 c-42 -53 -51 -79 -28 -79 24 0 104 110 90 124 -12 12 -22
5 -62 -45z"/>
<path d="M928 2055 c-38 -56 -48 -65 -83 -73 -30 -6 -40 -12 -40 -27 0 -14 7
-20 23 -19 12 0 21 -2 19 -5 -95 -173 -107 -281 -32 -281 46 0 154 122 140
158 -6 15 -9 14 -23 -8 -10 -14 -32 -42 -51 -62 -88 -99 -90 10 -3 160 38 66
34 63 160 98 31 9 3 29 -37 27 -22 -1 -41 1 -41 4 0 3 9 18 21 34 20 29 20 59
-1 59 -5 0 -29 -29 -52 -65z"/>
<path d="M521 2084 c-25 -32 -27 -52 -4 -61 20 -8 66 41 61 66 -5 26 -34 24
-57 -5z"/>
<path d="M4638 1995 c-38 -56 -48 -65 -83 -73 -30 -6 -40 -12 -40 -27 0 -14 7
-20 23 -19 12 0 21 -2 19 -5 -95 -173 -107 -281 -32 -281 46 0 154 122 140
158 -6 15 -9 14 -23 -8 -10 -14 -32 -42 -51 -62 -88 -99 -90 10 -3 160 38 66
34 63 160 98 31 9 3 29 -37 27 -22 -1 -41 1 -41 4 0 3 9 18 21 34 20 29 20 59
-1 59 -5 0 -29 -29 -52 -65z"/>
<path d="M13108 2035 c-68 -46 -128 -156 -128 -234 0 -106 108 -65 178 67 79
147 52 236 -50 167z m52 -49 c0 -13 -10 -36 -21 -51 -12 -14 -23 -41 -25 -58
-5 -40 -55 -93 -79 -83 -32 12 0 103 61 175 40 46 64 53 64 17z"/>
<path d="M4231 2024 c-25 -32 -27 -52 -4 -61 20 -8 66 41 61 66 -5 26 -34 24
-57 -5z"/>
<path d="M9408 2025 c-68 -46 -128 -156 -128 -234 0 -106 108 -65 178 67 79
147 52 236 -50 167z m52 -49 c0 -13 -10 -36 -21 -51 -12 -14 -23 -41 -25 -58
-5 -40 -55 -93 -79 -83 -32 12 0 103 61 175 40 46 64 53 64 17z"/>
<path d="M11410 2032 c-45 -24 -114 -125 -130 -190 -9 -41 -9 -56 2 -79 20
-42 52 -42 94 2 28 30 34 33 34 17 0 -25 37 -72 56 -72 26 0 29 31 4 50 -20
15 -22 23 -16 59 3 23 16 62 27 86 26 56 32 111 12 130 -19 20 -41 19 -83 -3z
m54 -41 c7 -11 -79 -172 -101 -188 -70 -53 -49 74 27 160 30 35 62 47 74 28z"/>
<path d="M12594 2012 c-46 -34 -99 -108 -116 -163 -34 -114 64 -145 164 -51
55 51 72 77 62 93 -4 7 -24 -9 -50 -39 -93 -106 -173 -87 -114 28 24 47 85
110 106 110 13 0 11 -7 -7 -40 -29 -52 -16 -64 22 -22 24 27 29 41 27 70 -3
31 -7 37 -28 40 -16 2 -41 -8 -66 -26z"/>
<path d="M8894 2002 c-46 -34 -99 -108 -116 -163 -34 -114 64 -145 164 -51 55
51 72 77 62 93 -4 7 -24 -9 -50 -39 -93 -106 -173 -87 -114 28 24 47 85 110
106 110 13 0 11 -7 -7 -40 -29 -52 -16 -64 22 -22 24 27 29 41 27 70 -3 31 -7
37 -28 40 -16 2 -41 -8 -66 -26z"/>
<path d="M9724 2004 c-21 -14 -59 -45 -83 -67 -44 -43 -43 -30 3 32 28 38 22
60 -12 42 -37 -20 -142 -223 -142 -276 0 -32 34 -10 64 42 36 60 103 143 116
143 5 0 7 -6 4 -13 -8 -23 23 -40 58 -33 38 7 98 51 98 72 0 18 -3 18 -42 -6
-34 -21 -68 -26 -68 -11 0 5 16 25 36 44 20 19 33 40 30 46 -10 16 -19 14 -62
-15z"/>
<path d="M10822 2023 c-69 -4 -73 -5 -70 -26 3 -19 9 -22 53 -22 l51 0 -68
-67 c-37 -37 -81 -87 -96 -112 -28 -43 -30 -45 -46 -28 -23 27 -20 75 10 133
14 28 24 58 22 67 -7 37 -35 14 -73 -60 -43 -83 -80 -131 -96 -126 -6 2 -10 7
-10 11 1 4 1 16 1 26 0 11 22 52 49 93 31 45 46 77 40 82 -24 25 -121 -99
-135 -172 -17 -89 34 -118 97 -56 34 33 39 35 39 17 0 -24 36 -73 54 -73 7 0
32 10 57 22 26 13 67 23 99 25 30 1 58 2 63 3 4 0 7 6 7 14 0 21 -35 29 -87
21 l-45 -7 27 37 c16 20 62 67 103 104 54 49 73 73 69 85 -4 9 -14 15 -24 14
-10 -1 -51 -4 -91 -5z"/>
<path d="M12421 1967 c-69 -107 -111 -235 -76 -231 11 1 17 12 69 127 20 43
45 91 56 107 11 15 20 35 20 44 0 34 -29 14 -69 -47z"/>
<path d="M13328 2020 c-35 -21 -138 -226 -138 -275 0 -32 34 -10 64 42 37 62
103 143 117 143 6 0 7 -5 4 -10 -10 -16 15 -40 41 -40 19 0 24 5 24 24 0 13
-6 26 -12 29 -10 4 -10 7 0 18 13 14 17 69 4 69 -5 0 -37 -26 -72 -57 -62 -56
-67 -52 -16 16 32 43 24 64 -16 41z"/>
<path d="M8721 1957 c-69 -107 -111 -235 -76 -231 11 1 17 12 69 127 20 43 45
91 56 107 11 15 20 35 20 44 0 34 -29 14 -69 -47z"/>
<path d="M11023 1998 c-49 -54 -132 -241 -120 -273 11 -28 26 -16 56 48 16 34
46 78 66 97 l36 35 -26 -57 c-51 -111 -31 -155 28 -61 19 32 52 74 73 93 32
31 35 32 19 8 -28 -45 -36 -97 -20 -135 15 -35 41 -44 52 -17 3 8 1 20 -6 27
-30 30 -5 101 60 176 41 46 45 56 29 66 -17 11 -49 -5 -106 -52 -33 -26 -51
-36 -45 -24 6 11 16 23 21 26 15 10 12 45 -5 45 -8 0 -40 -21 -72 -47 l-57
-46 27 46 c39 66 33 92 -10 45z"/>
<path d="M11610 1983 c-29 -38 -110 -201 -110 -224 0 -37 35 -20 67 34 17 28
48 68 68 87 l37 35 -23 -45 c-41 -82 -25 -196 26 -177 12 5 14 11 5 26 -26 50
-2 139 59 215 31 38 41 76 20 76 -17 0 -51 -20 -99 -59 l-45 -36 23 37 c35 56
12 81 -28 31z"/>
<path d="M1098 1935 c-68 -46 -128 -156 -128 -234 0 -106 108 -65 178 67 79
147 52 236 -50 167z m52 -49 c0 -13 -10 -36 -21 -51 -12 -14 -23 -41 -25 -58
-5 -40 -55 -93 -79 -83 -32 12 0 103 61 175 40 46 64 53 64 17z"/>
<path d="M3100 1942 c-45 -24 -114 -125 -130 -190 -9 -41 -9 -56 2 -79 20 -42
52 -42 94 2 28 30 34 33 34 17 0 -25 37 -72 56 -72 26 0 29 31 4 50 -20 15
-22 23 -16 59 3 23 16 62 27 86 26 56 32 111 12 130 -19 20 -41 19 -83 -3z
m54 -41 c7 -11 -79 -172 -101 -188 -70 -53 -49 74 27 160 30 35 62 47 74 28z"/>
<path d="M584 1912 c-46 -34 -99 -108 -116 -163 -34 -114 64 -145 164 -51 55
51 72 77 62 93 -4 7 -24 -9 -50 -39 -93 -106 -173 -87 -114 28 24 47 85 110
106 110 13 0 11 -7 -7 -40 -29 -52 -16 -64 22 -22 24 27 29 41 27 70 -3 31 -7
37 -28 40 -16 2 -41 -8 -66 -26z"/>
<path d="M1414 1914 c-21 -14 -59 -45 -83 -67 -44 -43 -43 -30 3 32 28 38 22
60 -12 42 -37 -20 -142 -223 -142 -276 0 -32 34 -10 64 42 36 60 103 143 116
143 5 0 7 -6 4 -13 -8 -23 23 -40 58 -33 38 7 98 51 98 72 0 18 -3 18 -42 -6
-34 -21 -68 -26 -68 -11 0 5 16 25 36 44 20 19 33 40 30 46 -10 16 -19 14 -62
-15z"/>
<path d="M2512 1933 c-69 -4 -73 -5 -70 -26 3 -19 9 -22 53 -22 l51 0 -68 -67
c-37 -37 -81 -87 -96 -112 -28 -43 -30 -45 -46 -28 -23 27 -20 75 10 133 14
28 24 58 22 67 -7 37 -35 14 -73 -60 -43 -83 -80 -131 -96 -126 -6 2 -10 7
-10 11 1 4 1 16 1 26 0 11 22 52 49 93 31 45 46 77 40 82 -24 25 -121 -99
-135 -172 -17 -89 34 -118 97 -56 34 33 39 35 39 17 0 -24 36 -73 54 -73 7 0
32 10 57 22 26 13 67 23 99 25 30 1 58 2 63 3 4 0 7 6 7 14 0 21 -35 29 -87
21 l-45 -7 27 37 c16 20 62 67 103 104 54 49 73 73 69 85 -4 9 -14 15 -24 14
-10 -1 -51 -4 -91 -5z"/>
<path d="M411 1867 c-69 -107 -111 -235 -76 -231 11 1 17 12 69 127 20 43 45
91 56 107 11 15 20 35 20 44 0 34 -29 14 -69 -47z"/>
<path d="M2713 1908 c-49 -54 -132 -241 -120 -273 11 -28 26 -16 56 48 16 34
46 78 66 97 l36 35 -26 -57 c-51 -111 -31 -155 28 -61 19 32 52 74 73 93 32
31 35 32 19 8 -28 -45 -36 -97 -20 -135 15 -35 41 -44 52 -17 3 8 1 20 -6 27
-30 30 -5 101 60 176 41 46 45 56 29 66 -17 11 -49 -5 -106 -52 -33 -26 -51
-36 -45 -24 6 11 16 23 21 26 15 10 12 45 -5 45 -8 0 -40 -21 -72 -47 l-57
-46 27 46 c39 66 33 92 -10 45z"/>
<path d="M3300 1893 c-29 -38 -110 -201 -110 -224 0 -37 35 -20 67 34 17 28
48 68 68 87 l37 35 -23 -45 c-41 -82 -25 -196 26 -177 12 5 14 11 5 26 -26 50
-2 139 59 215 31 38 41 76 20 76 -17 0 -51 -20 -99 -59 l-45 -36 23 37 c35 56
12 81 -28 31z"/>
<path d="M4294 1852 c-46 -34 -99 -108 -116 -163 -34 -114 64 -145 164 -51 55
51 72 77 62 93 -4 7 -24 -9 -50 -39 -93 -106 -173 -87 -114 28 24 47 85 110
106 110 13 0 11 -7 -7 -40 -29 -52 -16 -64 22 -22 24 27 29 41 27 70 -3 31 -7
37 -28 40 -16 2 -41 -8 -66 -26z"/>
<path d="M4121 1807 c-69 -107 -111 -235 -76 -231 11 1 17 12 69 127 20 43 45
91 56 107 11 15 20 35 20 44 0 34 -29 14 -69 -47z"/>
<path d="M4748 1815 c-59 -80 -87 -192 -56 -223 30 -30 98 1 98 45 0 25 -1 26
-20 8 -21 -19 -50 -14 -50 8 0 24 23 81 47 119 15 22 23 47 21 65 -3 28 -3 28
-40 -22z"/>
<path d="M10314 1361 c-23 -11 -77 -52 -119 -93 -199 -188 -289 -415 -192
-483 31 -22 58 -19 122 15 l57 30 -36 -64 c-20 -35 -36 -67 -36 -70 0 -3 11
-6 25 -6 19 0 30 10 46 43 12 23 41 74 65 114 24 39 44 79 44 87 0 25 -34 19
-61 -10 -38 -40 -139 -104 -165 -104 -14 0 -30 10 -39 24 -14 20 -14 31 -5 67
29 105 114 233 228 341 94 89 162 113 162 58 0 -35 -30 -82 -98 -153 -47 -48
-63 -70 -55 -78 18 -18 49 -1 107 62 58 62 94 145 80 185 -20 56 -60 67 -130
35z"/>
<path d="M8335 1318 c-20 -43 -25 -68 -24 -133 0 -44 3 -73 6 -65 3 8 23 63
45 122 22 59 37 112 33 118 -14 23 -37 7 -60 -42z"/>
<path d="M8620 1318 c-45 -48 -168 -227 -244 -352 -56 -93 -66 -115 -66 -155
l1 -46 23 40 c103 172 209 336 271 420 41 55 73 104 72 109 -7 22 -28 16 -57
-16z"/>
<path d="M2124 1291 c-23 -11 -77 -52 -119 -93 -199 -188 -289 -415 -192 -483
31 -22 58 -19 121 15 l57 29 -46 -83 c-25 -46 -45 -86 -45 -90 0 -3 13 -6 29
-6 24 0 31 6 45 42 9 24 41 85 71 135 30 51 55 99 55 108 0 24 -34 18 -61 -11
-38 -40 -139 -104 -165 -104 -14 0 -30 10 -39 24 -14 20 -14 31 -5 67 29 105
114 233 228 341 94 89 162 113 162 58 0 -35 -30 -82 -98 -153 -47 -48 -63 -70
-55 -78 18 -18 49 -1 107 62 58 62 94 145 80 185 -20 56 -60 67 -130 35z"/>
<path d="M151 1263 c-92 -183 -173 -590 -127 -636 38 -37 35 -41 180 204 75
127 200 314 268 402 23 29 15 53 -14 42 -34 -13 -235 -306 -344 -500 -49 -88
-49 -88 -52 -51 -7 77 48 293 120 475 16 41 27 80 24 88 -10 25 -35 13 -55
-24z"/>
<path d="M12121 1263 c-92 -183 -173 -590 -127 -636 38 -37 35 -41 180 204 75
127 200 314 268 402 23 29 15 53 -14 42 -34 -13 -235 -306 -344 -500 -49 -88
-49 -88 -52 -51 -7 77 48 293 120 475 16 41 27 80 24 88 -10 25 -35 13 -55
-24z"/>
<path d="M11381 1199 c-42 -53 -51 -79 -28 -79 24 0 104 110 90 124 -12 12
-22 5 -62 -45z"/>
<path d="M18063 1180 c-57 -190 -85 -369 -69 -434 5 -20 12 -26 35 -26 39 0
61 36 61 97 l0 48 -26 -40 -25 -40 5 71 c2 38 14 111 26 161 14 60 20 114 18
164 l-3 74 -22 -75z"/>
<path d="M3851 1203 c-92 -183 -173 -590 -127 -636 38 -37 35 -41 180 204 75
127 200 314 268 402 23 29 15 53 -14 42 -34 -13 -235 -306 -344 -500 -49 -88
-49 -88 -52 -51 -7 77 48 293 120 475 16 41 27 80 24 88 -10 25 -35 13 -55
-24z"/>
<path d="M9108 1165 c-38 -56 -48 -65 -83 -73 -30 -6 -40 -12 -40 -27 0 -14 7
-20 23 -19 12 0 21 -2 19 -5 -95 -173 -107 -281 -32 -281 46 0 154 122 140
158 -6 15 -9 14 -23 -8 -10 -14 -32 -42 -51 -62 -88 -99 -90 10 -3 160 38 66
34 63 160 98 31 9 3 29 -37 27 -22 -1 -41 1 -41 4 0 3 9 18 21 34 20 29 20 59
-1 59 -5 0 -29 -29 -52 -65z"/>
<path d="M8701 1194 c-25 -32 -27 -52 -4 -61 20 -8 66 41 61 66 -5 26 -34 24
-57 -5z"/>
<path d="M8263 1140 c-57 -190 -85 -369 -69 -434 5 -20 12 -26 35 -26 39 0 61
36 61 97 l0 48 -26 -40 -25 -40 5 71 c2 38 14 111 26 161 14 60 20 114 18 164
l-3 74 -22 -75z"/>
<path d="M3191 1129 c-42 -53 -51 -79 -28 -79 24 0 104 110 90 124 -12 12 -22
5 -62 -45z"/>
<path d="M918 1095 c-38 -56 -48 -65 -83 -73 -30 -6 -40 -12 -40 -27 0 -14 7
-20 23 -19 12 0 21 -2 19 -5 -95 -173 -107 -281 -32 -281 46 0 154 122 140
158 -6 15 -9 14 -23 -8 -10 -14 -32 -42 -51 -62 -88 -99 -90 10 -3 160 38 66
34 63 160 98 31 9 3 29 -37 27 -22 -1 -41 1 -41 4 0 3 9 18 21 34 20 29 20 59
-1 59 -5 0 -29 -29 -52 -65z"/>
<path d="M12888 1095 c-38 -56 -48 -65 -83 -73 -30 -6 -40 -12 -40 -27 0 -14
7 -20 23 -19 12 0 21 -2 19 -5 -95 -173 -107 -281 -32 -281 46 0 154 122 140
158 -6 15 -9 14 -23 -8 -10 -14 -32 -42 -51 -62 -88 -99 -90 10 -3 160 38 66
34 63 160 98 31 9 3 29 -37 27 -22 -1 -41 1 -41 4 0 3 9 18 21 34 20 29 20 59
-1 59 -5 0 -29 -29 -52 -65z"/>
<path d="M511 1124 c-25 -32 -27 -52 -4 -61 20 -8 66 41 61 66 -5 26 -34 24
-57 -5z"/>
<path d="M12481 1124 c-25 -32 -27 -52 -4 -61 20 -8 66 41 61 66 -5 26 -34 24
-57 -5z"/>
<path d="M4618 1035 c-38 -56 -48 -65 -83 -73 -30 -6 -40 -12 -40 -27 0 -14 7
-20 23 -19 12 0 21 -2 19 -5 -95 -173 -107 -281 -32 -281 46 0 154 122 140
158 -6 15 -9 14 -23 -8 -10 -14 -32 -42 -51 -62 -88 -99 -90 10 -3 160 38 66
34 63 160 98 31 9 3 29 -37 27 -22 -1 -41 1 -41 4 0 3 9 18 21 34 20 29 20 59
-1 59 -5 0 -29 -29 -52 -65z"/>
<path d="M4211 1064 c-25 -32 -27 -52 -4 -61 20 -8 66 41 61 66 -5 26 -34 24
-57 -5z"/>
<path d="M9278 1045 c-68 -46 -128 -156 -128 -234 0 -106 108 -65 178 67 79
147 52 236 -50 167z m52 -49 c0 -13 -10 -36 -21 -51 -12 -14 -23 -41 -25 -58
-5 -40 -55 -93 -79 -83 -32 12 0 103 61 175 40 46 64 53 64 17z"/>
<path d="M11280 1052 c-45 -24 -114 -125 -130 -190 -9 -41 -9 -56 2 -79 20
-42 52 -42 94 2 28 30 34 33 34 17 0 -25 37 -72 56 -72 26 0 29 31 4 50 -20
15 -22 23 -16 59 3 23 16 62 27 86 26 56 32 111 12 130 -19 20 -41 19 -83 -3z
m54 -41 c7 -11 -79 -172 -101 -188 -70 -53 -49 74 27 160 30 35 62 47 74 28z"/>
<path d="M8764 1022 c-46 -34 -99 -108 -116 -163 -34 -114 64 -145 164 -51 55
51 72 77 62 93 -4 7 -24 -9 -50 -39 -93 -106 -173 -87 -114 28 24 47 85 110
106 110 13 0 11 -7 -7 -40 -29 -52 -16 -64 22 -22 24 27 29 41 27 70 -3 31 -7
37 -28 40 -16 2 -41 -8 -66 -26z"/>
<path d="M9594 1024 c-21 -14 -59 -45 -83 -67 -44 -43 -43 -30 3 32 28 38 22
60 -12 42 -37 -20 -142 -223 -142 -276 0 -32 34 -10 64 42 36 60 103 143 116
143 5 0 7 -6 4 -13 -8 -23 23 -40 58 -33 38 7 98 51 98 72 0 18 -3 18 -42 -6
-34 -21 -68 -26 -68 -11 0 5 16 25 36 44 20 19 33 40 30 46 -10 16 -19 14 -62
-15z"/>
<path d="M10692 1043 c-69 -4 -73 -5 -70 -26 3 -19 9 -22 53 -22 l51 0 -68
-67 c-37 -37 -81 -87 -96 -112 -28 -43 -30 -45 -46 -28 -23 27 -20 75 10 133
14 28 24 58 22 67 -7 37 -35 14 -73 -60 -43 -83 -80 -131 -96 -126 -6 2 -10 7
-10 11 1 4 1 16 1 26 0 11 22 52 49 93 31 45 46 77 40 82 -24 25 -121 -99
-135 -172 -17 -89 34 -118 97 -56 34 33 39 35 39 17 0 -24 36 -73 54 -73 7 0
32 10 57 22 26 13 67 23 99 25 30 1 58 2 63 3 4 0 7 6 7 14 0 21 -35 29 -87
21 l-45 -7 27 37 c16 20 62 67 103 104 54 49 73 73 69 85 -4 9 -14 15 -24 14
-10 -1 -51 -4 -91 -5z"/>
<path d="M8591 977 c-69 -107 -111 -235 -76 -231 11 1 17 12 69 127 20 43 45
91 56 107 11 15 20 35 20 44 0 34 -29 14 -69 -47z"/>
<path d="M10893 1018 c-49 -54 -132 -241 -120 -273 11 -28 26 -16 56 48 16 34
46 78 66 97 l36 35 -26 -57 c-51 -111 -31 -155 28 -61 19 32 52 74 73 93 32
31 35 32 19 8 -28 -45 -36 -97 -20 -135 15 -35 41 -44 52 -17 3 8 1 20 -6 27
-30 30 -5 101 60 176 41 46 45 56 29 66 -17 11 -49 -5 -106 -52 -33 -26 -51
-36 -45 -24 6 11 16 23 21 26 15 10 12 45 -5 45 -8 0 -40 -21 -72 -47 l-57
-46 27 46 c39 66 33 92 -10 45z"/>
<path d="M11480 1003 c-29 -38 -110 -201 -110 -224 0 -37 35 -20 67 34 17 28
48 68 68 87 l37 35 -23 -45 c-41 -82 -25 -196 26 -177 12 5 14 11 5 26 -26 50
-2 139 59 215 31 38 41 76 20 76 -17 0 -51 -20 -99 -59 l-45 -36 23 37 c35 56
12 81 -28 31z"/>
<path d="M1088 975 c-68 -46 -128 -156 -128 -234 0 -106 108 -65 178 67 79
147 52 236 -50 167z m52 -49 c0 -13 -10 -36 -21 -51 -12 -14 -23 -41 -25 -58
-5 -40 -55 -93 -79 -83 -32 12 0 103 61 175 40 46 64 53 64 17z"/>
<path d="M3090 982 c-45 -24 -114 -125 -130 -190 -9 -41 -9 -56 2 -79 20 -42
52 -42 94 2 28 30 34 33 34 17 0 -25 37 -72 56 -72 26 0 29 31 4 50 -20 15
-22 23 -16 59 3 23 16 62 27 86 26 56 32 111 12 130 -19 20 -41 19 -83 -3z
m54 -41 c7 -11 -79 -172 -101 -188 -70 -53 -49 74 27 160 30 35 62 47 74 28z"/>
<path d="M13058 975 c-68 -46 -128 -156 -128 -234 0 -106 108 -65 178 67 79
147 52 236 -50 167z m52 -49 c0 -13 -10 -36 -21 -51 -12 -14 -23 -41 -25 -58
-5 -40 -55 -93 -79 -83 -32 12 0 103 61 175 40 46 64 53 64 17z"/>
<path d="M574 952 c-46 -34 -99 -108 -116 -163 -34 -114 64 -145 164 -51 55
51 72 77 62 93 -4 7 -24 -9 -50 -39 -93 -106 -173 -87 -114 28 24 47 85 110
106 110 13 0 11 -7 -7 -40 -29 -52 -16 -64 22 -22 24 27 29 41 27 70 -3 31 -7
37 -28 40 -16 2 -41 -8 -66 -26z"/>
<path d="M1404 954 c-21 -14 -59 -45 -83 -67 -44 -43 -43 -30 3 32 28 38 22
60 -12 42 -37 -20 -142 -223 -142 -276 0 -32 34 -10 64 42 36 60 103 143 116
143 5 0 7 -6 4 -13 -8 -23 23 -40 58 -33 38 7 98 51 98 72 0 18 -3 18 -42 -6
-34 -21 -68 -26 -68 -11 0 5 16 25 36 44 20 19 33 40 30 46 -10 16 -19 14 -62
-15z"/>
<path d="M2502 973 c-69 -4 -73 -5 -70 -26 3 -19 9 -22 53 -22 l51 0 -68 -67
c-37 -37 -81 -87 -96 -112 -28 -43 -30 -45 -46 -28 -23 27 -20 75 10 133 14
28 24 58 22 67 -7 37 -35 14 -73 -60 -43 -83 -80 -131 -96 -126 -6 2 -10 7
-10 11 1 4 1 16 1 26 0 11 22 52 49 93 31 45 46 77 40 82 -24 25 -121 -99
-135 -172 -17 -89 34 -118 97 -56 34 33 39 35 39 17 0 -24 36 -73 54 -73 7 0
32 10 57 22 26 13 67 23 99 25 30 1 58 2 63 3 4 0 7 6 7 14 0 21 -35 29 -87
21 l-45 -7 27 37 c16 20 62 67 103 104 54 49 73 73 69 85 -4 9 -14 15 -24 14
-10 -1 -51 -4 -91 -5z"/>
<path d="M12544 952 c-46 -34 -99 -108 -116 -163 -34 -114 64 -145 164 -51 55
51 72 77 62 93 -4 7 -24 -9 -50 -39 -93 -106 -173 -87 -114 28 24 47 85 110
106 110 13 0 11 -7 -7 -40 -29 -52 -16 -64 22 -22 24 27 29 41 27 70 -3 31 -7
37 -28 40 -16 2 -41 -8 -66 -26z"/>
<path d="M13374 954 c-21 -14 -59 -45 -83 -67 -44 -43 -43 -30 3 32 28 38 22
60 -12 42 -37 -20 -142 -223 -142 -276 0 -32 34 -10 64 42 36 60 103 143 116
143 5 0 7 -6 4 -13 -8 -22 23 -40 58 -33 39 8 58 23 58 48 0 15 -3 17 -19 8
-24 -12 -51 -13 -51 -1 0 5 16 25 36 44 20 19 33 40 30 46 -10 16 -19 14 -62
-15z"/>
<path d="M401 907 c-69 -107 -111 -235 -76 -231 11 1 17 12 69 127 20 43 45
91 56 107 11 15 20 35 20 44 0 34 -29 14 -69 -47z"/>
<path d="M2703 948 c-49 -54 -132 -241 -120 -273 11 -28 26 -16 56 48 16 34
46 78 66 97 l36 35 -26 -57 c-51 -111 -31 -155 28 -61 19 32 52 74 73 93 32
31 35 32 19 8 -28 -45 -36 -97 -20 -135 15 -35 41 -44 52 -17 3 8 1 20 -6 27
-30 30 -5 101 60 176 41 46 45 56 29 66 -17 11 -49 -5 -106 -52 -33 -26 -51
-36 -45 -24 6 11 16 23 21 26 15 10 12 45 -5 45 -8 0 -40 -21 -72 -47 l-57
-46 27 46 c39 66 33 92 -10 45z"/>
<path d="M12371 907 c-69 -107 -111 -235 -76 -231 11 1 17 12 69 127 20 43 45
91 56 107 11 15 20 35 20 44 0 34 -29 14 -69 -47z"/>
<path d="M3290 933 c-29 -38 -110 -201 -110 -224 0 -37 35 -20 67 34 17 28 48
68 68 87 l37 35 -23 -45 c-41 -82 -25 -196 26 -177 12 5 14 11 5 26 -26 50 -2
139 59 215 31 38 41 76 20 76 -17 0 -51 -20 -99 -59 l-45 -36 23 37 c35 56 12
81 -28 31z"/>
<path d="M4746 893 c-20 -21 -36 -42 -36 -47 0 -5 -10 -30 -22 -55 -28 -59
-36 -142 -15 -160 34 -28 60 -9 109 78 45 81 60 141 50 199 -7 35 -45 28 -86
-15z m54 -37 c0 -13 -9 -35 -20 -49 -11 -14 -20 -40 -20 -60 0 -41 -38 -97
-51 -75 -15 22 2 100 33 156 32 55 58 68 58 28z"/>
<path d="M4274 892 c-46 -34 -99 -108 -116 -163 -34 -114 64 -145 164 -51 55
51 72 77 62 93 -4 7 -24 -9 -50 -39 -93 -106 -173 -87 -114 28 24 47 85 110
106 110 13 0 11 -7 -7 -40 -29 -52 -16 -64 22 -22 24 27 29 41 27 70 -3 31 -7
37 -28 40 -16 2 -41 -8 -66 -26z"/>
<path d="M4101 847 c-69 -107 -111 -235 -76 -231 11 1 17 12 69 127 20 43 45
91 56 107 11 15 20 35 20 44 0 34 -29 14 -69 -47z"/>
<path d="M5035 898 c-11 -5 -44 -35 -74 -66 -33 -36 -47 -46 -35 -27 46 77 51
105 15 86 -32 -18 -111 -205 -111 -263 0 -45 14 -33 54 45 34 66 78 127 90
127 3 0 3 -6 0 -13 -8 -21 22 -40 52 -33 27 7 73 53 74 74 0 18 -14 15 -35 -8
-18 -19 -55 -28 -55 -12 0 4 14 22 30 40 17 18 30 37 30 42 0 15 -15 19 -35 8z"/>
<path d="M17941 603 c-50 -101 -124 -364 -137 -490 -7 -62 -6 -63 17 -63 23 0
25 5 37 88 14 103 47 222 103 373 23 59 38 113 34 119 -13 20 -35 9 -54 -27z"/>
<path d="M10124 601 c-23 -11 -77 -52 -119 -93 -199 -188 -289 -415 -192 -483
31 -22 58 -19 121 14 l56 30 -15 -29 c-20 -38 -19 -40 8 -40 17 0 33 18 70 80
26 43 47 86 47 95 0 24 -34 18 -61 -11 -38 -40 -139 -104 -165 -104 -14 0 -30
10 -39 24 -14 20 -14 31 -5 67 29 105 114 233 228 341 94 89 162 113 162 58 0
-35 -30 -82 -98 -153 -47 -48 -63 -70 -55 -78 18 -18 49 -1 107 62 58 62 94
145 80 185 -20 56 -60 67 -130 35z"/>
<path d="M8141 563 c-50 -101 -124 -364 -137 -490 -7 -62 -6 -63 17 -63 23 0
25 5 37 88 14 103 47 222 103 373 23 59 38 113 34 119 -13 20 -35 9 -54 -27z"/>
<path d="M8440 570 c-11 -11 -44 -53 -75 -94 -46 -63 -55 -82 -55 -117 l0 -42
78 108 c42 59 83 116 90 126 14 18 9 39 -9 39 -5 0 -18 -9 -29 -20z"/>
<path d="M2064 491 c-53 -24 -183 -147 -240 -227 -51 -71 -99 -172 -108 -227
-6 -35 -5 -37 18 -37 21 0 27 7 37 42 28 104 114 233 227 340 94 89 162 113
162 58 0 -35 -30 -82 -98 -153 -47 -48 -63 -70 -55 -78 18 -18 49 -1 107 62
58 62 94 145 80 185 -20 56 -60 67 -130 35z"/>
<path d="M11961 473 c-32 -64 -71 -182 -102 -308 -36 -149 -37 -165 -5 -165
21 0 24 6 30 50 9 67 48 198 97 331 23 59 38 113 34 119 -13 20 -35 9 -54 -27z"/>
<path d="M81 438 c-60 -133 -81 -220 -80 -336 l1 -107 19 85 c21 94 57 207
101 319 30 76 30 101 3 101 -10 0 -27 -24 -44 -62z"/>
<path d="M11191 439 c-42 -53 -51 -79 -28 -79 24 0 104 110 90 124 -12 12 -22
5 -62 -45z"/>
<path d="M12244 463 c-61 -65 -304 -429 -304 -454 0 -5 10 -9 23 -9 19 0 38
25 105 133 46 72 116 177 157 232 41 55 73 104 72 109 -7 21 -28 16 -53 -11z"/>
<path d="M374 453 c-42 -45 -142 -187 -227 -322 l-79 -126 28 -3 c16 -2 30 0
31 5 8 22 178 282 234 356 34 45 62 88 63 96 2 26 -23 23 -50 -6z"/>
<path d="M8918 405 c-38 -56 -48 -65 -83 -73 -30 -6 -40 -12 -40 -27 0 -14 7
-20 23 -19 12 0 21 -2 19 -5 -95 -173 -107 -281 -32 -281 46 0 154 122 140
158 -6 15 -9 14 -23 -8 -10 -14 -32 -42 -51 -62 -88 -99 -90 10 -3 160 38 66
34 63 160 98 31 9 3 29 -37 27 -22 -1 -41 1 -41 4 0 3 9 18 21 34 20 29 20 59
-1 59 -5 0 -29 -29 -52 -65z"/>
<path d="M8511 434 c-25 -32 -27 -52 -4 -61 20 -8 66 41 61 66 -5 26 -34 24
-57 -5z"/>
<path d="M18008 288 c-42 -68 -91 -149 -108 -181 l-33 -59 28 4 c23 3 39 23
112 142 72 121 84 145 81 179 l-3 38 -77 -123z"/>
<path d="M3131 329 c-42 -53 -51 -79 -28 -79 24 0 104 110 90 124 -12 12 -22
5 -62 -45z"/>
<path d="M8208 248 c-42 -68 -91 -149 -108 -181 l-33 -59 28 4 c23 3 39 23
112 142 72 121 84 145 81 179 l-3 38 -77 -123z"/>
<path d="M12728 305 c-38 -56 -48 -65 -83 -73 -30 -6 -40 -12 -40 -27 0 -14 7
-20 23 -19 12 0 21 -2 19 -5 -30 -57 -77 -158 -77 -168 0 -7 10 -13 23 -13 17
0 25 9 35 43 7 23 30 70 50 105 38 66 34 63 160 98 31 9 3 29 -37 27 -22 -1
-41 1 -41 4 0 3 9 18 21 34 20 29 20 59 -1 59 -5 0 -29 -29 -52 -65z"/>
<path d="M858 295 c-38 -56 -48 -65 -83 -73 -30 -6 -40 -12 -40 -27 0 -14 7
-20 23 -19 12 0 21 -2 20 -5 -2 -3 -17 -33 -34 -66 -47 -91 -50 -105 -22 -105
19 0 27 8 37 38 7 20 29 65 49 100 38 66 33 63 160 98 31 9 3 29 -37 27 -22
-1 -41 1 -41 4 0 3 9 18 21 34 20 29 20 59 -1 59 -5 0 -29 -29 -52 -65z"/>
<path d="M3841 298 c-31 -69 -75 -202 -86 -261 -7 -34 -5 -37 16 -37 21 0 27
9 42 63 10 34 37 110 59 169 22 59 37 112 33 118 -15 25 -38 7 -64 -52z"/>
<path d="M12321 334 c-25 -32 -27 -52 -4 -61 20 -8 66 41 61 66 -5 26 -34 24
-57 -5z"/>
<path d="M451 324 c-25 -32 -27 -52 -4 -61 20 -8 66 41 61 66 -5 26 -34 24
-57 -5z"/>
<path d="M4149 328 c-34 -28 -229 -300 -229 -320 0 -4 11 -8 24 -8 18 0 34 15
67 67 24 37 73 106 108 153 35 47 64 91 65 99 1 19 -17 24 -35 9z"/>
<path d="M9083 281 c-71 -51 -128 -166 -121 -241 3 -33 5 -35 44 -38 37 -3 44
1 77 37 67 75 115 198 96 247 -12 33 -46 31 -96 -5z m57 -45 c0 -13 -10 -36
-21 -51 -12 -14 -23 -41 -25 -58 -5 -40 -55 -93 -79 -83 -32 12 0 103 61 175
40 46 64 53 64 17z"/>
<path d="M11090 292 c-74 -39 -155 -202 -131 -265 9 -22 17 -27 45 -27 27 0
40 7 59 31 l24 31 6 -31 c6 -28 10 -31 44 -31 l38 0 -24 19 c-21 16 -23 24
-17 60 3 23 16 62 27 86 26 56 32 111 12 130 -19 20 -41 19 -83 -3z m54 -41
c7 -11 -79 -172 -101 -188 -70 -53 -49 74 27 160 30 35 62 47 74 28z"/>
<path d="M8574 262 c-76 -55 -137 -175 -118 -230 8 -24 15 -27 62 -30 50 -3
54 -1 103 45 56 52 73 78 63 94 -4 7 -24 -9 -50 -39 -93 -106 -173 -87 -114
28 24 47 85 110 106 110 13 0 11 -7 -7 -40 -29 -52 -16 -64 22 -22 24 27 29
41 27 70 -3 31 -7 37 -28 40 -16 2 -41 -8 -66 -26z"/>
<path d="M9404 264 c-21 -14 -59 -45 -83 -67 -44 -43 -43 -30 3 32 28 38 22
60 -12 42 -26 -14 -82 -107 -116 -193 -14 -36 -26 -69 -26 -72 0 -3 10 -6 23
-6 16 0 28 12 45 43 38 71 136 176 116 124 -8 -23 23 -40 58 -33 38 7 98 51
98 72 0 18 -3 18 -42 -6 -34 -21 -68 -26 -68 -11 0 5 16 25 36 44 20 19 33 40
30 46 -10 16 -19 14 -62 -15z"/>
<path d="M10502 283 c-69 -4 -73 -5 -70 -26 3 -19 9 -22 53 -22 l51 0 -68 -67
c-37 -37 -81 -87 -96 -112 -28 -43 -30 -45 -46 -28 -23 27 -20 75 10 133 14
28 24 58 22 67 -7 37 -35 14 -73 -60 -43 -83 -80 -131 -96 -126 -6 2 -10 7
-10 11 1 4 1 16 1 26 0 11 22 52 49 93 31 45 46 77 40 82 -14 16 -60 -25 -96
-84 -36 -59 -49 -106 -39 -145 9 -37 60 -35 102 6 l31 30 7 -31 6 -32 77 6
c43 4 101 9 128 11 28 2 53 4 58 4 4 1 7 7 7 15 0 21 -35 29 -87 21 l-45 -7
27 37 c16 20 62 67 103 104 54 49 73 73 69 85 -4 9 -14 15 -24 14 -10 -1 -51
-4 -91 -5z"/>
<path d="M8401 217 c-41 -64 -91 -174 -91 -202 0 -8 9 -15 19 -15 14 0 23 11
32 38 14 45 65 147 90 184 11 14 19 33 19 42 0 34 -29 14 -69 -47z"/>
<path d="M10703 258 c-31 -35 -69 -106 -98 -181 -14 -37 -25 -70 -25 -72 0 -3
10 -5 23 -5 17 0 26 9 35 35 7 19 33 56 57 82 l45 48 -24 -55 c-38 -84 -42
-110 -20 -110 12 0 30 19 49 50 16 28 47 67 68 87 33 31 37 33 22 11 -42 -67
-37 -148 10 -148 25 0 33 14 15 25 -15 9 -12 62 6 98 10 18 34 52 55 76 41 46
45 56 29 66 -17 11 -49 -5 -106 -52 -33 -26 -51 -36 -45 -24 6 11 16 23 21 26
15 10 12 45 -5 45 -8 0 -40 -21 -72 -47 l-57 -46 27 46 c39 66 33 92 -10 45z"/>
<path d="M11290 243 c-29 -38 -110 -201 -110 -224 0 -37 35 -20 67 34 17 28
48 68 68 87 l37 35 -21 -42 c-12 -24 -24 -63 -28 -88 -6 -44 -5 -45 21 -45 23
0 26 4 26 38 0 44 26 103 69 156 31 38 41 76 20 76 -17 0 -51 -20 -99 -59
l-45 -36 23 37 c35 56 12 81 -28 31z"/>
<path d="M4618 155 c-38 -56 -48 -65 -83 -73 -30 -6 -40 -12 -40 -27 0 -14 7
-20 23 -19 25 1 28 -6 10 -24 -9 -9 -6 -12 14 -12 19 0 32 9 45 30 17 29 29
35 141 66 31 9 3 29 -37 27 -22 -1 -41 1 -41 4 0 3 9 18 21 34 20 29 20 59 -1
59 -5 0 -29 -29 -52 -65z"/>
<path d="M4211 184 c-25 -32 -27 -52 -4 -61 20 -8 66 41 61 66 -5 26 -34 24
-57 -5z"/>
<path d="M12893 181 c-42 -30 -97 -109 -108 -153 -6 -23 -4 -28 12 -28 13 0
25 13 36 38 21 47 84 122 103 122 21 0 17 -43 -7 -75 -12 -14 -23 -40 -25 -56
-3 -23 0 -29 16 -29 37 0 88 137 69 186 -12 33 -46 31 -96 -5z"/>
<path d="M1023 171 c-39 -28 -95 -105 -108 -148 -5 -19 -2 -23 14 -23 13 0 26
12 36 34 22 45 83 116 101 116 21 0 17 -43 -7 -75 -12 -15 -23 -38 -25 -51 -2
-19 2 -24 20 -24 25 0 50 42 65 112 20 86 -22 112 -96 59z"/>
<path d="M3030 182 c-37 -20 -101 -103 -119 -153 -9 -26 -8 -29 13 -29 16 0
25 9 34 33 25 70 107 140 126 109 3 -5 -11 -39 -30 -75 l-35 -67 29 0 c25 0
31 7 51 50 54 119 22 180 -69 132z"/>
<path d="M12389 166 c-38 -26 -76 -72 -103 -123 -21 -41 -20 -43 8 -43 17 0
27 9 36 30 16 38 85 110 106 110 13 0 12 -7 -7 -40 -29 -52 -16 -64 22 -22 24
27 29 41 27 70 -3 31 -7 37 -28 40 -14 1 -41 -8 -61 -22z"/>
<path d="M13214 164 c-21 -14 -59 -45 -83 -67 -44 -43 -43 -30 3 32 28 38 22
60 -12 42 -21 -11 -84 -109 -97 -148 -6 -21 -3 -23 26 -23 25 0 40 9 66 40 34
40 57 53 47 27 -8 -23 23 -40 58 -33 38 7 98 51 98 72 0 18 -3 18 -42 -6 -34
-21 -68 -26 -68 -11 0 5 16 25 36 44 20 19 33 40 30 46 -10 16 -19 14 -62 -15z"/>
<path d="M519 156 c-38 -26 -76 -72 -103 -123 -16 -33 -16 -33 8 -33 18 0 30
9 41 30 20 39 82 100 101 100 13 0 11 -7 -7 -40 -29 -52 -16 -64 22 -22 24 27
29 41 27 70 -3 31 -7 37 -28 40 -14 1 -41 -8 -61 -22z"/>
<path d="M1344 154 c-21 -14 -59 -45 -83 -67 -44 -43 -43 -30 3 32 28 38 22
60 -12 42 -20 -11 -76 -93 -93 -137 -8 -22 -6 -24 27 -24 27 0 41 7 65 35 31
35 53 46 43 22 -8 -23 23 -40 58 -33 38 7 98 51 98 72 0 18 -3 18 -42 -6 -34
-21 -68 -26 -68 -11 0 5 16 25 36 44 20 19 33 40 30 46 -10 16 -19 14 -62 -15z"/>
<path d="M2442 173 c-69 -4 -73 -5 -70 -26 3 -19 9 -22 54 -22 l52 0 -62 -59
c-55 -54 -59 -60 -39 -63 17 -3 43 14 103 68 110 100 107 109 -38 102z"/>
<path d="M12218 127 c-35 -53 -68 -111 -68 -122 0 -15 49 -3 54 13 4 10 22 45
41 77 19 31 35 64 35 71 0 30 -29 12 -62 -39z"/>
<path d="M348 117 c-19 -28 -43 -67 -52 -85 -17 -32 -16 -32 9 -32 19 0 29 10
46 42 12 24 30 55 40 70 11 14 19 33 19 42 0 31 -28 15 -62 -37z"/>
<path d="M2643 148 c-21 -23 -83 -129 -83 -141 0 -4 14 -7 32 -7 21 0 42 9 61
28 25 23 28 24 18 5 -16 -31 -15 -33 21 -33 22 0 42 10 67 33 27 25 31 27 18
7 -22 -32 -21 -40 2 -40 11 0 28 14 40 33 11 17 35 49 52 70 24 27 30 40 22
48 -16 16 -48 2 -109 -48 -33 -26 -51 -36 -45 -24 6 11 16 23 21 26 15 10 12
45 -5 45 -8 0 -40 -21 -72 -47 l-57 -46 27 46 c39 66 33 92 -10 45z"/>
<path d="M3238 143 c-17 -20 -78 -126 -78 -136 0 -4 14 -7 32 -7 22 0 42 10
66 33 l34 32 -16 -32 c-16 -33 -16 -33 9 -33 14 0 25 4 25 9 0 5 18 33 40 62
77 103 40 119 -70 30 l-45 -36 23 37 c31 50 15 80 -20 41z"/>
<path d="M2163 126 c-16 -13 -41 -47 -57 -75 l-27 -51 24 0 c18 0 34 15 66 63
23 34 42 66 42 72 1 19 -19 15 -48 -9z"/>
<path d="M2261 127 c-6 -8 -22 -39 -36 -70 l-25 -57 25 0 c21 0 30 10 52 54
24 50 26 86 5 86 -5 0 -15 -6 -21 -13z"/>
<path d="M1961 40 l-44 -40 46 0 c48 0 77 23 77 62 0 29 -32 20 -79 -22z"/>
<path d="M12734 58 c-4 -7 -14 -23 -22 -35 -13 -21 -13 -23 5 -23 25 0 51 46
36 61 -8 8 -13 7 -19 -3z"/>
<path d="M856 35 c-19 -29 -16 -41 9 -31 20 7 30 35 18 47 -7 7 -16 1 -27 -16z"/>
<path d="M12473 38 c-23 -30 -24 -38 -5 -38 11 0 23 8 26 17 9 21 -8 38 -21
21z"/>
<path d="M602 28 c-7 -7 -12 -16 -12 -20 0 -12 28 -10 36 3 10 17 -10 31 -24
17z"/>
<path d="M4285 20 l-30 -20 58 0 c50 0 58 2 55 18 -5 25 -48 26 -83 2z"/>
<path d="M4137 23 c-13 -12 -7 -23 13 -23 11 0 20 7 20 15 0 15 -21 21 -33 8z"/>
<path d="M4760 15 c-10 -13 -9 -15 9 -15 12 0 21 6 21 15 0 8 -4 15 -9 15 -5
0 -14 -7 -21 -15z"/>
</g>
</svg>
